SplineFontDB: 3.2
FontName: ZameroSans-SemiBold
FullName: Zamero Sans SemiBold
FamilyName: Zamero Sans
Weight: SemiBold
Copyright: Copyright (c) 2024, Zamero Type Foundry
UComments: "2024-1-17: Created with FontForge (http://fontforge.org)+AAoACgAK-Instead of Charlie and the Alphabet and Charlie and the Numbers, how about Charlie and the Fonts? :)"
Version: 001.000
ItalicAngle: 0
UnderlinePosition: -100
UnderlineWidth: 50
Ascent: 800
Descent: 200
InvalidEm: 0
LayerCount: 2
Layer: 0 0 "Back" 1
Layer: 1 0 "Fore" 0
XUID: [1021 474 1118879153 20760]
StyleMap: 0x0020
FSType: 0
OS2Version: 0
OS2_WeightWidthSlopeOnly: 0
OS2_UseTypoMetrics: 1
CreationTime: 1705525712
ModificationTime: 1727736521
PfmFamily: 33
TTFWeight: 600
TTFWidth: 5
LineGap: 90
VLineGap: 90
OS2TypoAscent: 0
OS2TypoAOffset: 1
OS2TypoDescent: 0
OS2TypoDOffset: 1
OS2TypoLinegap: 90
OS2WinAscent: 0
OS2WinAOffset: 1
OS2WinDescent: 0
OS2WinDOffset: 1
HheadAscent: 0
HheadAOffset: 1
HheadDescent: 0
HheadDOffset: 1
OS2Vendor: 'ZAM '
Lookup: 1 0 0 "'ss15' Style Set 15 lookup 20" { "'ss15' Style Set 15 lookup 20-1" ("ss15") } ['ss15' ('DFLT' <'dflt' > 'grek' <'dflt' > 'latn' <'dflt' > ) ]
Lookup: 1 0 0 "'ss14' Style Set 14 lookup 19" { "'ss14' Style Set 14 lookup 19-1" ("ss14") } ['ss14' ('DFLT' <'dflt' > 'grek' <'dflt' > 'latn' <'dflt' > ) ]
Lookup: 1 0 0 "'onum' Oldstyle Figures lookup 18" { "'onum' Oldstyle Figures lookup 18-1" ("osf") } ['onum' ('DFLT' <'dflt' > 'grek' <'dflt' > 'latn' <'dflt' > ) ]
Lookup: 1 0 0 "'tnum' Tabular Numbers lookup 17" { "'tnum' Tabular Numbers lookup 17-1" ("tf") } ['tnum' ('DFLT' <'dflt' > 'grek' <'dflt' > 'latn' <'dflt' > ) ]
Lookup: 1 0 0 "'dnom' Denominators lookup 0" { "'dnom' Denominators lookup 0 subtable" ("dnom") } ['dnom' ('DFLT' <'dflt' > 'latn' <'dflt' > ) ]
Lookup: 1 0 0 "'numr' Numerators lookup 0" { "'numr' Numerators lookup 0 subtable" ("numr") } ['numr' ('DFLT' <'dflt' > 'latn' <'dflt' > ) ]

StartChar: I
Encoding: 73 73 0
Width: 434
Flags: W
HStem: 0 136.25<32.5 137.5 296.5 401.5> 30 106.25<137.5 296.5> 593.75 137.25<32.5 137.5 296.5 401.5> 593.75 107.25<137.5 296.5>
VStem: 32.5 369<0 136.25 593.75 731> 137.5 159<30 701>
LayerCount: 2
Fore
SplineSet
401.5 0 m 1x88
 32.5 0 l 1
 32.5 136.25 l 1
 401.5 136.25 l 1
 401.5 0 l 1x88
401.5 593.75 m 1x28
 32.5 593.75 l 1
 32.5 731 l 1
 401.5 731 l 1
 401.5 593.75 l 1x28
137.5 30 m 1x54
 137.5 701 l 1
 296.5 701 l 1
 296.5 30 l 1
 137.5 30 l 1x54
EndSplineSet
EndChar

StartChar: O
Encoding: 79 79 1
Width: 797
Flags: W
HStem: -9.99805 143.712<298.417 499.36> 595.409 143.712<298.417 499.36>
VStem: 37.5 156.099<245.315 483.808> 604.179 156.099<245.315 483.808>
LayerCount: 2
Fore
SplineSet
193.598632812 364.561523438 m 0
 193.598632812 226.13291454 255.081799401 133.713867188 398.888671875 133.713867188 c 0
 542.695544349 133.713867188 604.178710938 226.13291454 604.178710938 364.561523438 c 0
 604.178710938 502.990132333 542.695544349 595.409179688 398.888671875 595.409179688 c 0
 255.081799401 595.409179688 193.598632812 502.990132333 193.598632812 364.561523438 c 0
37.5 364.561523438 m 0
 37.5 591.206054688 174.242524632 739.12109375 398.888671875 739.12109375 c 0
 623.534819118 739.12109375 760.27734375 591.206054688 760.27734375 364.561523438 c 0
 760.27734375 137.916992188 623.534819118 -9.998046875 398.888671875 -9.998046875 c 0
 174.242524632 -9.998046875 37.5 137.916992188 37.5 364.561523438 c 0
EndSplineSet
EndChar

StartChar: H
Encoding: 72 72 2
Width: 719
Flags: W
HStem: 0 21G<57.5 216.5 502.5 661.5> 290 136<137.5 566.5> 711.008 20G<57.5 216.5 502.5 661.5>
VStem: 57.5 159<0 290 426 731.008> 137.5 79<290 426> 502.5 159<0 290 426 731.008> 502.5 64<290 426>
LayerCount: 2
Fore
SplineSet
566.5 290 m 1xea
 137.5 290 l 1
 137.5 426 l 1
 566.5 426 l 1
 566.5 290 l 1xea
502.5 0 m 1xe4
 502.5 731.0078125 l 1
 661.5 731.0078125 l 1
 661.5 0 l 1
 502.5 0 l 1xe4
57.5 0 m 1xf0
 57.5 731.0078125 l 1
 216.5 731.0078125 l 1
 216.5 0 l 1
 57.5 0 l 1xf0
EndSplineSet
EndChar

StartChar: V
Encoding: 86 86 4
Width: 699
Flags: W
HStem: 0 21G<245.797 462.929> 711.008 20G<7.5 181.505 517.783 691.5>
LayerCount: 2
Fore
SplineSet
252.5 0 m 1
 7.5 731.0078125 l 1
 175.25 731.0078125 l 1
 353.606445312 160.694335938 l 1
 523.75 731.0078125 l 1
 691.5 731.0078125 l 1
 456.5 0 l 1
 252.5 0 l 1
EndSplineSet
EndChar

StartChar: D
Encoding: 68 68 5
Width: 727
Flags: W
HStem: 0 141.602<216.5 422.367> 589.4 141.608<216.5 422.367>
VStem: 57.5 159<141.602 589.4> 530.429 159.849<249.438 479.898>
LayerCount: 2
Fore
SplineSet
57.5 0 m 1
 57.5 731.0078125 l 1
 316.388671875 731.0078125 l 2
 513.109624971 731.0078125 690.27734375 631.206054688 690.27734375 364.561523438 c 0
 690.27734375 97.9169921875 511.958235806 -2.29954943976e-14 316.388671875 0 c 2
 57.5 0 l 1
216.5 589.399710485 m 1
 216.5 141.601910214 l 1
 291.388671875 141.711914062 l 2
 428.238957869 141.865670428 530.428710938 181.783330974 530.428710938 364.561523438 c 0
 530.428710938 547.277089772 428.23895901 589.150955825 291.388671875 589.295898438 c 2
 216.5 589.399710485 l 1
EndSplineSet
EndChar

StartChar: U
Encoding: 85 85 6
Width: 719
Flags: W
HStem: -9.99805 143.712<269.944 445.833> 711.008 20G<57.5 216.5 499.277 658.277>
VStem: 57.5 159<191.346 731.008> 499.277 159<191.346 731.008>
LayerCount: 2
Fore
SplineSet
357.888671875 -9.998046875 m 0
 133.555500789 -9.998046875 57.5 102.375640235 57.5 274.561523438 c 2
 57.5 731.0078125 l 1
 216.5 731.0078125 l 1
 216.5 304.561523438 l 2
 216.5 202.112125545 235.994026816 133.713867188 357.888671875 133.713867188 c 0
 479.783316934 133.713867188 499.27734375 202.112125545 499.27734375 304.561523438 c 2
 499.27734375 731.0078125 l 1
 658.27734375 731.0078125 l 1
 658.27734375 274.561523438 l 2
 658.27734375 102.375640235 582.221842961 -9.998046875 357.888671875 -9.998046875 c 0
EndSplineSet
EndChar

StartChar: L
Encoding: 76 76 7
Width: 568
Flags: W
HStem: 0 137.25<216.5 544> 711.008 20G<57.5 216.5>
VStem: 57.5 159<137.25 731.008>
LayerCount: 2
Fore
SplineSet
216.5 137.25 m 1
 544 137.25 l 1
 544 0 l 1
 57.5 0 l 1
 57.5 731.0078125 l 1
 216.5 731.0078125 l 1
 216.5 137.25 l 1
EndSplineSet
EndChar

StartChar: F
Encoding: 70 70 8
Width: 574
Flags: W
HStem: 0 21G<57.5 216.5> 269 138.25<137.5 481.5> 593.758 137.25<216.5 541.5>
VStem: 57.5 159<0 269 407.25 593.758> 137.5 79<269 407.25>
LayerCount: 2
Fore
SplineSet
481.5 269 m 1xe8
 137.5 269 l 1
 137.5 407.25 l 1
 481.5 407.25 l 1
 481.5 269 l 1xe8
216.5 593.7578125 m 1xf0
 216.5 0 l 1
 57.5 0 l 1
 57.5 731.0078125 l 1
 541.5 731.0078125 l 1
 541.5 593.7578125 l 1
 216.5 593.7578125 l 1xf0
EndSplineSet
EndChar

StartChar: C
Encoding: 67 67 9
Width: 667
Flags: W
HStem: -9.99805 143.712<312.045 549.322> 595.409 143.712<312.045 529.703>
VStem: 38.25 163.099<242.987 481.48>
LayerCount: 2
Fore
SplineSet
38.25 360.561523438 m 0
 38.25 589.626439045 171.409980881 739.12109375 405.888671875 739.12109375 c 0
 571.571008916 739.12109375 639.681640625 672.891601562 639.681640625 672.891601562 c 1
 582.10546875 542.388671875 l 1
 582.10546875 542.388671875 528.525639229 595.409179688 419.888671875 595.409179688 c 0
 266.800096941 595.409179688 201.348632812 501.3887464 201.348632812 360.561523438 c 0
 201.348632812 224.531528607 266.800096941 133.713867188 419.888671875 133.713867188 c 0
 536.66766683 133.713867188 598.518554688 179.845703125 598.518554688 179.845703125 c 1
 642.827148438 44.595703125 l 1
 642.827148438 44.595703125 570.452460077 -9.998046875 405.888671875 -9.998046875 c 0
 171.409980881 -9.998046875 38.25 136.337376545 38.25 360.561523438 c 0
EndSplineSet
Substitution2: "'ss12' Style Set 12 lookup 13-1" C.ss12
EndChar

StartChar: E
Encoding: 69 69 10
Width: 579
Flags: W
HStem: 0 137.25<216.5 546.5> 295.75 138.5<137.5 486.5> 593.758 137.25<216.5 546.5>
VStem: 137.5 79<295.75 434.25>
LayerCount: 2
Fore
SplineSet
486.5 295.75 m 1
 137.5 295.75 l 1
 137.5 434.25 l 1
 486.5 434.25 l 1
 486.5 295.75 l 1
216.5 593.7578125 m 1
 216.5 137.25 l 1
 546.5 137.25 l 1
 546.5 0 l 1
 57.5 0 l 1
 57.5 731.0078125 l 1
 546.5 731.0078125 l 1
 546.5 593.7578125 l 1
 216.5 593.7578125 l 1
EndSplineSet
EndChar

StartChar: N
Encoding: 78 78 11
Width: 719
Flags: W
HStem: 0 21G<57.5 208.5 488.83 661.5> 711.008 20G<57.5 230.525 510.5 661.5>
VStem: 57.5 151<0 462.505> 510.5 151<281.1 731.008>
LayerCount: 2
Fore
SplineSet
57.5 0 m 1
 57.5 731.0078125 l 1
 217.5 731.0078125 l 1
 510.5 281.099609375 l 1
 510.5 731.0078125 l 1
 661.5 731.0078125 l 1
 661.5 0 l 1
 501.5 0 l 1
 208.5 462.504882812 l 1
 208.5 0 l 1
 57.5 0 l 1
EndSplineSet
EndChar

StartChar: M
Encoding: 77 77 12
Width: 830
Flags: W
HStem: 0 21G<57.5 216.5 613.5 772.5> 711.008 20G<57.5 246.351 583.649 772.5>
VStem: 57.5 159<0 440.005> 613.5 159<0 440.005>
LayerCount: 2
Fore
SplineSet
57.5 0 m 1
 57.5 731.0078125 l 1
 236.5 731.0078125 l 1
 415 368.599609375 l 1
 593.5 731.0078125 l 1
 772.5 731.0078125 l 1
 772.5 0 l 1
 613.5 0 l 1
 613.5 440.004882812 l 1
 465 157.5 l 1
 365 157.5 l 1
 216.5 440.004882812 l 1
 216.5 0 l 1
 57.5 0 l 1
EndSplineSet
EndChar

StartChar: G
Encoding: 71 71 13
Width: 789
Flags: W
HStem: -9.99805 143.712<300.188 503.805> 289.75 130.5<406 541.019 685.327 761.5> 289.75 19.8457<541.019 685.327> 595.409 143.712<308.061 536.159>
VStem: 37.5 163.099<242.918 483.808> 553.231 146.251<180.145 289.246>
LayerCount: 2
Fore
SplineSet
761.5 289.75 m 1xdc
 406 289.75 l 1
 406 420.25 l 1
 761.5 420.25 l 1
 761.5 289.75 l 1xdc
37.5 364.561523438 m 0
 37.5 591.206054688 178.026332352 739.12109375 408.888671875 739.12109375 c 0
 580.41754608 739.12109375 650.931640625 670.641601562 650.931640625 670.641601562 c 1
 592.10546875 541.638671875 l 1
 592.10546875 541.638671875 533.901471894 595.409179688 415.888671875 595.409179688 c 0
 265.076740941 595.409179688 200.598632812 502.990132333 200.598632812 364.561523438 c 0
 200.598632812 226.13291454 255.879944241 133.713867188 406.888671875 133.713867188 c 0
 511.404146644 133.713867188 553.231445312 179.511303097 553.231445312 248.25 c 0
 553.231445312 291.155368823 541.018554688 309.595703125 541.018554688 309.595703125 c 1
 685.327148438 309.595703125 l 1xbc
 685.327148438 309.595703125 699.482421875 289.078597619 699.482421875 222 c 0
 699.482421875 93.0859042083 603.062615657 -9.998046875 399.888671875 -9.998046875 c 0
 169.065032457 -9.998046875 37.5 137.916992188 37.5 364.561523438 c 0
EndSplineSet
Substitution2: "'ss12' Style Set 12 lookup 13-1" G.ss12
Substitution2: "'ss08' Style Set 8 lookup 9-1" G.ss08
EndChar

StartChar: A
Encoding: 65 65 14
Width: 719
Flags: W
HStem: 0 21G<7.5 181.767 536.936 711.5> 140 137.25<162 556> 711.008 20G<262.818 446.455>
LayerCount: 2
Fore
SplineSet
556 140 m 1
 162 140 l 1
 162 277.25 l 1
 556 277.25 l 1
 556 140 l 1
439 731.0078125 m 1
 711.5 0 l 1
 543.75 0 l 1
 355.393554688 552.813476562 l 1
 175.25 0 l 1
 7.5 0 l 1
 270 731.0078125 l 1
 439 731.0078125 l 1
EndSplineSet
EndChar

StartChar: P
Encoding: 80 80 15
Width: 665
Flags: W
HStem: 0 21G<57.5 216.5> 224 133.602<161.5 428.381> 593.399 137.608<216.5 422.277>
VStem: 57.5 159<0 224 357.602 593.399> 161.5 55<224 357.602> 473.429 159.849<402.045 548.17>
LayerCount: 2
Fore
SplineSet
161.5 224 m 1xec
 161.5 357.6015625 l 1xec
 324.388671875 357.711914062 l 2
 409.713940044 357.840674703 473.428710938 378.72307682 473.428710938 474.561523438 c 0
 473.428710938 571.096014752 409.71394949 593.174699312 324.388671875 593.295898438 c 2
 216.5 593.399414062 l 1
 216.5 0 l 1
 57.5 0 l 1
 57.5 731.0078125 l 1xf4
 346.388671875 731.0078125 l 2
 497.334707979 731.0078125 633.27734375 661.164588003 633.27734375 474.561523438 c 0
 633.27734375 291.297915868 496.451235081 224 346.388671875 224 c 2
 161.5 224 l 1xec
EndSplineSet
EndChar

StartChar: R
Encoding: 82 82 16
Width: 660
Flags: W
HStem: 0 21G<57.5 216.5 481.545 650> 260 133.102<161.5 404.137> 593.149 137.858<216.5 411.759>
VStem: 57.5 159<0 260 393.102 593.149> 161.5 55<260 393.102> 450.929 159.849<428.011 556.553>
LayerCount: 2
Back
SplineSet
124 383.3515625 m 1xec
 300.888671875 383.461914062 l 2
 383.403259307 383.509014034 462.928710938 404.697396723 462.928710938 501.561523438 c 0
 462.928710938 596.672668425 383.403268044 618.487535435 300.888671875 618.545898438 c 2
 184 618.649414062 l 1
 184 0 l 1
 55 0 l 1
 55 731.0078125 l 1xf4
 308.888671875 731.0078125 l 2
 457.204101562 731.0078125 590.77734375 670.696715458 590.77734375 509.561523438 c 4
 590.77734375 364.195131811 466.688476562 330.276367188 466.688476562 330.276367188 c 1
 466.688476562 330.276367188 540.174524344 311.767586577 573.702148438 195.399414062 c 2
 630 0 l 1
 492 0 l 1
 447 165 l 2
 420.732434887 256.417062766 391.813913829 266 270 266 c 2
 124 266 l 1
 124 383.3515625 l 1xec
EndSplineSet
Fore
SplineSet
161.5 393.1015625 m 1xec
 315.388671875 393.211914062 l 2
 392.985142516 393.260173 450.928710938 410.986055544 450.928710938 492.061523438 c 0
 450.928710938 574.164278889 392.985142531 592.979717425 315.388671875 593.045898438 c 2
 216.5 593.149414062 l 1
 216.5 0 l 1
 57.5 0 l 1
 57.5 731.0078125 l 1xf4
 331.388671875 731.0078125 l 2
 478.388729179 731.0078125 610.77734375 669.334960938 610.77734375 504.561523438 c 0
 610.77734375 368.825734629 498.188476562 331.276367188 498.188476562 331.276367188 c 1
 498.188476562 331.276367188 559.602386996 313.753057276 592.178710938 200.686767578 c 2
 650 0 l 1
 487 0 l 1
 442 165 l 2
 417.670145304 250.068418686 395.076237465 260 291.5 260 c 2
 161.5 260 l 1
 161.5 393.1015625 l 1xec
EndSplineSet
Substitution2: "'ss01' Style Set 1 lookup 2-1" R.ss01
EndChar

StartChar: T
Encoding: 84 84 17
Width: 614
Flags: W
HStem: 0 21G<227.5 386.5> 593.75 137.25<32.5 227.5 386.5 581.5> 593.75 107.25<227.5 386.5>
VStem: 227.5 159<0 701>
LayerCount: 2
Fore
SplineSet
581.5 593.75 m 1xd0
 32.5 593.75 l 1
 32.5 731 l 1
 581.5 731 l 1
 581.5 593.75 l 1xd0
227.5 0 m 1
 227.5 701 l 1
 386.5 701 l 1xb0
 386.5 0 l 1
 227.5 0 l 1
EndSplineSet
EndChar

StartChar: Q
Encoding: 81 81 18
Width: 866
Flags: W
HStem: -9.99805 143.712<300.952 637.523 680.438 768.199> 595.409 143.712<302.388 505.663>
VStem: 37.5 156.099<245.315 483.808> 614.179 158.099<250.076 480.205>
LayerCount: 2
Fore
SplineSet
37.5 364.561523438 m 0
 37.5 591.206054687 176.134428492 739.12109375 403.888671875 739.12109375 c 0
 632.886153714 739.12109375 772.27734375 589.104132899 772.27734375 384.561523438 c 0
 772.27734375 211.086144154 680.438476562 137.848632812 680.438476562 137.848632812 c 1
 744.922146133 139.072304438 825.138671875 152.751953125 825.138671875 152.751953125 c 1
 839.388671875 19.001953125 l 1
 839.388671875 19.001953125 733.112938082 -9.998046875 459 -9.998046875 c 0
 167.193506585 -9.998046875 37.5 137.916992188 37.5 364.561523438 c 0
193.598632812 364.561523438 m 0
 193.598632812 226.13291454 260.701795144 133.713867188 403.888671875 133.713867188 c 0
 547.075548606 133.713867188 614.178710938 226.13291454 614.178710938 364.561523438 c 0
 614.178710938 502.990132333 547.075548606 595.409179688 403.888671875 595.409179688 c 0
 260.701795144 595.409179688 193.598632812 502.990132333 193.598632812 364.561523438 c 0
EndSplineSet
Substitution2: "'ss10' Style Set 10 lookup 11-1" Q.ss10
Substitution2: "'ss09' Style Set 9 lookup 10-1" Q.ss09
EndChar

StartChar: B
Encoding: 66 66 19
Width: 640
Flags: W
HStem: 0 137.71<215.25 419.472> 299.656 131.695<161.5 399.735> 593.399 137.608<215.25 397.725>
VStem: 161.5 53.75<299.656 431.352> 425.679 158.599<456.757 565.446> 448.679 158.599<164.597 273.041>
LayerCount: 2
Fore
SplineSet
494.162109375 376.4375 m 1xf8
 494.162109375 376.4375 607.27734375 342.813198592 607.27734375 206.446289062 c 0xf4
 607.27734375 56.2257093531 482.697709119 -1.54459778301e-14 343.388671875 0 c 2
 57.5 0 l 1
 57.5 731.0078125 l 1
 322.388671875 731.0078125 l 2
 460.1809962 731.0078125 584.27734375 674.782103147 584.27734375 524.561523438 c 0
 584.27734375 408.693422378 494.162109375 376.4375 494.162109375 376.4375 c 1xf8
215.25 137.709990234 m 1
 329.138671875 137.711914062 l 2
 397.501448077 137.712806007 448.678710938 152.806900115 448.678710938 218.446289062 c 0xf4
 448.678710938 284.963076113 395.437614953 299.443496874 324.138671875 299.545898438 c 2
 161.5 299.65625 l 1
 161.5 431.3515625 l 1
 302.138671875 431.461914062 l 2
 372.864942874 431.605742311 425.678710938 445.819969239 425.678710938 511.311523438 c 0xf8
 425.678710938 577.967198647 372.865252493 593.237854004 302.138671875 593.295898438 c 2
 215.25 593.399414062 l 1
 215.25 137.709990234 l 1
EndSplineSet
EndChar

StartChar: J
Encoding: 74 74 20
Width: 432
Flags: W
HStem: -10 139<22.1405 190.785> 593.758 137.25<50 213>
VStem: 213 159<150.232 593.758>
LayerCount: 2
Fore
SplineSet
128 129 m 0
 187.844482422 129 213 156.053528568 213 219.5 c 2
 213 593.7578125 l 1
 50 593.7578125 l 1
 50 731.0078125 l 1
 372 731.0078125 l 1
 372 201 l 2
 372 74.4647758463 312.5 -10 169 -10 c 0
 75.0093904821 -10 10 10 10 10 c 1
 24 144 l 1
 24 144 67.3388671875 129 128 129 c 0
EndSplineSet
EndChar

StartChar: K
Encoding: 75 75 21
Width: 669
Flags: W
HStem: 0 21G<57.5 216.5 438.908 656.5> 331.25 47.25<133.5 305.5> 711.008 20G<57.5 216.5 437.046 646.5>
VStem: 57.5 159<0 311 401 731.008> 197.5 19<311 401>
LayerCount: 2
Fore
SplineSet
133.5 378.5 m 1xe0
 305.5 378.5 l 1
 305.5 331.25 l 1
 133.5 331.25 l 1
 133.5 378.5 l 1xe0
455.5 0 m 1
 197.5 311 l 1
 197.5 401 l 1xe8
 452.5 731.0078125 l 1
 646.5 731.0078125 l 1
 347.5 372 l 1
 656.5 0 l 1
 455.5 0 l 1
57.5 0 m 1xf0
 57.5 731.0078125 l 1
 216.5 731.0078125 l 1
 216.5 0 l 1
 57.5 0 l 1xf0
EndSplineSet
EndChar

StartChar: S
Encoding: 83 83 22
Width: 591
Flags: W
HStem: -10 138.712<136.852 368.111> 599.409 139.712<236.066 444.124>
VStem: 44.627 163.062<477.534 573.238> 397.088 156.932<155.969 252.35>
LayerCount: 2
Fore
SplineSet
283.3828125 289.390625 m 0
 100.497405732 338.613117722 44.626953125 406.518908657 44.626953125 518.5 c 0
 44.626953125 652.70279131 145.694896091 739.12109375 311.733398438 739.12109375 c 0
 457.739037049 739.12109375 528.745117188 688.891601562 528.745117188 688.891601562 c 1
 486.37109375 556.888671875 l 1
 486.37109375 556.888671875 425.050443809 599.409179688 328.86328125 599.409179688 c 0
 245.27673825 599.409179688 207.688476562 573.816247368 207.688476562 525.5 c 0
 207.688476562 483.895116054 231.148134995 461.956990024 319.747070312 439.081054688 c 0
 500.240544838 392.634263199 554.01953125 324.628727757 554.01953125 210 c 0
 554.01953125 74.4171417511 459.942655226 -10 283.8046875 -10 c 0
 131.718589942 -10 35.31640625 42.2294921875 35.31640625 42.2294921875 c 1
 72.47265625 177.232421875 l 1
 72.47265625 177.232421875 157.547514956 128.711914062 266.696289062 128.711914062 c 0
 355.032330757 128.711914062 397.087890625 154.833109388 397.087890625 205.5 c 0
 397.087890625 248.046057645 378.162289466 263.924933581 283.3828125 289.390625 c 0
EndSplineSet
EndChar

StartChar: W
Encoding: 87 87 23
Width: 949
Flags: W
HStem: 0 21G<167.013 372.098 571.117 776.151> 711.008 20G<7.5 177.096 769.43 941.5>
LayerCount: 2
Fore
SplineSet
171.5 0 m 1
 7.5 731.0078125 l 1
 173.25 731.0078125 l 1
 278.606445312 183.194335938 l 1
 396.75 671.0078125 l 1
 550.75 671.0078125 l 1
 668.606445312 183.194335938 l 1
 773.25 731.0078125 l 1
 941.5 731.0078125 l 1
 771.5 0 l 1
 576 0 l 1
 473.75 418.771484375 l 1
 367 0 l 1
 171.5 0 l 1
EndSplineSet
EndChar

StartChar: X
Encoding: 88 88 24
Width: 689
Flags: W
HStem: 0 21G<12.5 214.108 474.892 676.5> 711.008 20G<22.5 216.257 472.743 666.5>
VStem: 306 77<311 401>
LayerCount: 2
Fore
SplineSet
202.5 0 m 1
 12.5 0 l 1
 241 372 l 1
 22.5 731.0078125 l 1
 205.5 731.0078125 l 1
 383 401 l 1
 383 311 l 1
 202.5 0 l 1
486.5 0 m 1
 306 311 l 1
 306 401 l 1
 483.5 731.0078125 l 1
 666.5 731.0078125 l 1
 448 372 l 1
 676.5 0 l 1
 486.5 0 l 1
EndSplineSet
EndChar

StartChar: Y
Encoding: 89 89 25
Width: 689
Flags: W
HStem: 0 21G<265 424> 267 89<271 418> 711.008 20G<22.5 205.082 483.918 666.5>
VStem: 265 159<0 356>
LayerCount: 2
Fore
SplineSet
271 267 m 1
 22.5 731.0078125 l 1
 195.25 731.0078125 l 1
 344.5 427.416015625 l 1
 493.75 731.0078125 l 1
 666.5 731.0078125 l 1
 418 267 l 1
 271 267 l 1
265 0 m 1
 265 356 l 1
 424 356 l 1
 424 0 l 1
 265 0 l 1
EndSplineSet
EndChar

StartChar: Z
Encoding: 90 90 26
Width: 594
Flags: W
HStem: 0 137.25<237.5 561.5> 593.75 137.25<42.5 356.5>
LayerCount: 2
Fore
SplineSet
561.5 0 m 1
 32.5 0 l 1
 32.5 96 l 1
 356.5 593.75 l 1
 42.5 593.75 l 1
 42.5 731 l 1
 551.5 731 l 1
 551.5 625 l 1
 237.5 137.25 l 1
 561.5 137.25 l 1
 561.5 0 l 1
EndSplineSet
EndChar

StartChar: ampersand
Encoding: 38 38 27
Width: 754
Flags: W
HStem: -10 128.593<208.799 359.084 536.213 733.128> 609.762 129.23<340.886 491.595>
VStem: 37.5 143.337<145.563 263.895> 156.551 153.376<449.421 579.666>
LayerCount: 2
Fore
SplineSet
288.767578125 446.321289062 m 1xe0
 318.841796875 353.213867188 l 0
 318.841796875 353.213867188 180.836914063 297.70119658 180.836914062 204 c 0
 180.836914062 149.472177365 218.77342531 118.592773438 279.400390625 118.592773438 c 0
 366.584088667 118.592773438 483.62400325 198.067888998 541 452.705078125 c 1
 681.538085938 412.3046875 l 1
 590.225459685 104.385759222 437.350323735 -10 265.928710938 -10 c 0
 121.32321039 -10 37.5 70.9521484375 37.5 188.185546875 c 0
 37.5 377.170039143 288.767578125 446.321289062 288.767578125 446.321289062 c 1xe0
742.451171875 4.5546875 m 1
 742.451171875 4.5546875 711.595885599 -10 628.5 -10 c 0
 484.384090643 -10 383.913971353 63.8150086493 310 156 c 0
 206.050372663 285.677640827 156.55078125 416.354893974 156.55078125 522 c 0
 156.55078125 663.905888236 247.008614932 738.9921875 397.022460938 738.9921875 c 0
 484.940994231 738.9921875 538.650390625 703.649414062 538.650390625 703.649414062 c 1
 501.0703125 582.348632812 l 1
 501.0703125 582.348632812 465.371262986 609.76171875 410.016845703 609.76171875 c 0
 343.236508797 609.76171875 309.926757812 577.631738228 309.926757812 506 c 0xd0
 309.926757812 443.376292686 340.058837588 346.717434406 421.9375 248 c 0
 472.180462141 187.249238334 536.737275255 125.3046875 634.01171875 125.3046875 c 0
 696.099939193 125.3046875 731.62890625 134.5546875 731.62890625 134.5546875 c 1
 742.451171875 4.5546875 l 1
EndSplineSet
EndChar

StartChar: i
Encoding: 105 105 28
Width: 269
Flags: W
HStem: 0 21G<60 209> 481.011 20G<60 209> 568.551 176.449<73.7288 195.271>
VStem: 46.8867 175.227<595.58 717.97> 60 149<0 501.011>
LayerCount: 2
Fore
SplineSet
60 0 m 1xe8
 60 501.010742188 l 1
 209 501.010742188 l 1
 209 0 l 1
 60 0 l 1xe8
46.88671875 656.775390625 m 0xf0
 46.88671875 710.223285394 81.421255187 745 134.499023438 745 c 0
 187.577770583 745 222.11328125 710.223285394 222.11328125 656.775390625 c 0
 222.11328125 603.326530238 187.577770583 568.55078125 134.499023438 568.55078125 c 0
 81.421255187 568.55078125 46.88671875 603.326530238 46.88671875 656.775390625 c 0xf0
EndSplineSet
EndChar

StartChar: o
Encoding: 111 111 29
Width: 589
Flags: W
HStem: -9.99805 132.462<224.071 364.604> 378.284 132.649<223.023 365.711>
VStem: 37.5 144.849<167.631 336.364> 407.429 144.849<168.805 336.364>
LayerCount: 2
Fore
SplineSet
182.348632812 253.561523438 m 0
 182.348632812 174.948352834 215.754222457 122.463867188 293.888671875 122.463867188 c 0
 373.424132985 122.463867188 407.428710938 174.948352834 407.428710938 253.561523438 c 0
 407.428710938 328.351902872 373.457475108 378.284179688 294 378.284179688 c 0
 215.78756458 378.284179688 182.348632812 328.351902872 182.348632812 253.561523438 c 0
37.5 253.561523438 m 0
 37.5 409.296356709 134.512543579 510.93359375 293.888671875 510.93359375 c 0
 454.508038627 510.93359375 552.27734375 409.296356709 552.27734375 253.561523438 c 0
 552.27734375 94.0826581127 454.508038627 -9.998046875 293.888671875 -9.998046875 c 0
 134.512543579 -9.998046875 37.5 94.0826581127 37.5 253.561523438 c 0
EndSplineSet
EndChar

StartChar: n
Encoding: 110 110 30
Width: 595
Flags: W
HStem: 0 21G<57.5 206.5 389.277 538.277> 389.034 121.899<246.631 362.29> 481.011 20G<57.5 206.5>
VStem: 57.5 149<0 501.011> 389.277 149<0 359.128>
LayerCount: 2
Fore
SplineSet
206.5 284 m 9xd8
 144 293.561523438 l 17
 166.143411203 444 218.650280368 510.93359375 349.5 510.93359375 c 0
 474.166135504 510.93359375 538.27734375 444.084682028 538.27734375 304.561523438 c 2
 538.27734375 0 l 1
 389.27734375 0 l 1
 389.27734375 287.561523438 l 2
 389.27734375 351.841077351 362.362881861 389.034179688 299 389.034179688 c 0
 234.203209251 389.034179688 206.5 346.984115225 206.5 284 c 9xd8
57.5 0 m 1
 57.5 501.010742188 l 1
 206.5 501.010742188 l 1xb8
 206.5 0 l 1
 57.5 0 l 1
EndSplineSet
EndChar

StartChar: m
Encoding: 109 109 31
Width: 882
Flags: W
HStem: 0 21G<57.5 206.5 366.777 515.777 676.055 825.055> 389.034 121.899<238.822 344.808 548.099 654.086> 481.011 20G<57.5 206.5>
VStem: 57.5 149<0 501.011> 366.777 149<0 355.506> 676.055 149<0 366.484>
CounterMasks: 1 1c
LayerCount: 2
Fore
SplineSet
515.77734375 284 m 9xdc
 448.27734375 293.561523438 l 17
 469.747293541 444 520.657238462 510.93359375 647.52734375 510.93359375 c 0
 764.764123609 510.93359375 825.0546875 447.323924219 825.0546875 314.561523438 c 2
 825.0546875 0 l 1
 676.0546875 0 l 1
 676.0546875 297.561523438 l 2
 676.0546875 355.506409837 652.866861328 389.034179688 598.27734375 389.034179688 c 0
 540.48561146 389.034179688 515.77734375 346.984115224 515.77734375 284 c 9xdc
206.5 284 m 9
 139 293.561523438 l 17
 160.469949791 444 211.379894712 510.93359375 338.25 510.93359375 c 0
 455.48677986 510.93359375 515.77734375 447.323924219 515.77734375 314.561523438 c 2
 515.77734375 0 l 1
 366.77734375 0 l 1
 366.77734375 297.561523438 l 2
 366.77734375 355.506409837 343.589517578 389.034179688 289 389.034179688 c 0
 231.20826771 389.034179688 206.5 346.984115225 206.5 284 c 9
57.5 0 m 1
 57.5 501.010742188 l 1
 206.5 501.010742188 l 1xbc
 206.5 0 l 1
 57.5 0 l 1
EndSplineSet
EndChar

StartChar: p
Encoding: 112 112 32
Width: 602
Flags: W
HStem: -9.99805 127.712<243.243 379.207> 384.034 126.899<249.713 380.395> 481.011 20G<57.5 206.5>
VStem: 57.5 149<-180 501.011> 123.651 82.8486<66.4394 183.562> 148.651 57.8486<283.562 425.747> 421.58 144.849<162.844 341.413>
LayerCount: 2
Fore
SplineSet
57.5 -180 m 1xb2
 57.5 501.010742188 l 1
 206.5 501.010742188 l 1
 206.5 -180 l 1
 57.5 -180 l 1xb2
206.5 213.561523438 m 1
 206.5 166.865110578 237.659383489 117.713867188 310.540039062 117.713867188 c 0
 388.324235558 117.713867188 421.580078125 172.099998629 421.580078125 253.561523438 c 0
 421.580078125 331.799910593 388.357577681 384.034179688 310.651367188 384.034179688 c 0
 237.692725612 384.034179688 206.5 343.810305091 206.5 283.561523438 c 1xd2
 148.651367188 283.561523438 l 1xc6
 148.651367188 425.746590474 224.965663421 510.93359375 342.5 510.93359375 c 0
 484.740588621 510.93359375 566.428710938 409.296356709 566.428710938 253.561523438 c 0
 566.428710938 94.0826581127 480.956780902 -9.998046875 340.540039062 -9.998046875 c 0
 205.717870276 -9.998046875 123.651367188 66.4393843718 123.651367188 183.561523438 c 1xca
 206.5 213.561523438 l 1
EndSplineSet
EndChar

StartChar: j
Encoding: 106 106 33
Width: 269
Flags: W
HStem: -190 129.25<-85.5855 43.4795> 481.011 20G<60 209> 568.551 176.449<73.7288 195.271>
VStem: 46.8867 175.227<595.58 717.97> 60 149<-40.7269 501.011>
LayerCount: 2
Fore
SplineSet
60 22.5 m 2xe8
 60 501.010742188 l 1
 209 501.010742188 l 1
 209 13.5 l 2
 209 -108.985781991 153.456896552 -190 19.5 -190 c 0
 -49.9584692978 -190 -98 -173.5 -98 -173.5 c 1
 -84 -49.5 l 1
 -84 -49.5 -55.5588684082 -60.75 -15.75 -60.75 c 0
 37.5819946288 -60.75 60 -35.6746987952 60 22.5 c 2xe8
46.88671875 656.775390625 m 0xf0
 46.88671875 710.223285394 81.421255187 745 134.499023438 745 c 0
 187.577770583 745 222.11328125 710.223285394 222.11328125 656.775390625 c 0
 222.11328125 603.326530238 187.577770583 568.55078125 134.499023438 568.55078125 c 0
 81.421255187 568.55078125 46.88671875 603.326530238 46.88671875 656.775390625 c 0xf0
EndSplineSet
EndChar

StartChar: k
Encoding: 107 107 34
Width: 555
Flags: W
HStem: 0 21G<57.5 206.5 342.051 542.5> 213.5 85<109 195> 481.011 20G<338.522 532.5> 731.002 20G<57.5 206.5>
VStem: 57.5 149<0 213.5 298.5 751.002> 109 97.5<213.5 298.5>
LayerCount: 2
Fore
SplineSet
195 298.5 m 1xf4
 195 213.5 l 1
 109 213.5 l 1
 109 298.5 l 1
 195 298.5 l 1xf4
357.25 0 m 1
 195 213.5 l 1
 195 298.5 l 1
 354.25 501.010742188 l 1
 532.5 501.010742188 l 1
 330 270.25 l 1
 542.5 0 l 1
 357.25 0 l 1
57.5 0 m 1xf8
 57.5 751.001953125 l 1
 206.5 751.001953125 l 1
 206.5 0 l 1
 57.5 0 l 1xf8
EndSplineSet
EndChar

StartChar: l
Encoding: 108 108 35
Width: 371
Flags: W
HStem: -10.0088 130.25<220.816 327.527> 731.002 20G<60 209>
VStem: 60 149<132.99 751.002>
LayerCount: 2
Fore
SplineSet
209 191.991210938 m 2
 209 141.85265672 227.052783203 120.241210938 270 120.241210938 c 0
 302.80950693 120.241210938 326.25 130.491210938 326.25 130.491210938 c 1
 340.25 5.2412109375 l 1
 340.25 5.2412109375 298.852510779 -10.0087890625 239 -10.0087890625 c 0
 112.465517241 -10.0087890625 60 58.0670403213 60 160.991210938 c 2
 60 751.001953125 l 1
 209 751.001953125 l 1
 209 191.991210938 l 2
EndSplineSet
EndChar

StartChar: h
Encoding: 104 104 36
Width: 595
Flags: W
HStem: 0 21G<57.5 206.5 389.277 538.277> 389.034 121.899<246.631 362.29> 731.002 20G<57.5 206.5>
VStem: 57.5 149<0 751.002> 389.277 149<0 359.128>
LayerCount: 2
Fore
SplineSet
57.5 0 m 1
 57.5 751.001953125 l 1
 206.5 751.001953125 l 1
 206.5 0 l 1
 57.5 0 l 1
206.5 284 m 9
 144 293.561523438 l 17
 166.143411203 444 218.650280368 510.93359375 349.5 510.93359375 c 0
 474.166135504 510.93359375 538.27734375 444.084682028 538.27734375 304.561523438 c 2
 538.27734375 0 l 1
 389.27734375 0 l 1
 389.27734375 287.561523438 l 2
 389.27734375 351.841077351 362.362881861 389.034179688 299 389.034179688 c 0
 234.203209251 389.034179688 206.5 346.984115225 206.5 284 c 9
EndSplineSet
EndChar

StartChar: q
Encoding: 113 113 37
Width: 602
Flags: W
HStem: -9.99805 127.712<228.262 369.347> 384.034 126.899<230.161 359.004> 481.011 20G<400.5 549.5>
VStem: 40.5713 144.849<164.061 341.413> 400.5 149<-180 501.011> 400.5 67.8486<66.4394 183.562 283.562 425.747>
LayerCount: 2
Fore
SplineSet
549.5 -180 m 1xb8
 400.5 -180 l 1
 400.5 501.010742188 l 1
 549.5 501.010742188 l 1
 549.5 -180 l 1xb8
400.5 205.561523438 m 1
 468.348632812 183.561523438 l 1xd4
 468.348632812 66.4393843717 391.957841304 -9.998046875 266.459960938 -9.998046875 c 0
 126.043219098 -9.998046875 40.5712890625 94.0826581125 40.5712890625 253.561523438 c 0
 40.5712890625 409.296356709 122.259411379 510.93359375 264.5 510.93359375 c 0
 385.065937444 510.93359375 463.348632812 425.746590474 463.348632812 283.561523438 c 1
 400.5 275.561523438 l 1
 400.5 340.607533225 370.056009774 384.034179688 298.848632812 384.034179688 c 0xd8
 219.391157705 384.034179688 185.419921875 331.799910592 185.419921875 253.561523438 c 0
 185.419921875 172.099998629 219.424499828 117.713867188 298.959960938 117.713867188 c 0
 370.089351896 117.713867188 400.5 162.762663398 400.5 205.561523438 c 1
EndSplineSet
EndChar

StartChar: g
Encoding: 103 103 38
Width: 602
Flags: W
HStem: -190 120<153.138 364.805> 20.002 118.212<226.874 365.818> 389.784 121.149<224.974 361.284> 481.011 20G<400.5 549.5>
VStem: 40.5713 144.849<180.041 347.413> 400.5 149<-33.3785 39 223.562 501.011> 400.5 67.8486<100.388 223.562 293.562 429.493>
LayerCount: 2
Fore
SplineSet
400.5 39 m 2xdc
 400.5 501.010742188 l 1
 549.5 501.010742188 l 1
 549.5 31 l 2
 549.5 -102.018957346 474.905172415 -190 295 -190 c 0
 162.289988448 -190 70.5 -144.5 70.5 -144.5 c 1
 102 -26 l 1
 102 -26 174.092538687 -70 275 -70 c 0
 363.358618164 -70 400.5 -37.1686746989 400.5 39 c 2xdc
400.5 235.561523438 m 1
 468.348632812 223.561523438 l 1xea
 468.348632812 100.388423477 394.054511652 20.001953125 266.459960938 20.001953125 c 0
 123.427418673 20.001953125 40.5712890625 115.39477208 40.5712890625 261.561523438 c 0
 40.5712890625 412.455587994 119.642550019 510.93359375 264.5 510.93359375 c 0
 387.164049459 510.93359375 463.348632812 429.493180948 463.348632812 293.561523438 c 1
 400.5 285.561523438 l 1
 400.5 348.059005779 366.705207981 389.784179688 294.848632812 389.784179688 c 0xec
 218.193181089 389.784179688 185.419921875 338.750950042 185.419921875 262.311523438 c 0
 185.419921875 187.89592745 219.424499828 138.213867188 298.959960938 138.213867188 c 0
 370.089351897 138.213867188 400.5 188.134319425 400.5 235.561523438 c 1
EndSplineSet
Substitution2: "'ss14' Style Set 14 lookup 19-1" g.ss14
EndChar

StartChar: f
Encoding: 102 102 39
Width: 398
Flags: W
HStem: 0 21G<100 249> 381.75 119.261<16.5 379.5> 639.011 122<266.97 404.845>
VStem: 100 149<0 620.907>
LayerCount: 2
Fore
SplineSet
16.5 501.010742188 m 1
 379.5 501.010742188 l 1
 379.5 381.75 l 1
 16.5 381.75 l 1
 16.5 501.010742188 l 1
249 557.010742188 m 2
 249 0 l 1
 100 0 l 1
 100 570.010742188 l 2
 100 684.97265625 156.27569797 761.010742188 292 761.010742188 c 0
 365.891977163 761.010742188 417 745.010742188 417 745.010742188 c 1
 403 628.010742188 l 1
 403 628.010742188 371.745727539 639.010742188 328 639.010742188 c 0
 272.380146748 639.010742188 249 614.311576948 249 557.010742188 c 2
EndSplineSet
EndChar

StartChar: c
Encoding: 99 99 40
Width: 492
Flags: W
HStem: -9.99805 124.462<239.177 414.825> 384.284 126.649<237.514 395.196>
VStem: 37.5 151.099<167.458 336.015>
LayerCount: 2
Fore
SplineSet
37.5 253.561523438 m 0
 37.5 409.296356709 125.511229272 510.93359375 291.138671875 510.93359375 c 0
 416.603919937 510.93359375 468.181640625 451.704101562 468.181640625 451.704101562 c 1
 420.10546875 343.201171875 l 1
 420.10546875 343.201171875 384.811356739 384.284179688 313.25 384.284179688 c 0
 225.930988582 384.284179688 188.598632812 331.949823971 188.598632812 253.561523438 c 0
 188.598632812 170.151124699 227.694611384 114.463867188 319.138671875 114.463867188 c 0
 391.135903396 114.463867188 429.268554688 144.595703125 429.268554688 144.595703125 c 1
 462.077148438 28.595703125 l 1
 462.077148438 28.595703125 402.180581031 -9.998046875 298.138671875 -9.998046875 c 0
 128.158846024 -9.998046875 37.5 94.0826581131 37.5 253.561523438 c 0
EndSplineSet
Substitution2: "'ss12' Style Set 12 lookup 13-1" c.ss12
EndChar

StartChar: t
Encoding: 116 116 41
Width: 412
Flags: W
HStem: -10 124.25<260.156 368.946> 382 119.011<16.5 379.5>
VStem: 100 149<126.062 651.511>
LayerCount: 2
Fore
SplineSet
16.5 501.010742188 m 1
 379.5 501.010742188 l 1
 379.5 382 l 1
 16.5 382 l 1
 16.5 501.010742188 l 1
249 178.5 m 2
 249 133.602699593 267.053024704 114.25 310 114.25 c 0
 343.392572021 114.25 367.25 125.25 367.25 125.25 c 1
 380.75 5.5 l 1
 380.75 5.5 340.374661959 -10 282 -10 c 0
 133.879431392 -10 100 59.071245603 100 163.5 c 2
 100 651.510742188 l 1
 249 670.260742188 l 1
 249 178.5 l 2
EndSplineSet
Substitution2: "'ss11' Style Set 11 lookup 12-1" t.ss11
EndChar

StartChar: r
Encoding: 114 114 42
Width: 420
Flags: W
HStem: 0 21G<57.5 206.5> 381.284 129.649<236.338 391.935> 481.011 20G<57.5 206.5>
VStem: 57.5 149<0 501.011>
LayerCount: 2
Fore
SplineSet
57.5 0 m 1xb0
 57.5 501.010742188 l 1
 206.5 501.010742188 l 1
 206.5 0 l 1
 57.5 0 l 1xb0
327 510.93359375 m 0xd0
 394.714559177 510.93359375 414 484.93359375 414 484.93359375 c 1
 388 359.93359375 l 1
 388 359.93359375 355.349250518 381.284179688 305.5 381.284179688 c 0
 243.290735123 381.284179688 206.5 348.351993672 206.5 284 c 1
 144 293.561523438 l 1
 163.622288602 444 210.151024888 510.93359375 327 510.93359375 c 0xd0
EndSplineSet
EndChar

StartChar: e
Encoding: 101 101 43
Width: 551
Flags: W
HStem: -9.99805 124.712<237.336 448.883> 205 97.25<136.25 374.75> 393.034 117.899<219.608 343.249>
VStem: 136.25 46.8486<205 302.25>
LayerCount: 2
Fore
SplineSet
37.5 253.561523438 m 0
 37.5 409.296356709 132.242258948 510.93359375 287.888671875 510.93359375 c 0
 467.628215171 510.93359375 523.965820312 373.273945545 523.965820312 274.7109375 c 0
 523.965820312 231.674278598 519.5 205 519.5 205 c 1
 136.25 205 l 1
 136.25 302.25 l 1
 374.75 302.25 l 1
 374.75 302.25 374.362650534 308.45744375 372.245993225 317.999999663 c 0
 365.862385963 348.924170773 344.900856875 393.034179688 280.5 393.034179688 c 0
 212.269772884 393.034179688 183.098632812 339.698957764 183.098632812 259.811523438 c 0
 183.098632812 164.996117575 223.314119225 114.713867188 325.75 114.713867188 c 0
 413.030830889 114.713867188 462.768554688 142.845703125 462.768554688 142.845703125 c 1
 486.827148438 17.845703125 l 1
 486.827148438 17.845703125 427.295941065 -9.998046875 323.888671875 -9.998046875 c 0
 126.037043791 -9.998046875 37.5 94.0826581131 37.5 253.561523438 c 0
EndSplineSet
Substitution2: "'ss03' Style Set 3 lookup 4-1" e.ss03
EndChar

StartChar: d
Encoding: 100 100 44
Width: 602
Flags: W
HStem: -9.99805 126.899<228.856 355.828> 0 21G<400.5 549.5> 383.222 127.712<230.018 363.851> 731.002 20G<400.5 549.5>
VStem: 40.5713 144.849<159.522 338.092> 400.5 149<217.374 751.002> 400.5 57.8486<75.1885 217.374 317.374 434.496>
LayerCount: 2
Fore
SplineSet
549.5 0 m 1x7c
 400.5 0 l 1x7a
 400.5 751.001953125 l 1
 549.5 751.001953125 l 1
 549.5 0 l 1x7c
400.5 295.374023438 m 1xbc
 400.5 338.173129113 369.715398958 383.221679688 297.709960938 383.221679688 c 0
 219.050573995 383.221679688 185.419921875 328.835855232 185.419921875 247.374023438 c 0
 185.419921875 169.135859177 219.016344914 116.901367188 297.598632812 116.901367188 c 0
 369.681141389 116.901367188 400.5 160.328245764 400.5 225.374023438 c 1xbc
 458.348632812 217.374023438 l 1xba
 458.348632812 75.1884765625 381.049978097 -9.998046875 262 -9.998046875 c 0
 121.347773632 -9.998046875 40.5712890625 91.6396484374 40.5712890625 247.374023438 c 0
 40.5712890625 406.852539062 125.097019591 510.93359375 263.959960938 510.93359375 c 0
 386.349609375 510.93359375 460.848632812 434.49609375 460.848632812 317.374023438 c 1
 400.5 295.374023438 l 1xbc
EndSplineSet
Substitution2: "'ss05' Style Set 5 lookup 6-1" d.ss05
EndChar

StartChar: b
Encoding: 98 98 45
Width: 602
Flags: W
HStem: -9.99805 126.899<242.874 378.144> 0 21G<57.5 206.5> 383.222 127.712<246.663 376.982> 731.002 20G<57.5 206.5>
VStem: 57.5 149<197.374 751.002> 148.651 57.8486<55.1885 197.374 297.374 424.496> 421.58 144.849<159.522 338.092>
LayerCount: 2
Fore
SplineSet
57.5 0 m 1x7a
 57.5 751.001953125 l 1
 206.5 751.001953125 l 1x7a
 206.5 0 l 1x76
 57.5 0 l 1x7a
206.5 295.374023438 m 1
 143.651367188 297.374023438 l 1
 143.651367188 424.49609375 219.096344279 510.93359375 343.040039062 510.93359375 c 0
 481.902980409 510.93359375 566.428710938 406.852539062 566.428710938 247.374023438 c 0
 566.428710938 91.6396484374 485.652226368 -9.998046875 345 -9.998046875 c 0
 225.950021903 -9.998046875 148.651367188 55.1884765624 148.651367188 197.374023438 c 1xb6
 206.5 225.374023438 l 1
 206.5 160.328245764 237.318858611 116.901367188 309.401367188 116.901367188 c 0xba
 387.983655086 116.901367188 421.580078125 169.135859177 421.580078125 247.374023438 c 0
 421.580078125 328.835855232 387.949426005 383.221679688 309.290039062 383.221679688 c 0
 237.284601042 383.221679688 206.5 338.173129113 206.5 295.374023438 c 1
EndSplineSet
EndChar

StartChar: a
Encoding: 97 97 46
Width: 566
Flags: W
HStem: -9.99805 111.212<188.107 306.101 417.967 545.73> 217.284 92.6494<201.652 349.777> 390.011 121<139.512 305.068>
VStem: 31.25 146.599<112.225 196.494> 333.929 148<116.296 217.284 289.011 361.476> 333.929 48.5986<54.3948 153.062> 333.929 15.8486<217.284 309.934>
LayerCount: 2
Back
SplineSet
347.928710938 177.561523438 m 1x7c
 397.77734375 180.561523438 l 1x7a
 397.77734375 65.2546726396 333.443566636 -9.998046875 197.888671875 -9.998046875 c 0
 93.5258452633 -9.998046875 30 50 30 141 c 0
 30 286.71747631 169.159368499 309.798279039 363.928710938 309.93359375 c 1
 363.77734375 224.284179688 l 1x79
 204.9215174 224.170106541 154.848632812 210.544945242 154.848632812 148.561523438 c 0
 154.848632812 111.324445486 179.419144912 86.4638671875 236.888671875 86.4638671875 c 0
 303.711369303 86.4638671875 347.928710938 123.027306191 347.928710938 177.561523438 c 1x7c
347.928710938 299.010742188 m 2xbc
 347.928710938 377.97408765 315.670027449 412.010742188 238.928710938 412.010742188 c 0
 160.769677734 412.010742188 104.928710938 368.010742188 104.928710938 368.010742188 c 5
 69.9287109375 467.010742188 l 5
 69.9287109375 467.010742188 149.657226562 511.010742188 264.928710938 511.010742188 c 0
 407.721987032 511.010742188 466.928710938 427.01055301 466.928710938 300.010742188 c 2
 466.928710938 118 l 2
 466.928710938 93.251950046 475.36431245 84 497.928710938 84 c 0
 515.694039812 84 526.928710938 91 526.928710938 91 c 1
 535.928710938 13 l 1
 535.928710938 13 510.8653569 -9.998046875 457.928710938 -9.998046875 c 0
 384.082557091 -9.998046875 347.928710938 33 347.928710938 125 c 2
 347.928710938 299.010742188 l 2xbc
EndSplineSet
Fore
SplineSet
333.928710938 177.561523438 m 1xf8
 382.52734375 153.061523438 l 1xf4
 382.52734375 54.394815099 324.710989431 -9.998046875 202.888671875 -9.998046875 c 0
 96.194773158 -9.998046875 31.25 50 31.25 141 c 0
 31.25 286.71747631 166.663920996 309.798279039 349.928710938 309.93359375 c 1
 349.77734375 217.284179688 l 1xf2
 224.533643842 217.192326825 177.848632812 206.221207779 177.848632812 156.311523438 c 0
 177.848632812 123.272020104 197.552364908 101.213867188 243.638671875 101.213867188 c 0
 297.974243188 101.213867188 333.928710938 131.857167875 333.928710938 177.561523438 c 1xf8
333.928710938 289.010742188 m 2xf8
 333.928710938 359.588599636 304.851503115 390.010742188 235.678710938 390.010742188 c 0
 163.060803222 390.010742188 111.178710938 353.260742188 111.178710938 353.260742188 c 1
 71.1787109375 467.010742188 l 1
 71.1787109375 467.010742188 148.760689603 511.010742188 260.928710938 511.010742188 c 0
 417.153037753 511.010742188 481.928710938 427.01055301 481.928710938 300.010742188 c 2
 481.928710938 142.5 l 2
 481.928710938 116.296182402 490.500370539 106.5 513.428710938 106.5 c 0
 532.419234907 106.5 544.428710938 113.75 544.428710938 113.75 c 1
 553.428710938 12.75 l 1
 553.428710938 12.75 523.545481124 -9.998046875 460.428710938 -9.998046875 c 0
 375.505634015 -9.998046875 333.928710938 33 333.928710938 125 c 2
 333.928710938 289.010742188 l 2xf8
EndSplineSet
Substitution2: "'ss15' Style Set 15 lookup 20-1" a.ss15
Substitution2: "'ss02' Style Set 2 lookup 3-1" a.ss02
EndChar

StartChar: plus
Encoding: 43 43 47
Width: 450
Flags: W
HStem: 298.75 118.5<30 420>
VStem: 165.75 118.5<163 553>
LayerCount: 2
Fore
SplineSet
284.25 553 m 1
 284.25 163 l 1
 165.75 163 l 1
 165.75 553 l 1
 284.25 553 l 1
420 298.75 m 1
 30 298.75 l 1
 30 417.25 l 1
 420 417.25 l 1
 420 298.75 l 1
EndSplineSet
EndChar

StartChar: s
Encoding: 115 115 48
Width: 476
Flags: W
HStem: -9.99805 116.979<95.4959 284.647> 393.404 117.529<198.523 381.584>
VStem: 43.9541 147.558<322.024 384.166> 292.771 146.419<117.786 175.234>
LayerCount: 2
Fore
SplineSet
209.596679688 195.318359375 m 0
 79.6118081681 225.266399546 43.9541015625 274.807845261 43.9541015625 353.5 c 0
 43.9541015625 451.570370107 125.046394986 510.93359375 258.267578125 510.93359375 c 0
 372.520493982 510.93359375 428.084960938 473.225585938 428.084960938 473.225585938 c 1
 394.044921875 366.444335938 l 1
 394.044921875 366.444335938 343.295832388 393.404296875 268.493164062 393.404296875 c 0
 215.392375913 393.404296875 191.51171875 378.329011685 191.51171875 354.018554688 c 0
 191.51171875 332.284616769 206.88017549 319.135045243 258.537109375 306.586914062 c 0
 397.116001896 272.703059782 439.189453125 227.225753503 439.189453125 144.90234375 c 0
 439.189453125 49.4390036595 365.612025093 -9.998046875 227.856445312 -9.998046875 c 0
 109.513835865 -9.998046875 34.5 26.5625 34.5 26.5625 c 1
 65.314453125 141.361328125 l 1
 65.314453125 141.361328125 130.87037667 106.981445312 211.243164062 106.981445312 c 0
 266.475154574 106.981445312 292.770507812 120.709293563 292.770507812 147.336914062 c 0
 292.770507812 169.330086926 278.261002403 179.58436591 209.596679688 195.318359375 c 0
EndSplineSet
EndChar

StartChar: y
Encoding: 121 121 49
Width: 539
Flags: W
HStem: 481.011 20G<7.5 172.711 367.115 531.5>
LayerCount: 2
Fore
SplineSet
195.25 40.5 m 1
 7.5 501.010742188 l 1
 165.25 501.010742188 l 1
 275.606445312 205.194335938 l 1
 373.75 501.010742188 l 1
 531.5 501.010742188 l 1
 271 -179.994140625 l 1
 104.25 -179.994140625 l 1
 195.25 40.5 l 1
EndSplineSet
Substitution2: "'ss04' Style Set 4 lookup 5-1" y.ss04
EndChar

StartChar: u
Encoding: 117 117 50
Width: 595
Flags: W
HStem: -9.92285 121.899<233.487 349.146> 0 21G<389.277 538.277> 481.011 20G<57.5 206.5 389.277 538.277>
VStem: 57.5 149<141.883 501.011> 389.277 149<207.449 501.011>
LayerCount: 2
Fore
SplineSet
389.27734375 217.010742188 m 9xb8
 451.77734375 207.44921875 l 17
 429.633932548 57.0107421877 377.127063383 -9.9228515625 246.27734375 -9.9228515625 c 0
 121.611208246 -9.9228515625 57.5 56.9260601597 57.5 196.44921875 c 2
 57.5 501.010742188 l 1
 206.5 501.010742188 l 1
 206.5 213.44921875 l 2
 206.5 149.169664837 233.414461889 111.9765625 296.77734375 111.9765625 c 0
 361.574134499 111.9765625 389.27734375 154.026626963 389.27734375 217.010742188 c 9xb8
538.27734375 501.010742188 m 1
 538.27734375 0 l 1
 389.27734375 0 l 1x78
 389.27734375 501.010742188 l 1
 538.27734375 501.010742188 l 1
EndSplineSet
Substitution2: "'ss05' Style Set 5 lookup 6-1" u.ss05
EndChar

StartChar: backslash
Encoding: 92 92 51
Width: 434
Flags: W
LayerCount: 2
Fore
SplineSet
288.75 -171.469726562 m 1
 13.75 761.403320312 l 1
 145.25 761.403320312 l 1
 420.25 -171.469726562 l 1
 288.75 -171.469726562 l 1
EndSplineSet
EndChar

StartChar: equal
Encoding: 61 61 52
Width: 450
Flags: W
HStem: 218.75 108.5<30 420> 388.75 108.5<30 420>
LayerCount: 2
Back
SplineSet
420 285 m 5xea
 30 285 l 5
 30 431 l 5
 420 431 l 5
 420 285 l 5xea
EndSplineSet
Fore
SplineSet
420 218.75 m 1
 30 218.75 l 1
 30 327.25 l 1
 420 327.25 l 1
 420 218.75 l 1
420 388.75 m 1
 30 388.75 l 1
 30 497.25 l 1
 420 497.25 l 1
 420 388.75 l 1
EndSplineSet
EndChar

StartChar: v
Encoding: 118 118 53
Width: 539
Flags: W
HStem: 0 21G<175.514 373.087> 481.011 20G<7.5 171.307 368.153 531.5>
LayerCount: 2
Fore
SplineSet
182.5 0 m 1
 7.5 501.010742188 l 1
 165.25 501.010742188 l 1
 273.606445312 143.194335938 l 1
 373.75 501.010742188 l 1
 531.5 501.010742188 l 1
 366.5 0 l 1
 182.5 0 l 1
EndSplineSet
EndChar

StartChar: w
Encoding: 119 119 54
Width: 735
Flags: W
HStem: 0 21G<120.79 305.438 428.635 613.25> 481.011 20G<7.5 160.352 574.648 727.5>
LayerCount: 2
Fore
SplineSet
125.5 0 m 1
 7.5 501.010742188 l 1
 156.25 501.010742188 l 1
 224.106445312 170.194335938 l 1
 291.5 451.010742188 l 1
 443.5 451.010742188 l 1
 510.893554688 170.194335938 l 1
 578.75 501.010742188 l 1
 727.5 501.010742188 l 1
 608.5 0 l 1
 433.5 0 l 1
 367.5 271.341796875 l 1
 300.5 0 l 1
 125.5 0 l 1
EndSplineSet
EndChar

StartChar: x
Encoding: 120 120 55
Width: 528
Flags: W
HStem: 0 21G<7.5 190.718 337.282 520.5> 481.011 20G<17.5 192.94 335.06 510.5>
VStem: 233.5 61<201 291>
LayerCount: 2
Fore
SplineSet
179.25 0 m 1
 7.5 0 l 1
 172.5 259.5 l 1
 17.5 501.010742188 l 1
 182.25 501.010742188 l 1
 294.5 291 l 1
 294.5 201 l 1
 179.25 0 l 1
348.75 0 m 1
 233.5 201 l 1
 233.5 291 l 1
 345.75 501.010742188 l 1
 510.5 501.010742188 l 1
 355.5 259.5 l 1
 520.5 0 l 1
 348.75 0 l 1
EndSplineSet
EndChar

StartChar: z
Encoding: 122 122 56
Width: 478
Flags: W
HStem: 0 127<228.25 445.5> 374.011 127<42.5 247.25>
LayerCount: 2
Fore
SplineSet
445.5 0 m 1
 32.5 0 l 1
 32.5 96 l 1
 247.25 374.010742188 l 1
 42.5 374.010742188 l 1
 42.5 501.010742188 l 1
 435.5 501.010742188 l 1
 435.5 405.010742188 l 1
 228.25 127 l 1
 445.5 127 l 1
 445.5 0 l 1
EndSplineSet
EndChar

StartChar: period
Encoding: 46 46 57
Width: 245
Flags: W
HStem: -10 176.449<61.8422 183.384>
VStem: 35 175.227<17.0298 139.419>
LayerCount: 2
Fore
SplineSet
35 78.224609375 m 0
 35 131.672113192 69.5349625542 166.44921875 122.612304688 166.44921875 c 0
 175.690634541 166.44921875 210.2265625 131.672113192 210.2265625 78.224609375 c 0
 210.2265625 24.7761813724 175.690634541 -10 122.612304688 -10 c 0
 69.5349625542 -10 35 24.7761813724 35 78.224609375 c 0
EndSplineSet
EndChar

StartChar: two
Encoding: 50 50 58
Width: 608
Flags: W
HStem: 0 136<214.813 576.049> 598.599 140.394<174.945 377.83>
VStem: 412.176 156.086<447.674 565.587>
LayerCount: 2
Fore
SplineSet
412.17578125 504.758056641 m 0
 412.17578125 562.688173821 379.422595043 598.598632812 283.328125 598.598632812 c 0
 184.387616859 598.598632812 113.538085938 544.754882812 113.538085938 544.754882812 c 1
 64.322265625 675.796875 l 1
 64.322265625 675.796875 154.884046662 738.9921875 286.69140625 738.9921875 c 0
 462.268874112 738.9921875 568.26171875 662.295898438 568.26171875 510.93359375 c 0
 568.26171875 375.549123971 492.891566275 319.307146538 349.374023438 248.0234375 c 0
 218.774373239 182.516625959 215.345826344 143.25 214.813476562 136 c 1
 576.048828125 136 l 1
 576.048828125 0 l 1
 48 0 l 1
 48 54 l 2
 48 210.796170566 144.677045356 298.814262726 314.821289062 389.876953125 c 0
 385.304426837 427.589445968 412.17578125 463.317782905 412.17578125 504.758056641 c 0
EndSplineSet
Substitution2: "'onum' Oldstyle Figures lookup 18-1" two.osf
Substitution2: "'tnum' Tabular Numbers lookup 17-1" two.tf
Substitution2: "'numr' Numerators lookup 0 subtable" two.numr
Substitution2: "'dnom' Denominators lookup 0 subtable" two.dnom
Substitution2: "'sups' Superscript lookup 0 subtable" two.superior
Substitution2: "'sinf' Scientific Inferiors lookup 0 subtable" two.inferior
Substitution2: "'sups' Superscript lookup 0 subtable" two.superior
EndChar

StartChar: three
Encoding: 51 51 59
Width: 579
Flags: W
HStem: -9.99805 135.688<120.372 341.755> 310.5 124.481<164.139 338.894> 598.849 140.144<124.058 334.308>
VStem: 364.484 162.086<460.307 570.048> 379.827 162.584<162.983 276.333>
LayerCount: 2
Fore
SplineSet
244.888671875 434.981445312 m 2xe8
 335.086594384 434.981445313 364.484375 462.268696306 364.484375 516.55859375 c 0
 364.484375 563.337097462 335.93180859 598.848632812 243.13671875 598.848632812 c 0
 139.922026019 598.848632812 77.0966796875 554.754882812 77.0966796875 554.754882812 c 1
 36.880859375 686.296875 l 1
 36.880859375 686.296875 115.580759231 738.9921875 252 738.9921875 c 0
 421.994221434 738.9921875 526.5703125 667.857421875 526.5703125 532.868164062 c 0xf0
 526.5703125 412 416.913085938 375.697265625 416.913085938 375.697265625 c 1
 416.913085938 375.697265625 542.411132812 341 542.411132812 205.670898438 c 0
 542.411132812 51.681640625 425.518189506 -9.998046875 250 -9.998046875 c 0
 102.934570312 -9.998046875 15.451171875 40.9091796875 15.451171875 40.9091796875 c 1
 59.2744140625 177.262695312 l 1
 59.2744140625 177.262695312 129.050789694 125.689453125 238.5 125.689453125 c 0
 336.264455629 125.689453125 379.827148438 158.890616938 379.827148438 218.75 c 0
 379.827148438 280.285231396 333.42832127 309.994376892 244.888671875 310.237304688 c 2
 164 310.5 l 1
 164.138671875 434.981445312 l 1
 244.888671875 434.981445312 l 2xe8
EndSplineSet
Substitution2: "'onum' Oldstyle Figures lookup 18-1" three.osf
Substitution2: "'tnum' Tabular Numbers lookup 17-1" three.tf
Substitution2: "'numr' Numerators lookup 0 subtable" three.numr
Substitution2: "'dnom' Denominators lookup 0 subtable" three.dnom
Substitution2: "'sups' Superscript lookup 0 subtable" three.superior
Substitution2: "'sinf' Scientific Inferiors lookup 0 subtable" three.inferior
Substitution2: "'sups' Superscript lookup 0 subtable" three.superior
EndChar

StartChar: comma
Encoding: 44 44 61
Width: 252
Flags: W
HStem: -116 282.449
VStem: 35 182.227<19.2996 134.691>
LayerCount: 2
Fore
SplineSet
35 78.224609375 m 0
 35 131.672113192 69.5349625542 166.44921875 122.612304688 166.44921875 c 0
 179.931363371 166.44921875 217.2265625 130.345290094 217.2265625 65 c 0
 217.2265625 -36.359077869 123 -116 123 -116 c 1
 54.5 -73 l 1
 54.5 -73 95.2417082836 -41.2622312246 113.448500267 -9.44895542604 c 1
 65.5266075242 -4.93268713655 35 28.592896113 35 78.224609375 c 0
EndSplineSet
EndChar

StartChar: zero
Encoding: 48 48 63
Width: 683
Flags: W
HStem: -9.99805 139.462<269.018 414.759> 599.659 139.462<269.018 414.759>
VStem: 37.5 152.849<225.736 503.387> 493.429 152.849<225.736 503.387>
LayerCount: 2
Fore
SplineSet
190.348632812 364.561523438 m 0
 190.348632812 223.584387093 235.73398862 129.463867188 341.888671875 129.463867188 c 0
 448.04335513 129.463867188 493.428710938 223.584387093 493.428710938 364.561523438 c 0
 493.428710938 505.538659779 448.04335513 599.659179688 341.888671875 599.659179688 c 0
 235.73398862 599.659179688 190.348632812 505.538659779 190.348632812 364.561523438 c 0
37.5 364.561523438 m 0
 37.5 591.206054688 142.756283398 739.12109375 341.888671875 739.12109375 c 0
 541.021060352 739.12109375 646.27734375 591.206054688 646.27734375 364.561523438 c 0
 646.27734375 137.916992188 541.021060352 -9.998046875 341.888671875 -9.998046875 c 0
 142.756283398 -9.998046875 37.5 137.916992188 37.5 364.561523438 c 0
EndSplineSet
Substitution2: "'onum' Oldstyle Figures lookup 18-1" zero.osf
Substitution2: "'tnum' Tabular Numbers lookup 17-1" zero.tf
Substitution2: "'numr' Numerators lookup 0 subtable" zero.numr
Substitution2: "'dnom' Denominators lookup 0 subtable" zero.dnom
Substitution2: "'sups' Superscript lookup 0 subtable" zero.superior
Substitution2: "'sinf' Scientific Inferiors lookup 0 subtable" zero.inferior
Substitution2: "'sups' Superscript lookup 0 subtable" zero.superior
EndChar

StartChar: one
Encoding: 49 49 64
Width: 415
Flags: W
HStem: 0 21G<198.5 357.5> 711 20G<180.348 357.5>
VStem: 198.5 159<0 572.5>
LayerCount: 2
Fore
SplineSet
357.5 731 m 1
 357.5 0 l 1
 198.5 0 l 1
 198.5 572.5 l 1
 62 496.5 l 1
 12.5 615.5 l 1
 215.5 731 l 1
 357.5 731 l 1
EndSplineSet
Substitution2: "'onum' Oldstyle Figures lookup 18-1" one.osf
Substitution2: "'tnum' Tabular Numbers lookup 17-1" one.tf
Substitution2: "'numr' Numerators lookup 0 subtable" one.numr
Substitution2: "'dnom' Denominators lookup 0 subtable" one.dnom
Substitution2: "'sups' Superscript lookup 0 subtable" one.superior
Substitution2: "'sinf' Scientific Inferiors lookup 0 subtable" one.inferior
Substitution2: "'sups' Superscript lookup 0 subtable" one.superior
EndChar

StartChar: four
Encoding: 52 52 65
Width: 660
Flags: W
HStem: 0 21G<370.25 524> 165.75 128.5<204.5 627.5> 711 20G<357.291 524>
VStem: 370.25 153.75<0 513.5>
LayerCount: 2
Fore
SplineSet
524 731 m 1
 524 0 l 1
 370.25 0 l 1
 370.25 513.5 l 1
 204.5 294.25 l 1
 627.5 294.25 l 1
 627.5 165.75 l 1
 61.5 165.75 l 1
 33.25 277.75 l 1
 372.25 731 l 1
 524 731 l 1
EndSplineSet
Substitution2: "'onum' Oldstyle Figures lookup 18-1" four.osf
Substitution2: "'tnum' Tabular Numbers lookup 17-1" four.tf
Substitution2: "'numr' Numerators lookup 0 subtable" four.numr
Substitution2: "'dnom' Denominators lookup 0 subtable" four.dnom
Substitution2: "'sups' Superscript lookup 0 subtable" four.superior
Substitution2: "'sinf' Scientific Inferiors lookup 0 subtable" four.inferior
Substitution2: "'sups' Superscript lookup 0 subtable" four.superior
EndChar

StartChar: exclam
Encoding: 33 33 66
Width: 274
Flags: W
HStem: -10 176.449<76.229 197.77> 711.008 20G<59 219>
VStem: 49.3867 175.227<17.0298 139.419> 59 160<544.584 731.008> 78 122<225 411.424>
LayerCount: 2
Fore
SplineSet
78 225 m 1xc8
 59 731.0078125 l 1
 219 731.0078125 l 1xd0
 200 225 l 1
 78 225 l 1xc8
49.38671875 78.224609375 m 0xe0
 49.38671875 131.672113192 83.9216813042 166.44921875 136.999023438 166.44921875 c 0
 190.077353291 166.44921875 224.61328125 131.672113192 224.61328125 78.224609375 c 0
 224.61328125 24.7761813724 190.077353291 -10 136.999023438 -10 c 0
 83.9216813042 -10 49.38671875 24.7761813724 49.38671875 78.224609375 c 0xe0
EndSplineSet
EndChar

StartChar: five
Encoding: 53 53 67
Width: 594
Flags: W
HStem: -9.99805 140.143<122.579 350.951> 357.186 124.185<220.832 359> 596.091 134.917<214.305 512.172>
VStem: 400.345 156.982<177.213 318.552>
LayerCount: 2
Fore
SplineSet
267 -9.998046875 m 0
 110.84286541 -9.998046875 17.951171875 40.9091796875 17.951171875 40.9091796875 c 1
 57.7744140625 178.262695312 l 1
 57.7744140625 178.262695312 142.770332227 130.14453125 252 130.14453125 c 0
 359.161615601 130.14453125 400.344726562 174.223004266 400.344726562 245.576171875 c 0
 400.344726562 315.478608188 361.620636804 357.185546875 283.5 357.185546875 c 0
 200.937128292 357.185546875 172.5 306 172.5 306 c 1
 54.447265625 335.728515625 l 1
 87.5 731.0078125 l 1
 512.171875 731.0078125 l 1
 512.171875 596.090820312 l 1
 214.3046875 596.090820312 l 1
 201.470703125 446.322265625 l 1
 201.470703125 446.322265625 231.879061881 481.370117188 329.815429688 481.370117188 c 0
 476.929637107 481.370117188 557.327148438 394.55268989 557.327148438 249.747070312 c 0
 557.327148438 88.753681846 459.542661076 -9.998046875 267 -9.998046875 c 0
EndSplineSet
Substitution2: "'onum' Oldstyle Figures lookup 18-1" five.osf
Substitution2: "'tnum' Tabular Numbers lookup 17-1" five.tf
Substitution2: "'numr' Numerators lookup 0 subtable" five.numr
Substitution2: "'dnom' Denominators lookup 0 subtable" five.dnom
Substitution2: "'sups' Superscript lookup 0 subtable" five.superior
Substitution2: "'sinf' Scientific Inferiors lookup 0 subtable" five.inferior
Substitution2: "'sups' Superscript lookup 0 subtable" five.superior
EndChar

StartChar: six
Encoding: 54 54 68
Width: 640
Flags: W
HStem: -9.99805 130.389<250.18 411.823> 353.391 118.709<249.14 410.265> 604.52 134.473<271.729 482.977>
VStem: 37.5 168.398<191.136 445.19> 455.898 146.767<163.308 308.115>
LayerCount: 2
Back
SplineSet
178.3984375 236.890625 m 0
 178.3984375 160.019065367 219.88147703 103.890625 320.3984375 103.890625 c 0
 421.623435844 103.890625 463.3984375 160.019065367 463.3984375 236.890625 c 0
 463.3984375 314.340166284 421.623435844 370.890625 320.3984375 370.890625 c 0
 219.88147703 370.890625 178.3984375 314.340166284 178.3984375 236.890625 c 0
163.303710938 405.747070312 m 1
 163.303710938 405.747070312 204.094697864 475.599609375 331.263671875 475.599609375 c 0
 505.711185917 475.599609375 585.165039062 379.238029036 585.165039062 239 c 0
 585.165039062 79.095703125 484.937095781 -9.998046875 321.297851562 -9.998046875 c 0
 141.540405276 -9.998046875 35 99.6728515625 35 365.331054688 c 0
 35 605.528320312 149.046377502 738.9921875 354.297851562 738.9921875 c 0
 495.428880973 738.9921875 566.923828125 678.860351562 566.923828125 678.860351562 c 1
 522.619140625 573.388671875 l 5
 522.619140625 573.388671875 463.487673927 622.51953125 354.778320312 622.51953125 c 4
 232.266224145 622.51953125 170.301516454 546.295339891 163.303710938 405.747070312 c 1
EndSplineSet
Fore
SplineSet
205.8984375 236.890625 m 0
 205.8984375 169.555762615 242.269130609 120.390625 330.3984375 120.390625 c 0
 419.235761222 120.390625 455.8984375 169.555762615 455.8984375 236.890625 c 0
 455.8984375 304.225487385 419.235761222 353.390625 330.3984375 353.390625 c 0
 242.269130609 353.390625 205.8984375 304.225487385 205.8984375 236.890625 c 0
185.803710938 417.247070312 m 1
 185.803710938 417.247070312 226.837559239 472.099609375 354.763671875 472.099609375 c 0
 506.512524614 472.099609375 602.665039062 377.163498554 602.665039062 239 c 0
 602.665039062 79.095703125 499.588277851 -9.998046875 331.297851562 -9.998046875 c 0
 146.831390381 -9.998046875 37.5 99.6728515625 37.5 365.331054688 c 0
 37.5 605.528320312 153.332270782 738.9921875 361.797851562 738.9921875 c 0
 509.56640625 738.9921875 584.423828125 678.860351562 584.423828125 678.860351562 c 1
 532.119140625 555.388671875 l 1
 532.119140625 555.388671875 474.92536147 604.51953125 369.778320312 604.51953125 c 0
 252.064984275 604.51953125 192.52741462 538.668491699 185.803710938 417.247070312 c 1
EndSplineSet
Substitution2: "'onum' Oldstyle Figures lookup 18-1" six.osf
Substitution2: "'tnum' Tabular Numbers lookup 17-1" six.tf
Substitution2: "'numr' Numerators lookup 0 subtable" six.numr
Substitution2: "'dnom' Denominators lookup 0 subtable" six.dnom
Substitution2: "'ss07' Style Set 7 lookup 8-1" six.ss07
Substitution2: "'sups' Superscript lookup 0 subtable" six.superior
Substitution2: "'sinf' Scientific Inferiors lookup 0 subtable" six.inferior
Substitution2: "'sups' Superscript lookup 0 subtable" six.superior
EndChar

StartChar: parenright
Encoding: 41 41 69
Width: 402
Flags: W
HStem: -171.47 129.525<32.5 118.928> 629.944 129.525<32.5 118.928>
VStem: 222.948 146.679<99.7954 488.205>
LayerCount: 2
Fore
SplineSet
32.5 -41.9443359375 m 1
 160.13647755 -41.9443359375 222.948242188 51.1332100924 222.948242188 294 c 0
 222.948242188 536.866789907 160.13647755 629.944335938 32.5 629.944335938 c 1
 32.5 759.469726562 l 1
 251.723290934 759.469726562 369.626953125 611.823242188 369.626953125 294 c 0
 369.626953125 -23.8232421876 251.723290934 -171.469726562 32.5 -171.469726562 c 1
 32.5 -41.9443359375 l 1
EndSplineSet
EndChar

StartChar: seven
Encoding: 55 55 70
Width: 604
Flags: W
HStem: 0 21G<164 325.692> 594 137<42.5 382.75>
VStem: 164 160<0 159.809>
LayerCount: 2
Fore
SplineSet
324 0 m 1
 164 0 l 1
 175.129444402 326.953846154 382.75 594 382.75 594 c 1
 42.5 594 l 1
 42.5 731 l 1
 561.5 731 l 1
 561.5 625 l 1
 561.5 625 327.383045032 356 324 0 c 1
EndSplineSet
Substitution2: "'onum' Oldstyle Figures lookup 18-1" seven.osf
Substitution2: "'tnum' Tabular Numbers lookup 17-1" seven.tf
Substitution2: "'numr' Numerators lookup 0 subtable" seven.numr
Substitution2: "'dnom' Denominators lookup 0 subtable" seven.dnom
Substitution2: "'sups' Superscript lookup 0 subtable" seven.superior
Substitution2: "'sinf' Scientific Inferiors lookup 0 subtable" seven.inferior
Substitution2: "'sups' Superscript lookup 0 subtable" seven.superior
EndChar

StartChar: eight
Encoding: 56 56 71
Width: 647
Flags: W
HStem: -9.99805 126.764<231.607 415.393> 320.397 120.664<259.301 390.784> 359.573 55.7568<160.313 489.941> 610.998 127.887<248.534 401.015>
VStem: 37.5 151.768<155.793 278.844> 72.7598 146.688<471.474 582.24> 432.552 146.688<472.247 581.469> 457.732 151.768<155.793 278.844>
LayerCount: 2
Fore
SplineSet
323.5 441.061523438 m 0xd6
 390.783662515 441.061523438 432.551757812 473.83003744 432.551757812 525.869140625 c 0
 432.551757812 579.393567463 392.41856323 610.998046875 323.5 610.998046875 c 0
 257.741612806 610.998046875 219.448242188 579.393567463 219.448242188 525.869140625 c 0
 219.448242188 473.83003744 259.301299919 441.061523438 323.5 441.061523438 c 0xd6
323.5 738.884765625 m 0
 482.902412388 738.884765625 579.240234375 665.090820312 579.240234375 543.655273438 c 0
 579.240234375 424.0703125 489.941108323 359.573242188 323.5 359.573242188 c 0xb6
 160.312803696 359.573242188 72.759765625 424.0703125 72.759765625 543.655273438 c 0
 72.759765625 665.090820312 167.213806674 738.884765625 323.5 738.884765625 c 0
323.5 116.765625 m 0
 410.23689621 116.765625 457.732421875 153.550611167 457.732421875 220.020507812 c 0
 457.732421875 281.409756943 410.255514605 320.397460938 323.5 320.397460938 c 0
 236.744485395 320.397460938 189.267578125 281.409756943 189.267578125 220.020507812 c 0xd9
 189.267578125 153.550611167 236.76310379 116.765625 323.5 116.765625 c 0
323.5 415.330078125 m 0xb9
 507.994855994 415.330078125 609.5 341.658530209 609.5 208.381835938 c 0
 609.5 76.1718749998 496.990463959 -9.998046875 323.5 -9.998046875 c 0
 150.009536042 -9.998046875 37.5 76.171875 37.5 208.381835938 c 0
 37.5 341.658530209 139.005144006 415.330078125 323.5 415.330078125 c 0xb9
EndSplineSet
Substitution2: "'onum' Oldstyle Figures lookup 18-1" eight.osf
Substitution2: "'tnum' Tabular Numbers lookup 17-1" eight.tf
Substitution2: "'numr' Numerators lookup 0 subtable" eight.numr
Substitution2: "'dnom' Denominators lookup 0 subtable" eight.dnom
Substitution2: "'sups' Superscript lookup 0 subtable" eight.superior
Substitution2: "'sinf' Scientific Inferiors lookup 0 subtable" eight.inferior
Substitution2: "'sups' Superscript lookup 0 subtable" eight.superior
EndChar

StartChar: nine
Encoding: 57 57 72
Width: 640
Flags: W
HStem: -9.99805 134.473<152.279 362.224> 253.895 119.459<231.275 393.139> 606.354 132.639<233.136 391.36>
VStem: 37.5 149.517<416.451 561.369> 437.017 165.648<283.804 536.733>
LayerCount: 2
Fore
SplineSet
437.016601562 489.853515625 m 0
 437.016601562 557.18837801 400.645908453 606.353515625 312.516601562 606.353515625 c 0
 223.67927784 606.353515625 187.016601562 557.18837801 187.016601562 489.853515625 c 0
 187.016601562 422.51865324 223.67927784 373.353515625 312.516601562 373.353515625 c 0
 400.645908453 373.353515625 437.016601562 422.51865324 437.016601562 489.853515625 c 0
446.861328125 311.747070312 m 1
 446.861328125 311.747070312 407.64894013 253.89453125 285.401367188 253.89453125 c 0
 133.652514449 253.89453125 37.5 350.053249522 37.5 489.994140625 c 0
 37.5 649.8984375 140.576761212 738.9921875 308.8671875 738.9921875 c 0
 493.333648681 738.9921875 602.665039062 629.321289062 602.665039062 363.663085938 c 0
 602.665039062 123.465820312 486.83276828 -9.998046875 278.3671875 -9.998046875 c 0
 130.598632812 -9.998046875 55.7412109375 50.1337890625 55.7412109375 50.1337890625 c 1
 100.545898438 173.60546875 l 1
 100.545898438 173.60546875 160.381978788 124.474609375 270.38671875 124.474609375 c 0
 383.301294659 124.474609375 440.411726273 190.325648926 446.861328125 311.747070312 c 1
EndSplineSet
Substitution2: "'onum' Oldstyle Figures lookup 18-1" nine.osf
Substitution2: "'tnum' Tabular Numbers lookup 17-1" nine.tf
Substitution2: "'numr' Numerators lookup 0 subtable" nine.numr
Substitution2: "'dnom' Denominators lookup 0 subtable" nine.dnom
Substitution2: "'ss07' Style Set 7 lookup 8-1" nine.ss07
Substitution2: "'sups' Superscript lookup 0 subtable" nine.superior
Substitution2: "'sinf' Scientific Inferiors lookup 0 subtable" nine.inferior
Substitution2: "'sups' Superscript lookup 0 subtable" nine.superior
EndChar

StartChar: question
Encoding: 63 63 73
Width: 562
Flags: W
HStem: -10 176.449<164.229 285.77> 299.594 107.455<204.915 337.734> 601.979 137.014<126.951 331.048>
VStem: 137.387 175.227<17.0298 139.419> 164.923 121.956<225 300.653> 375.596 153.774<441.81 560.6>
LayerCount: 2
Back
SplineSet
152.38671875 63.224609375 m 0xf4
 152.38671875 107.584937143 181.008990842 136.44921875 224.999023438 136.44921875 c 0
 268.990077228 136.44921875 297.61328125 107.584937143 297.61328125 63.224609375 c 0
 297.61328125 18.8635145521 268.990077228 -10 224.999023438 -10 c 0
 181.008990842 -10 152.38671875 18.8635145521 152.38671875 63.224609375 c 0xf4
280.88671875 300.653320312 m 1
 282.37890625 210 l 1
 169.422851562 210 l 1xec
 171.15625 399.46875 l 1
 171.15625 399.46875 208.949224154 395.048828125 256.3984375 395.048828125 c 0
 348.180522211 395.048828125 392.095703125 431.389934102 392.095703125 499.145507812 c 0
 392.095703125 585.201602829 327.571533338 623.228515625 232.89453125 623.228515625 c 0
 138.66274719 623.228515625 76.923828125 573.958007812 76.923828125 573.958007812 c 1
 30.2412109375 685.311523438 l 1
 30.2412109375 685.311523438 107.390463661 738.9921875 239.89453125 738.9921875 c 0
 405.150107971 738.9921875 521.870117188 670 521.870117188 501.010742188 c 0
 521.870117188 365.685958308 421.37343496 300.59375 309 300.59375 c 0
 290.63582236 300.59375 280.88671875 300.653320312 280.88671875 300.653320312 c 1
EndSplineSet
Fore
SplineSet
137.38671875 78.224609375 m 0xf4
 137.38671875 131.672113192 171.921681304 166.44921875 224.999023438 166.44921875 c 0
 278.077353291 166.44921875 312.61328125 131.672113192 312.61328125 78.224609375 c 0
 312.61328125 24.7761813724 278.077353291 -10 224.999023438 -10 c 0
 171.921681304 -10 137.38671875 24.7761813724 137.38671875 78.224609375 c 0xf4
285.38671875 300.653320312 m 1
 286.87890625 225 l 1
 164.922851562 225 l 1xec
 166.65625 411.46875 l 1
 166.65625 411.46875 200.569824369 407.048828125 243.1484375 407.048828125 c 0
 332.732307133 407.048828125 375.595703125 439.549733176 375.595703125 500.145507812 c 0
 375.595703125 570.770415691 319.380174945 601.978515625 236.89453125 601.978515625 c 0
 138.13152199 601.978515625 73.423828125 551.458007812 73.423828125 551.458007812 c 1
 20.2412109375 685.311523438 l 1
 20.2412109375 685.311523438 101.0703125 738.9921875 239.89453125 738.9921875 c 0
 409.545583634 738.9921875 529.370117188 667.831925825 529.370117188 502.010742188 c 0
 529.370117188 365.335526068 428.726895992 299.59375 321.75 299.59375 c 0
 297.996751473 299.59375 285.38671875 300.653320312 285.38671875 300.653320312 c 1
EndSplineSet
EndChar

StartChar: hyphen
Encoding: 45 45 74
Width: 354
Flags: W
HStem: 213.75 131.5<32.5 321.5>
VStem: 32.5 289<213.75 345.25>
LayerCount: 2
Fore
SplineSet
321.5 213.75 m 1
 32.5 213.75 l 1
 32.5 345.25 l 1
 321.5 345.25 l 1
 321.5 213.75 l 1
EndSplineSet
EndChar

StartChar: quotesingle
Encoding: 39 39 75
Width: 266
Flags: W
HStem: 456 275.008<84 186>
VStem: 84 102<456 557.319>
LayerCount: 2
Fore
SplineSet
84 456 m 1
 65 731.0078125 l 1
 205 731.0078125 l 1
 186 456 l 1
 84 456 l 1
EndSplineSet
EndChar

StartChar: parenleft
Encoding: 40 40 77
Width: 402
Flags: W
HStem: -171.47 129.525<283.199 369.627> 629.944 129.525<283.199 369.627>
VStem: 32.5 146.679<99.7954 488.205>
LayerCount: 2
Fore
SplineSet
369.626953125 -41.9443359375 m 1
 369.626953125 -171.469726562 l 1
 150.403662191 -171.469726562 32.5 -23.8232421876 32.5 294 c 0
 32.5 611.823242188 150.403662191 759.469726562 369.626953125 759.469726562 c 1
 369.626953125 629.944335938 l 1
 241.990475575 629.944335938 179.178710938 536.866789907 179.178710938 294 c 0
 179.178710938 51.1332100924 241.990475575 -41.9443359375 369.626953125 -41.9443359375 c 1
EndSplineSet
EndChar

StartChar: asterisk
Encoding: 42 42 78
Width: 400
Flags: W
HStem: 718.992 20G<140.034 260.405>
LayerCount: 2
Fore
SplineSet
260.405273438 738.9921875 m 1
 249.396484375 614.151367188 l 1
 358.440429688 664.049804688 l 1
 395.440429688 556.869140625 l 1
 277.896484375 527.767578125 l 1
 359.405273438 435.006835938 l 1
 260.25390625 366.916992188 l 1
 200.219726562 477.075195312 l 1
 140.185546875 366.916992188 l 1
 41.0341796875 435.006835938 l 1
 122.54296875 527.767578125 l 1
 5 556.869140625 l 1
 42 664.049804688 l 1
 151.04296875 614.151367188 l 1
 140.034179688 738.9921875 l 1
 260.405273438 738.9921875 l 1
EndSplineSet
Substitution2: "'ss13' Style Set 13 lookup 14-1" asterisk.ss13
EndChar

StartChar: less
Encoding: 60 60 79
Width: 450
Flags: W
LayerCount: 2
Fore
SplineSet
420 155 m 1
 30 290 l 1
 30 426 l 1
 420 561 l 1
 420 433.75 l 1
 182.454101562 358 l 1
 420 282.25 l 1
 420 155 l 1
EndSplineSet
EndChar

StartChar: greater
Encoding: 62 62 80
Width: 450
Flags: W
LayerCount: 2
Fore
SplineSet
30 561 m 1
 420 426 l 1
 420 290 l 1
 30 155 l 1
 30 282.25 l 1
 265.045898438 358 l 1
 30 433.75 l 1
 30 561 l 1
EndSplineSet
EndChar

StartChar: slash
Encoding: 47 47 81
Width: 434
Flags: W
LayerCount: 2
Fore
SplineSet
13.75 -171.469726562 m 1
 288.75 761.403320312 l 1
 420.25 761.403320312 l 1
 145.25 -171.469726562 l 1
 13.75 -171.469726562 l 1
EndSplineSet
EndChar

StartChar: bar
Encoding: 124 124 82
Width: 249
Flags: W
VStem: 58.75 131.5<-171.47 759.47>
LayerCount: 2
Fore
SplineSet
58.75 -171.469726562 m 1
 58.75 759.469726562 l 1
 190.25 759.469726562 l 1
 190.25 -171.469726562 l 1
 58.75 -171.469726562 l 1
EndSplineSet
EndChar

StartChar: bracketleft
Encoding: 91 91 83
Width: 375
Flags: W
HStem: -171.47 117<199 340> 642.72 116.75<199 340>
VStem: 60 280<-171.47 -54.4697 642.72 759.47> 60 139<-54.4697 642.72>
LayerCount: 2
Fore
SplineSet
60 759.469726562 m 1xe0
 340 759.469726562 l 1
 340 642.719726562 l 1xe0
 199 642.719726562 l 1
 199 -54.4697265625 l 1xd0
 340 -54.4697265625 l 1
 340 -171.469726562 l 1
 60 -171.469726562 l 1
 60 759.469726562 l 1xe0
EndSplineSet
EndChar

StartChar: bracketright
Encoding: 93 93 84
Width: 375
Flags: W
HStem: -171.47 117<35 176> 642.47 117<35 176>
VStem: 35 280<-171.47 -54.4697 642.47 759.47> 176 139<-54.4697 642.47>
LayerCount: 2
Fore
SplineSet
315 -171.469726562 m 1xe0
 35 -171.469726562 l 1
 35 -54.4697265625 l 1xe0
 176 -54.4697265625 l 1
 176 642.469726562 l 1xd0
 35 642.469726562 l 1
 35 759.469726562 l 1
 315 759.469726562 l 1
 315 -171.469726562 l 1xe0
EndSplineSet
EndChar

StartChar: asciicircum
Encoding: 94 94 85
Width: 449
Flags: W
HStem: 440 291.008
LayerCount: 2
Fore
SplineSet
291.5 731.0078125 m 1
 441.5 440 l 1
 306 440 l 1
 225.393554688 627.563476562 l 1
 144 440 l 1
 7.5 440 l 1
 157.5 731.0078125 l 1
 291.5 731.0078125 l 1
EndSplineSet
EndChar

StartChar: braceleft
Encoding: 123 123 86
Width: 433
Flags: W
HStem: -171.47 114.996<277.719 391.538> 254.032 121<35 117.222> 644.474 114.996<277.626 391.617>
VStem: 125 139<-42.1924 246.06 382.298 630.192>
LayerCount: 2
Fore
SplineSet
203 314.532226562 m 1
 203 314.532226562 264 289.532226562 264 209.532226562 c 2
 264 15.5263671875 l 2
 264 -39.755859375 290.6015625 -56.4736328125 338 -56.4736328125 c 0
 381.443359375 -56.4736328125 391 -51.4736328125 391 -51.4736328125 c 1
 398 -161.469726562 l 1
 398 -161.469726562 361 -171.469726562 301 -171.469726562 c 0
 171.424731183 -171.469726562 125 -111.770800781 125 -10.4697265625 c 2
 125 192.032226562 l 2
 125 239.360351562 106.501953125 254.032226562 70 254.032226562 c 2
 35 254.032226562 l 1
 35 375.032226562 l 1
 70 375.032226562 l 2
 106.501953125 375.032226562 125 389.705078125 125 437.032226562 c 2
 125 598.469726562 l 2
 125 699.768026194 171.424731183 759.469726562 301 759.469726562 c 0
 355.75 759.469726562 398 749.469726562 398 749.469726562 c 1
 391 639.473632812 l 1
 391 639.473632812 374.180664062 644.473632812 337 644.473632812 c 0
 290.2421875 644.473632812 264 627.754882812 264 572.473632812 c 2
 264 419.532226562 l 2
 264 337.53515625 203 314.532226562 203 314.532226562 c 1
EndSplineSet
EndChar

StartChar: grave
Encoding: 96 96 87
Width: 242
Flags: W
HStem: 521 220.008
VStem: 3.5 235
LayerCount: 2
Fore
SplineSet
143.5 521 m 1
 3.5 711.0078125 l 1
 139.5 741.0078125 l 1
 238.5 541 l 1
 143.5 521 l 1
EndSplineSet
EndChar

StartChar: underscore
Encoding: 95 95 88
Width: 564
Flags: W
HStem: -106 106<32.5 531.5>
LayerCount: 2
Fore
SplineSet
531.5 -106 m 1
 32.5 -106 l 1
 32.5 0 l 1
 531.5 0 l 1
 531.5 -106 l 1
EndSplineSet
EndChar

StartChar: dollar
Encoding: 36 36 89
Width: 591
Flags: W
HStem: -105 174.47<230 359> -10 138.712<136.852 368.111> 599.409 139.712<236.066 444.124> 655 174.47<230 359>
VStem: 44.627 163.062<477.534 573.238> 230 129<-105 69.4697 655 829.47> 397.088 156.932<155.969 252.35>
LayerCount: 2
Fore
SplineSet
230 -105 m 1x8e
 230 69.4697265625 l 1
 359 69.4697265625 l 1
 359 -105 l 1
 230 -105 l 1x8e
230 655 m 1x1e
 230 829.469726562 l 1
 359 829.469726562 l 1
 359 655 l 1
 230 655 l 1x1e
EndSplineSet
Refer: 22 83 N 1 0 0 1 0 0 2
EndChar

StartChar: percent
Encoding: 37 37 90
Width: 953
Flags: W
HStem: -9.99805 110.53<667.99 777.203> 0 21G<193.5 329.675> 266.322 110.529<667.99 777.203> 352.143 110.529<177.36 286.203> 628.462 110.53<177.36 286.203> 711.008 20G<626.325 762.5>
VStem: 37.5 120.41<483.114 608.911> 307.16 118.3<483.753 608.289> 528.5 119.41<120.974 246.771> 798.16 118.3<121.612 246.149>
LayerCount: 2
Fore
SplineSet
647.91015625 183.981445312 m 0xa3c0
 647.91015625 124.115199812 681.466373613 100.532226562 722.48046875 100.532226562 c 0
 763.089287771 100.532226562 798.16015625 124.115199812 798.16015625 183.981445312 c 0
 798.16015625 244.365133492 763.089287771 266.322265625 722.48046875 266.322265625 c 0
 681.466373613 266.322265625 647.91015625 244.365133492 647.91015625 183.981445312 c 0xa3c0
528.5 183.981445312 m 0
 528.5 290.256670854 599.276520241 376.8515625 722.48046875 376.8515625 c 0
 845.683426366 376.8515625 916.459960938 290.256670854 916.459960938 183.981445312 c 0
 916.459960938 77.8171513741 845.683426366 -9.998046875 722.48046875 -9.998046875 c 0
 599.276520241 -9.998046875 528.5 77.8171513741 528.5 183.981445312 c 0
157.91015625 546.122070312 m 0
 157.91015625 486.255876656 191.016379289 462.671875 231.48046875 462.671875 c 0
 272.089287771 462.671875 307.16015625 486.255876656 307.16015625 546.122070312 c 0
 307.16015625 606.504762379 272.089287771 628.461914062 231.48046875 628.461914062 c 0x1bc0
 191.016379289 628.461914062 157.91015625 606.504762379 157.91015625 546.122070312 c 0
37.5 546.122070312 m 0
 37.5 652.397295854 108.276520241 738.9921875 231.48046875 738.9921875 c 0
 354.683426366 738.9921875 425.459960938 652.397295854 425.459960938 546.122070312 c 0
 425.459960938 439.957776374 354.683426366 352.142578125 231.48046875 352.142578125 c 0
 108.276520241 352.142578125 37.5 439.957776374 37.5 546.122070312 c 0
EndSplineSet
Refer: 138 8260 N 1 0 0 1 301 0 2
EndChar

StartChar: at
Encoding: 64 64 91
Width: 924
Flags: W
HStem: -159.727 110.508<356.229 651.318> 71.9697 112.004<392.345 507.247 670.001 759.681> 369.053 110.023<403.377 516.523> 598.988 108.738<343.435 601.448>
VStem: 35 116.425<146.335 403.092> 239.842 133.767<203.593 339.285> 536.433 128.402<222.313 335.868> 547.283 65.2217<151.454 350.156> 780.167 109.12<202.573 438.001>
LayerCount: 2
Fore
SplineSet
373.608398438 265.5546875 m 0xfe80
 373.608398438 212.17110799 399.213534892 183.973632812 447.694335938 183.973632812 c 0
 503.735581974 183.973632812 536.432617188 222.313367219 536.432617188 288.029296875 c 0
 536.432617188 340.356764031 507.816409545 369.052734375 461.334960938 369.052734375 c 0
 405.873112247 369.052734375 373.608398438 330.987383816 373.608398438 265.5546875 c 0xfe80
421.892578125 71.9697265625 m 0
 312.906971056 71.9697265625 239.841796875 147.148259688 239.841796875 259.287109375 c 0
 239.841796875 389.543834196 326.089675227 479.076171875 440.624511719 479.076171875 c 0
 557.36489333 479.076171875 612.504882812 402.619240615 612.504882812 264.52734375 c 0xfd80
 612.504882812 151.454290131 533.824698389 71.9697265625 421.892578125 71.9697265625 c 0
487.713867188 -159.7265625 m 0
 207.397460938 -159.7265625 35 14.611328125 35 268.08984375 c 0
 35 524.041992188 212.759498469 707.7265625 468.920898438 707.7265625 c 0
 714.33830628 707.7265625 889.287109375 561.379882812 889.287109375 321.901367188 c 0
 889.287109375 171.18359375 819.111374469 72.708984375 696.626953125 72.708984375 c 0
 602.995600984 72.708984375 547.283203125 120.982421875 547.283203125 228.081054688 c 0xfd80
 547.283203125 350.15625 586.313476562 476.46484375 586.313476562 476.46484375 c 1
 706.12890625 476.46484375 l 1
 706.12890625 476.46484375 664.834960938 335.867972017 664.834960938 234.577148438 c 0xfe80
 664.834960938 196.977155919 679.42407921 177.134765625 708.707519531 177.134765625 c 0
 751.957715249 177.134765625 780.166992188 207.252281842 780.166992188 320.572265625 c 0
 780.166992188 498.510922973 660.363567079 598.98828125 465.484375 598.98828125 c 0
 273.240173145 598.98828125 151.424804688 473.367935338 151.424804688 276.489257812 c 0
 151.424804688 74.0986575255 270.802362272 -49.21875 505.1796875 -49.21875 c 0
 666.357736823 -49.21875 767.11328125 23.5576171875 767.11328125 23.5576171875 c 1
 805.250976562 -72.2255859375 l 1
 805.250976562 -72.2255859375 701.004882812 -159.7265625 487.713867188 -159.7265625 c 0
EndSplineSet
EndChar

StartChar: numbersign
Encoding: 35 35 92
Width: 767
Flags: W
HStem: 0 21G<101.5 235.014 371.5 505.014> 176.5 113.5<40 692> 424 113.5<75 727> 711.008 20G<261.986 395.5 531.986 665.5>
LayerCount: 2
Fore
SplineSet
75 537.5 m 1
 727 537.5 l 1
 727 424 l 1
 75 424 l 1
 75 537.5 l 1
40 290 m 1
 692 290 l 1
 692 176.5 l 1
 40 176.5 l 1
 40 290 l 1
371.5 0 m 1
 536.5 731.0078125 l 1
 665.5 731.0078125 l 1
 500.5 0 l 1
 371.5 0 l 1
101.5 0 m 1
 266.5 731.0078125 l 1
 395.5 731.0078125 l 1
 230.5 0 l 1
 101.5 0 l 1
EndSplineSet
EndChar

StartChar: braceright
Encoding: 125 125 93
Width: 433
Flags: W
HStem: -171.47 114.996<36.4621 151.538> 254.032 121<315.778 398> 644.474 114.996<36.3831 151.645>
VStem: 169 139<-39.4847 246.06 382.298 627.484>
LayerCount: 2
Fore
SplineSet
230 314.532226562 m 1
 230 314.532226562 169 337.53515625 169 419.532226562 c 2
 169 563.473632812 l 2
 169 625.665039062 140.960402397 644.473632812 91 644.473632812 c 0
 53.8193359375 644.473632812 37 639.473632812 37 639.473632812 c 1
 30 749.469726562 l 1
 30 749.469726562 72.25 759.469726562 127 759.469726562 c 0
 260.256384409 759.469726562 308 696.430664062 308 589.469726562 c 2
 308 437.032226562 l 2
 308 389.705078125 326.498046875 375.032226562 363 375.032226562 c 2
 398 375.032226562 l 1
 398 254.032226562 l 1
 363 254.032226562 l 2
 326.498046875 254.032226562 308 239.360351562 308 192.032226562 c 2
 308 -1.4697265625 l 2
 308 -108.43359375 260.256384409 -171.469726562 127 -171.469726562 c 0
 67 -171.469726562 30 -161.469726562 30 -161.469726562 c 1
 37 -51.4736328125 l 1
 37 -51.4736328125 46.556640625 -56.4736328125 90 -56.4736328125 c 0
 140.601034629 -56.4736328125 169 -37.6661376953 169 24.5263671875 c 2
 169 209.532226562 l 2
 169 289.532226562 230 314.532226562 230 314.532226562 c 1
EndSplineSet
EndChar

StartChar: asciitilde
Encoding: 126 126 94
Width: 436
VWidth: 999
Flags: W
HStem: 282 120<231.151 353.238> 331 119<84.8649 204.877>
LayerCount: 2
Fore
SplineSet
428.5 355 m 1x80
 428.5 355 377.549180328 282 299 282 c 0x80
 221.461538462 282 195.615384615 331 139 331 c 0
 99.6231884058 331 67.5 294.5 67.5 294.5 c 1
 7.5 392.5 l 1
 7.5 392.5 63.7581967213 450 137 450 c 0x40
 213.307692308 450 245.307692308 402 297 402 c 0
 341.653846154 402 364.5 434.5 364.5 434.5 c 1
 428.5 355 l 1x80
EndSplineSet
EndChar

StartChar: cent
Encoding: 162 162 95
Width: 492
Flags: W
HStem: -5 189.47<233 354> 105.002 124.462<239.177 414.825> 499.284 126.649<237.514 395.196> 570 159.47<233 354>
VStem: 37.5 151.099<282.458 451.015> 233 121<-5 184.47 570 729.47>
LayerCount: 2
Fore
SplineSet
233 -5 m 1x8c
 233 184.469726562 l 1
 354 184.469726562 l 1
 354 -5 l 1
 233 -5 l 1x8c
233 570 m 1x1c
 233 729.469726562 l 1
 354 729.469726562 l 1
 354 570 l 1
 233 570 l 1x1c
EndSplineSet
Refer: 40 99 N 1 0 0 1 0 115 2
EndChar

StartChar: sterling
Encoding: 163 163 96
Width: 553
Flags: W
HStem: 0 136<210.319 523> 279.5 127.5<42.5 434> 601.371 138.091<249.978 449.759>
VStem: 61.8516 163.229<449.571 575.966> 139.324 143.907<222.278 406.63>
LayerCount: 2
Fore
SplineSet
434 279.5 m 1xe0
 42.5 279.5 l 1
 42.5 407 l 1
 434 407 l 1
 434 279.5 l 1xe0
523 0 m 1
 30 0 l 1
 30 120 l 1
 30 120 139.32421875 195.513671875 139.32421875 304.379882812 c 0xe8
 139.32421875 400.641455788 61.8515625 425.674530005 61.8515625 547.185546875 c 0
 61.8515625 671.3984375 158.267594219 739.461914062 302.80859375 739.461914062 c 0
 441.674803144 739.461914062 503.70703125 703.405273438 503.70703125 703.405273438 c 1
 474.9375 569.774414062 l 1
 474.9375 569.774414062 409.877929688 601.37109375 337.80859375 601.37109375 c 0
 275.151953559 601.37109375 225.080078125 587.682141513 225.080078125 518.524414062 c 0xf0
 225.080078125 450.560936995 283.231445312 412.61827973 283.231445312 312.658203125 c 0xe8
 283.231445312 203.192600859 210.319335938 136 210.319335938 136 c 1
 523 136 l 1
 523 0 l 1
EndSplineSet
EndChar

StartChar: yen
Encoding: 165 165 97
Width: 649
Flags: W
HStem: 0 21G<245 404> 175 86<84.5 564.5> 305 108.5<245 404> 305 86<84.5 251 398 564.5> 322 69<251 398> 711.008 20G<22.5 203.977 445.023 626.5>
VStem: 245 159<0 413.5>
LayerCount: 2
Fore
SplineSet
251 322 m 1xce
 22.5 731.0078125 l 1
 194.5 731.0078125 l 1
 324.5 456.666015625 l 1
 454.5 731.0078125 l 1
 626.5 731.0078125 l 1
 398 322 l 1
 251 322 l 1xce
245 0 m 1
 245 413.5 l 1
 404 413.5 l 1xe6
 404 0 l 1
 245 0 l 1
564.5 175 m 1
 84.5 175 l 1
 84.5 261 l 1
 564.5 261 l 1
 564.5 175 l 1
564.5 305 m 1xd6
 84.5 305 l 1
 84.5 391 l 1
 564.5 391 l 1
 564.5 305 l 1xd6
EndSplineSet
EndChar

StartChar: currency
Encoding: 164 164 98
Width: 513
Flags: W
HStem: 156.724 117.462<208.253 306.276> 440.006 117.649<208.273 306.295>
VStem: 52.6113 125.849<294.328 418.835> 334.54 125.849<294.979 418.835>
LayerCount: 2
Fore
SplineSet
307.739257812 213.436523438 m 1
 411.389648438 246.325195312 l 1
 505.759765625 124.765625 l 1
 374.580078125 66.1455078125 l 1
 307.739257812 213.436523438 l 1
205.520507812 213.436523438 m 1
 138.6796875 66.1455078125 l 1
 7.5 124.765625 l 1
 101.870117188 246.325195312 l 1
 205.520507812 213.436523438 l 1
307.739257812 497.74609375 m 1
 374.580078125 645.036132812 l 1
 505.759765625 586.416015625 l 1
 411.389648438 464.856445312 l 1
 307.739257812 497.74609375 l 1
205.520507812 497.74609375 m 1
 101.870117188 464.856445312 l 1
 7.5 586.416015625 l 1
 138.6796875 645.036132812 l 1
 205.520507812 497.74609375 l 1
178.459960938 359.283203125 m 0
 178.459960938 308.25469755 201.533382422 274.185546875 255.5 274.185546875 c 0
 310.868031714 274.185546875 334.540039062 308.25469755 334.540039062 359.283203125 c 0
 334.540039062 407.688688651 310.901216954 440.005859375 255.611328125 440.005859375 c 0
 201.566567119 440.005859375 178.459960938 407.688688651 178.459960938 359.283203125 c 0
52.611328125 359.283203125 m 0
 52.611328125 479.317382812 129.379882812 557.655273438 255.5 557.655273438 c 0
 382.86328125 557.655273438 460.388671875 479.317382812 460.388671875 359.283203125 c 0
 460.388671875 236.715820312 382.86328125 156.723632812 255.5 156.723632812 c 0
 129.379882812 156.723632812 52.611328125 236.715820312 52.611328125 359.283203125 c 0
EndSplineSet
EndChar

StartChar: brokenbar
Encoding: 166 166 99
Width: 249
Flags: W
VStem: 57.5 134<-171.47 239 339 759.47>
LayerCount: 2
Fore
SplineSet
57.5 -171.469726562 m 1
 57.5 239 l 1
 191.5 239 l 1
 191.5 -171.469726562 l 1
 57.5 -171.469726562 l 1
57.5 339 m 1
 57.5 759.469726562 l 1
 191.5 759.469726562 l 1
 191.5 339 l 1
 57.5 339 l 1
EndSplineSet
EndChar

StartChar: section
Encoding: 167 167 100
Width: 593
Flags: W
HStem: -19.6709 116.891<164.309 333.031> 637.712 116.891<260.519 429.242>
VStem: 32.4082 136.359<346.9 431.972> 104.559 146.982<554.574 627.278> 342.01 146.982<107.654 180.517> 424.783 136.359<303.231 386.579>
LayerCount: 2
Fore
SplineSet
176.239501953 530.153320312 m 1xe8
 241.048095703 459.951171875 l 1
 241.048095703 459.951171875 168.766845703 445.112304688 168.766845703 382.393554688 c 0
 168.766845703 351.341042732 195.363252499 329.622900969 310.628173828 314.647949219 c 0
 450.24552465 296.595671182 488.991455078 229.581681214 488.991455078 145.370117188 c 0
 488.991455078 42.560546875 409.658203125 -19.6708984375 279.326171875 -19.6708984375 c 0
 166.611328125 -19.6708984375 111.794189453 19.734375 111.794189453 19.734375 c 1
 147.421875 127.325195312 l 1
 147.421875 127.325195312 197.911376953 97.2197265621 272.329345703 97.2197265621 c 0
 320.39453125 97.2197265621 342.009765625 114.434326172 342.009765625 142.193359375 c 0
 342.009765625 166.818273057 327.841908589 190.056439228 269.184814453 195.933837891 c 0
 82.2272341665 216.903808594 32.408203125 279.47160478 32.408203125 362.309570312 c 0
 32.408203125 482.29296875 176.239501953 530.153320312 176.239501953 530.153320312 c 1xe8
412.310546875 199.778320312 m 1
 352.501953125 274.98046875 l 1
 352.501953125 274.98046875 424.783203125 289.819335938 424.783203125 350.653564453 c 0
 424.783203125 383.502793994 397.569655107 404.101806641 280.938964844 420.207519531 c 0
 142.996449271 439.273034065 104.55859375 505.312065724 104.55859375 589.561523438 c 0
 104.55859375 692.37109375 183.891845703 754.602539062 314.223876953 754.602539062 c 0
 426.938720703 754.602539062 481.755859375 715.197265625 481.755859375 715.197265625 c 1
 446.128173828 607.606445312 l 1
 446.128173828 607.606445312 395.638916016 637.711914062 321.220703125 637.711914062 c 0
 273.155517578 637.711914062 251.540283203 620.497314453 251.540283203 592.73828125 c 0
 251.540283203 567.824406636 265.502296032 546.040920434 326.104492188 538.3671875 c 0
 510.42849658 514.948486328 561.141845703 453.949618369 561.141845703 370.372070312 c 0xd4
 561.141845703 248.666259766 412.310546875 199.778320312 412.310546875 199.778320312 c 1
EndSplineSet
EndChar

StartChar: dieresis
Encoding: 168 168 101
Width: 459
Flags: W
HStem: 577.543 161.449<67.5692 181.43 277.569 391.43>
VStem: 44.3867 160.227<599.566 716.969> 254.387 160.227<599.566 716.969>
LayerCount: 2
Fore
SplineSet
254.38671875 658.267578125 m 0
 254.38671875 707.171851635 285.964946433 738.9921875 334.499023438 738.9921875 c 0
 383.03409683 738.9921875 414.61328125 707.171851635 414.61328125 658.267578125 c 0
 414.61328125 609.362421084 383.03409683 577.54296875 334.499023438 577.54296875 c 0
 285.964946433 577.54296875 254.38671875 609.362421084 254.38671875 658.267578125 c 0
44.38671875 658.267578125 m 0
 44.38671875 707.171851635 75.9649464332 738.9921875 124.499023438 738.9921875 c 0
 173.03409683 738.9921875 204.61328125 707.171851635 204.61328125 658.267578125 c 0
 204.61328125 609.362421084 173.03409683 577.54296875 124.499023438 577.54296875 c 0
 75.9649464331 577.54296875 44.38671875 609.362421084 44.38671875 658.267578125 c 0
EndSplineSet
EndChar

StartChar: copyright
Encoding: 169 169 102
Width: 797
Flags: W
HStem: -9.99805 104.857<279.271 518.506> 177.281 99.9814<368.321 522.117> 451.86 99.9814<368.321 504.175> 634.264 104.857<279.271 518.506>
VStem: 35 107.896<236.464 492.659> 228.207 118.174<300.268 428.855> 654.881 107.896<236.464 492.659>
LayerCount: 2
Fore
SplineSet
228.20703125 364.561523438 m 0
 228.20703125 477.88408452 292.741542707 551.841796875 416.901367188 551.841796875 c 0
 499.7421875 551.841796875 539.797851562 518.7265625 539.797851562 518.7265625 c 1
 509.134765625 426.099609375 l 1
 509.134765625 426.099609375 487.80859375 451.860351562 432.401367188 451.860351562 c 0
 369.789688093 451.860351562 346.380859375 416.910947229 346.380859375 364.561523438 c 0
 346.380859375 312.212099647 369.789688093 277.262695312 432.401367188 277.262695312 c 0
 492.26171875 277.262695312 517.965820312 300.328125 517.965820312 300.328125 c 1
 541.370117188 204.578125 l 1
 541.370117188 204.578125 499.182617188 177.28125 416.901367188 177.28125 c 0
 292.741542707 177.28125 228.20703125 251.238962356 228.20703125 364.561523438 c 0
142.896484375 364.561523438 m 0
 142.896484375 202.833765215 219.564857677 94.859375 398.888671875 94.859375 c 0
 578.212486073 94.859375 654.880859375 202.833765215 654.880859375 364.561523438 c 0
 654.880859375 526.28928166 578.212486073 634.263671875 398.888671875 634.263671875 c 0
 219.564857677 634.263671875 142.896484375 526.28928166 142.896484375 364.561523438 c 0
35 364.561523438 m 0
 35 591.206054688 172.688476562 739.12109375 398.888671875 739.12109375 c 0
 625.088867188 739.12109375 762.77734375 591.206054688 762.77734375 364.561523438 c 0
 762.77734375 137.916992188 625.088867188 -9.998046875 398.888671875 -9.998046875 c 0
 172.688476562 -9.998046875 35 137.916992188 35 364.561523438 c 0
EndSplineSet
EndChar

StartChar: registered
Encoding: 174 174 103
Width: 797
Flags: W
HStem: -9.99805 104.857<279.271 518.506> 310.752 76.4258<303.75 423.945> 468.826 79.4297<352.5 439.377> 634.264 104.857<279.271 518.506>
VStem: 35 107.896<236.464 492.659> 244.25 108.25<182.752 310.752 387.178 468.826> 303.75 48.75<310.752 387.178> 443.965 105.674<392.06 463.361> 654.881 107.896<236.464 492.659>
LayerCount: 2
Fore
SplineSet
303.75 387.177734375 m 1xfb80
 390.444335938 387.232421875 l 2
 421.084748211 387.250348465 443.96484375 394.478902587 443.96484375 427.533203125 c 0
 443.96484375 461.064105649 421.084746557 468.747866613 390.444335938 468.775390625 c 2
 352.5 468.826171875 l 1
 352.5 182.751953125 l 1
 244.25 182.751953125 l 1
 244.25 548.255859375 l 1xfd80
 408.694335938 548.255859375 l 2
 482.852050781 548.255859375 549.638671875 517.2153034 549.638671875 434.283203125 c 0
 549.638671875 362.977647687 489.59375 341.890625 489.59375 341.890625 c 1
 489.59375 341.890625 517.433485862 331.852159418 536.6015625 271.451171875 c 2
 564.75 182.751953125 l 1
 455 182.751953125 l 1
 432.5 265.251953125 l 2
 421.0706118 307.159709858 413.808032591 310.751953125 379.75 310.751953125 c 2
 303.75 310.751953125 l 1
 303.75 387.177734375 l 1xfb80
142.896484375 364.561523438 m 0
 142.896484375 202.833765215 219.564857677 94.859375 398.888671875 94.859375 c 0
 578.212486073 94.859375 654.880859375 202.833765215 654.880859375 364.561523438 c 0
 654.880859375 526.28928166 578.212486073 634.263671875 398.888671875 634.263671875 c 0
 219.564857677 634.263671875 142.896484375 526.28928166 142.896484375 364.561523438 c 0
35 364.561523438 m 0
 35 591.206054688 172.688476562 739.12109375 398.888671875 739.12109375 c 0
 625.088867188 739.12109375 762.77734375 591.206054688 762.77734375 364.561523438 c 0
 762.77734375 137.916992188 625.088867188 -9.998046875 398.888671875 -9.998046875 c 0
 172.688476562 -9.998046875 35 137.916992188 35 364.561523438 c 0
EndSplineSet
EndChar

StartChar: uni2117
Encoding: 8471 8471 104
Width: 797
Flags: W
HStem: -9.99805 104.857<279.271 518.506> 286.752 80.1758<314.694 457.958> 465.826 82.4297<360.694 459.083> 634.264 104.857<279.271 518.506>
VStem: 35 107.896<236.464 492.659> 252.444 108.25<182.752 286.752 366.928 465.826> 314.694 46<286.752 366.928> 466.909 105.174<375.565 457.095> 654.881 107.896<236.464 492.659>
LayerCount: 2
Fore
SplineSet
314.694335938 286.751953125 m 1xfb80
 314.694335938 366.927734375 l 1xfb80
 401.138671875 366.982421875 l 2
 438.792236548 367.007812187 466.909179688 375.802425243 466.909179688 416.033203125 c 0
 466.909179688 456.475044565 438.792222582 465.723864166 401.138671875 465.775390625 c 2
 360.694335938 465.826171875 l 1
 360.694335938 182.751953125 l 1
 252.444335938 182.751953125 l 1
 252.444335938 548.255859375 l 1xfd80
 427.638671875 548.255859375 l 2
 503.637838398 548.255859375 572.083007812 512.244978898 572.083007812 416.033203125 c 0
 572.083007812 321.475395761 504.62381553 286.751953125 430.638671875 286.751953125 c 2
 314.694335938 286.751953125 l 1xfb80
142.896484375 364.561523438 m 0
 142.896484375 202.833765215 219.564857677 94.859375 398.888671875 94.859375 c 0
 578.212486073 94.859375 654.880859375 202.833765215 654.880859375 364.561523438 c 0
 654.880859375 526.28928166 578.212486073 634.263671875 398.888671875 634.263671875 c 0
 219.564857677 634.263671875 142.896484375 526.28928166 142.896484375 364.561523438 c 0
35 364.561523438 m 0
 35 591.206054688 172.688476562 739.12109375 398.888671875 739.12109375 c 0
 625.088867188 739.12109375 762.77734375 591.206054688 762.77734375 364.561523438 c 0
 762.77734375 137.916992188 625.088867188 -9.998046875 398.888671875 -9.998046875 c 0
 172.688476562 -9.998046875 35 137.916992188 35 364.561523438 c 0
EndSplineSet
EndChar

StartChar: guillemotleft
Encoding: 171 171 105
Width: 590
Flags: W
LayerCount: 2
Fore
SplineSet
37.5 281 m 1
 177.5 441 l 1
 327.5 441 l 1
 174.25 254 l 1
 327.5 67 l 1
 177.5 67 l 1
 37.5 227 l 1
 37.5 281 l 1
287.5 281 m 1
 427.5 441 l 1
 577.5 441 l 1
 424.25 254 l 1
 577.5 67 l 1
 427.5 67 l 1
 287.5 227 l 1
 287.5 281 l 1
EndSplineSet
EndChar

StartChar: guillemotright
Encoding: 187 187 106
Width: 590
Flags: W
LayerCount: 2
Fore
SplineSet
552.5 227 m 1
 412.5 67 l 1
 262.5 67 l 1
 415.75 254 l 1
 262.5 441 l 1
 412.5 441 l 1
 552.5 281 l 1
 552.5 227 l 1
302.5 227 m 1
 162.5 67 l 1
 12.5 67 l 1
 165.75 254 l 1
 12.5 441 l 1
 162.5 441 l 1
 302.5 281 l 1
 302.5 227 l 1
EndSplineSet
EndChar

StartChar: mu
Encoding: 181 181 107
Width: 595
Flags: W
HStem: -9.92285 121.899<232.73 349.831> 0 21G<389.277 538.277> 481.011 20G<57.5 206.5 389.277 538.277>
VStem: 57.5 149<196.449 501.011> 97.5 109<56.9261 321.011> 389.277 149<207.449 501.011>
LayerCount: 2
Fore
SplineSet
57.5 -180 m 1x34
 57.5 501.010742188 l 1
 206.5 501.010742188 l 1x34
 206.5 -180 l 1x2c
 57.5 -180 l 1x34
389.27734375 217.010742188 m 9
 451.77734375 207.44921875 l 17
 430.172701677 57.0107421877 376.306759886 -9.9228515625 251.27734375 -9.9228515625 c 0
 152.382212336 -9.9228515625 97.5 56.9260601597 97.5 196.44921875 c 2
 97.5 321.010742188 l 1xac
 206.5 321.010742188 l 1
 206.5 213.44921875 l 2
 206.5 149.169664837 233.414461889 111.9765625 296.77734375 111.9765625 c 0xb4
 361.574134499 111.9765625 389.27734375 154.026626963 389.27734375 217.010742188 c 9
538.27734375 501.010742188 m 1
 538.27734375 0 l 1
 389.27734375 0 l 1x64
 389.27734375 501.010742188 l 1
 538.27734375 501.010742188 l 1
EndSplineSet
EndChar

StartChar: acute
Encoding: 180 180 108
Width: 242
Flags: W
HStem: 521 220.008
VStem: 3.5 235
LayerCount: 2
Fore
SplineSet
98.5 521 m 1
 3.5 541 l 1
 102.5 741.0078125 l 1
 238.5 711.0078125 l 1
 98.5 521 l 1
EndSplineSet
EndChar

StartChar: macron
Encoding: 175 175 109
Width: 374
Flags: W
HStem: 615.008 116<32.5 341.5>
VStem: 32.5 309<615.008 731.008>
LayerCount: 2
Fore
SplineSet
341.5 615.0078125 m 1
 32.5 615.0078125 l 1
 32.5 731.0078125 l 1
 341.5 731.0078125 l 1
 341.5 615.0078125 l 1
EndSplineSet
EndChar

StartChar: uni00AD
Encoding: 173 173 110
Width: 354
Flags: W
HStem: 213.75 131.5<35 319>
VStem: 35 284<213.75 345.25>
LayerCount: 2
Fore
SplineSet
319 213.75 m 1
 35 213.75 l 1
 35 345.25 l 1
 319 345.25 l 1
 319 213.75 l 1
EndSplineSet
EndChar

StartChar: logicalnot
Encoding: 172 172 111
Width: 450
Flags: W
HStem: 298.75 118.5<30 293.75>
VStem: 293.75 122.5<165 298.75>
LayerCount: 2
Fore
SplineSet
416.25 165 m 1
 293.75 165 l 1
 293.75 298.75 l 1
 30 298.75 l 1
 30 417.25 l 1
 416.25 417.25 l 1
 416.25 165 l 1
EndSplineSet
EndChar

StartChar: minus
Encoding: 8722 8722 112
Width: 450
Flags: W
HStem: 298.75 118.5<30 420>
LayerCount: 2
Fore
SplineSet
420 298.75 m 1
 30 298.75 l 1
 30 417.25 l 1
 420 417.25 l 1
 420 298.75 l 1
EndSplineSet
EndChar

StartChar: notequal
Encoding: 8800 8800 113
Width: 450
Flags: W
HStem: 218.75 108.5<30 420> 388.75 108.5<30 420>
LayerCount: 2
Fore
SplineSet
55 108.530273438 m 1
 260 601.403320312 l 1
 389 601.403320312 l 1
 184 108.530273438 l 1
 55 108.530273438 l 1
EndSplineSet
Refer: 52 61 N 1 0 0 1 0 0 2
EndChar

StartChar: partialdiff
Encoding: 8706 8706 114
Width: 620
Flags: W
HStem: -9.99805 130.139<219.363 364.698> 353.641 116.959<233.952 380.19> 597.27 141.723<190.843 370.542>
VStem: 37.5 147.767<154.999 305.497> 441.361 141.304<425.497 519.757>
LayerCount: 2
Fore
SplineSet
413.266601562 246.890625 m 0
 413.266601562 308.590166284 383.030724158 353.640625 309.766601562 353.640625 c 0
 221.637144962 353.640625 185.266601562 300.149799312 185.266601562 226.890625 c 0
 185.266601562 165.191083716 215.794487388 120.140625 289.766601562 120.140625 c 0
 377.188042534 120.140625 413.266601562 173.631450688 413.266601562 246.890625 c 0
441.361328125 425.497070312 m 1
 435.770578683 536.868791802 386.265179587 597.26953125 288.38671875 597.26953125 c 0
 205.908938678 597.26953125 161.045898438 557.388671875 161.045898438 557.388671875 c 1
 105.741210938 688.860351562 l 1
 105.741210938 688.860351562 169.670589964 738.9921875 295.8671875 738.9921875 c 0
 480.226967882 738.9921875 582.665039062 612.671898034 582.665039062 385.331054688 c 0
 582.665039062 105.516837439 473.333648681 -9.998046875 288.8671875 -9.998046875 c 0
 132.979913401 -9.998046875 37.5 75.5176128099 37.5 229 c 0
 37.5 372.20164401 136.173643521 470.599609375 291.901367188 470.599609375 c 0
 405.063276621 470.599609375 441.361328125 425.497070312 441.361328125 425.497070312 c 1
EndSplineSet
EndChar

StartChar: emptyset
Encoding: 8709 8709 115
Width: 797
Flags: W
HStem: -9.99805 117.462<323.598 515.666> 621.659 117.462<282.111 478.979>
VStem: 35 119.849<243.994 485.129> 642.929 119.849<243.994 485.129>
LayerCount: 2
Fore
SplineSet
154.848632812 364.561523438 m 0
 154.848632812 210.392009726 227.937197871 107.463867188 398.888671875 107.463867188 c 0
 569.840145878 107.463867188 642.928710938 210.392009726 642.928710938 364.561523438 c 0
 642.928710938 518.731037147 569.840145878 621.659179688 398.888671875 621.659179688 c 0
 227.937197871 621.659179688 154.848632812 518.731037147 154.848632812 364.561523438 c 0
35 364.561523438 m 0
 35 591.206054688 172.688476562 739.12109375 398.888671875 739.12109375 c 0
 625.088867188 739.12109375 762.77734375 591.206054688 762.77734375 364.561523438 c 0
 762.77734375 137.916992188 625.088867188 -9.998046875 398.888671875 -9.998046875 c 0
 172.688476562 -9.998046875 35 137.916992188 35 364.561523438 c 0
104 -90.873046875 m 1
 569 812 l 1
 693 812 l 1
 228 -90.873046875 l 1
 104 -90.873046875 l 1
EndSplineSet
EndChar

StartChar: Delta
Encoding: 8710 8710 116
Width: 719
Flags: W
HStem: 0 147<207.75 511.25> 711.008 20G<262.172 447.165>
LayerCount: 2
Fore
SplineSet
681.5 0 m 1
 37.5 0 l 1
 37.5 137 l 1
 270 731.0078125 l 1
 439 731.0078125 l 1
 681.5 137 l 1
 681.5 0 l 1
511.25 147 m 1
 355.393554688 552.813476562 l 1
 207.75 147 l 1
 511.25 147 l 1
EndSplineSet
EndChar

StartChar: plusminus
Encoding: 177 177 117
Width: 450
Flags: W
HStem: 149 108.5<30 165.75 284.25 420> 165.25 92.25<165.75 284.25> 336.5 118.5<30 420>
VStem: 165.75 118.5<165.25 565.75>
LayerCount: 2
Fore
SplineSet
420 149 m 1xb0
 30 149 l 1
 30 257.5 l 1
 420 257.5 l 1
 420 149 l 1xb0
165.75 165.25 m 1x70
 165.75 565.75 l 1
 284.25 565.75 l 1
 284.25 165.25 l 1
 165.75 165.25 l 1x70
420 336.5 m 1
 30 336.5 l 1
 30 455 l 1
 420 455 l 1
 420 336.5 l 1
EndSplineSet
EndChar

StartChar: degree
Encoding: 176 176 118
Width: 431
Flags: W
HStem: 400.07 106.776<163.86 266.945> 654.038 106.964<163.874 266.959>
VStem: 31.25 116.912<522.473 638.652> 283.615 116.912<523.005 638.652>
LayerCount: 2
Fore
SplineSet
148.162109375 580.854492188 m 0
 148.162109375 536.475765452 168.116016788 506.846679688 214.786132812 506.846679688 c 0
 263.001197185 506.846679688 283.615234375 536.475765452 283.615234375 580.854492188 c 0
 283.615234375 624.739287554 263.038332311 654.038085938 214.909179688 654.038085938 c 0
 168.153152694 654.038085938 148.162109375 624.739287554 148.162109375 580.854492188 c 0
31.25 580.629882812 m 0
 31.25 689.772696384 100.734955875 761.001953125 214.888671875 761.001953125 c 0
 330.285551619 761.001953125 400.52734375 689.772696384 400.52734375 580.629882812 c 0
 400.52734375 471.374251811 330.285551619 400.0703125 214.888671875 400.0703125 c 0
 100.734955875 400.0703125 31.25 471.374251811 31.25 580.629882812 c 0
EndSplineSet
EndChar

StartChar: cedilla
Encoding: 184 184 120
Width: 317
VWidth: 999
Flags: W
HStem: -255 83<48.0468 178.953>
VStem: 183 104<-166.179 -97.3503>
LayerCount: 2
Fore
SplineSet
287 -131 m 0
 287 -209.970703125 237.749023438 -255 146 -255 c 0
 85.7078226024 -255 31.5 -232 31.5 -232 c 1
 54 -151 l 1
 54 -151 83.103515625 -172 130 -172 c 0
 169.424357096 -172 183 -157.097814611 183 -131 c 0
 183 -106.467830882 167.66523823 -93.5 142.75 -93.5 c 0
 114.754541015 -93.5 105 -111 105 -111 c 1
 47 -92 l 1
 69 39 l 1
 155.75 39 l 1
 144.735351562 -28.353515625 l 1
 144.735351562 -28.353515625 154.992651464 -21 185.25 -21 c 0
 249.951007503 -21 287 -62.5234375 287 -131 c 0
EndSplineSet
EndChar

StartChar: paragraph
Encoding: 182 182 121
Width: 682
Flags: W
HStem: 607.992 123<405.889 488.389>
VStem: 32.5 373.389<393.837 606.32> 271.389 134.5<-179.994 284.637> 488.389 134.5<-179.994 607.992>
LayerCount: 2
Fore
SplineSet
405.888671875 -179.994140625 m 1xb0
 271.388671875 -179.994140625 l 1
 271.388671875 282.9921875 l 1xb0
 137.99714427 292.9921875 32.5 337.833007812 32.5 499.432617188 c 0xd0
 32.5 667.032226562 144.5 730.9921875 286.388671875 730.9921875 c 2
 622.888671875 730.9921875 l 1
 622.888671875 -179.994140625 l 1
 488.388671875 -179.994140625 l 1
 488.388671875 607.9921875 l 1
 405.888671875 607.9921875 l 1
 405.888671875 -179.994140625 l 1xb0
EndSplineSet
EndChar

StartChar: ordfeminine
Encoding: 170 170 122
Width: 402
Flags: W
HStem: 369.992 83<134.797 228.212 296.173 388.94> 525.492 69.25<137.448 248> 647.992 91<82.312 222.525>
VStem: 22.5 109.5<457.459 515.65> 236 110.5<466.297 486.992 581.242 634.142> 236 37<415.492 483.742> 236 12<525.492 594.742>
LayerCount: 2
Fore
SplineSet
236 498.7421875 m 1xf2
 236 471.079396802 211.962962963 452.9921875 177 452.9921875 c 0
 145.170731707 452.9921875 132 466.153477823 132 486.9921875 c 0
 132 518.4921875 160.186915888 525.4921875 248 525.4921875 c 1
 248 594.7421875 l 1xf2
 116.542600897 594.7421875 22.5 578.640492585 22.5 475.9921875 c 0
 22.5 411.9921875 68.5 369.9921875 142.5 369.9921875 c 0
 231.19921875 369.9921875 273 415.4921875 273 483.7421875 c 1xf4
 236 498.7421875 l 1xf2
236 581.2421875 m 2xf8
 236 459.9921875 l 2xf4
 236 398.9921875 265.845744681 369.9921875 326.5 369.9921875 c 0
 371.964788732 369.9921875 393.75 386.9921875 393.75 386.9921875 c 1
 387.75 462.9921875 l 1
 387.75 462.9921875 380.289473684 458.9921875 367.5 458.9921875 c 0
 352.5 458.9921875 346.5 466.296535326 346.5 486.9921875 c 2
 346.5 595.9921875 l 2
 346.5 682.197861259 299.353125 738.9921875 186 738.9921875 c 0
 104.482142857 738.9921875 48.5 705.9921875 48.5 705.9921875 c 1
 76.5 622.7421875 l 1
 76.5 622.7421875 113.741379311 647.9921875 166.5 647.9921875 c 0
 214.701612903 647.9921875 236 627.536542338 236 581.2421875 c 2xf8
EndSplineSet
EndChar

StartChar: ordmasculine
Encoding: 186 186 123
Width: 418
Flags: W
HStem: 367.992 101<154.694 263.69> 637.992 101<154.102 264.073>
VStem: 25.5 109.5<490.047 618.696> 283 109.5<487.172 618.696>
LayerCount: 2
Fore
SplineSet
135 554.9921875 m 0
 135 502.694890202 157.2 468.9921875 209 468.9921875 c 0
 261.857142857 468.9921875 283 502.694890202 283 554.9921875 c 0
 283 604.09077905 260.8 637.9921875 209 637.9921875 c 0
 157.2 637.9921875 135 604.09077905 135 554.9921875 c 0
25.5 555.9921875 m 0
 25.5 667.025895365 95.5456989247 738.9921875 209 738.9921875 c 0
 323.440860215 738.9921875 392.5 667.025895365 392.5 555.9921875 c 0
 392.5 441.959400615 323.440860215 367.9921875 209 367.9921875 c 0
 95.5456989247 367.9921875 25.5 441.959400615 25.5 555.9921875 c 0
EndSplineSet
EndChar

StartChar: arrowleft
Encoding: 8592 8592 124
Width: 550
Flags: W
HStem: 292.14 133<257.399 537.749> 302.14 113<137.249 417.599>
LayerCount: 2
Fore
SplineSet
537.749023438 292.139648438 m 1x80
 137.249023438 302.139648438 l 1
 137.249023438 415.139648438 l 1x40
 537.749023438 425.139648438 l 1
 537.749023438 292.139648438 l 1x80
152.561523438 358.638671875 m 1
 315.348632812 214.6171875 l 1
 224.510742188 123.779296875 l 1
 12.2509765625 358.638671875 l 1
 224.510742188 593.5 l 1
 315.348632812 502.66015625 l 1
 152.561523438 358.638671875 l 1
EndSplineSet
EndChar

StartChar: product
Encoding: 8719 8719 128
Width: 719
Flags: W
HStem: 593.758 137.25<216.5 502.5>
VStem: 57.5 159<-179.994 593.758> 502.5 159<-179.994 593.758>
LayerCount: 2
Fore
SplineSet
661.5 731.0078125 m 1
 661.5 -179.994140625 l 1
 502.5 -179.994140625 l 1
 502.5 593.7578125 l 1
 216.5 593.7578125 l 1
 216.5 -179.994140625 l 1
 57.5 -179.994140625 l 1
 57.5 731.0078125 l 1
 661.5 731.0078125 l 1
EndSplineSet
EndChar

StartChar: summation
Encoding: 8721 8721 129
Width: 634
Flags: W
HStem: -179.994 137<233.75 601.5> 594.008 137<253.75 601.5>
LayerCount: 2
Back
SplineSet
264 585.0078125 m 5
 394 410 l 5
 394 319 l 5
 244 146 l 5
 544 146 l 5
 544 0 l 5
 55 0 l 5
 55 161 l 5
 235 358 l 5
 55 589 l 5
 55 731.0078125 l 5
 544 731.0078125 l 5
 544 585.0078125 l 5
 264 585.0078125 l 5
EndSplineSet
Fore
SplineSet
253.75 594.0078125 m 1
 433.75 330 l 1
 433.75 239 l 1
 233.75 -42.994140625 l 1
 601.5 -42.994140625 l 1
 601.5 -179.994140625 l 1
 57.5 -179.994140625 l 1
 57.5 -27.994140625 l 1
 285 278 l 1
 57.5 598 l 1
 57.5 731.0078125 l 1
 601.5 731.0078125 l 1
 601.5 594.0078125 l 1
 253.75 594.0078125 l 1
EndSplineSet
EndChar

StartChar: approxequal
Encoding: 8776 8776 130
Width: 450
VWidth: 999
Flags: W
HStem: 182 120<238.37 363.678> 231 119<88.9608 212.036> 372 120<238.37 363.678> 421 119<88.9608 212.036>
LayerCount: 2
Fore
SplineSet
438 255 m 1x80
 438 255 386.065429688 182 306 182 c 0x80
 228.461914062 182 202.615234375 231 146 231 c 0
 106.072463768 231 73.5 195.75 73.5 195.75 c 1
 12 292.5 l 1
 12 292.5 69.3447265625 350 144 350 c 0x40
 220.665309143 350 252.815309144 302 304.75 302 c 0
 350.396153846 302 373.75 333.5 373.75 333.5 c 1
 438 255 l 1x80
438 445 m 1
 438 445 386.065429688 372 306 372 c 0x20
 228.461914062 372 202.615234375 421 146 421 c 0
 106.072463768 421 73.5 385.75 73.5 385.75 c 1
 12 482.5 l 1
 12 482.5 69.3447265625 540 144 540 c 0x10
 220.665309143 540 252.815309144 492 304.75 492 c 0x20
 350.396153846 492 373.75 523.5 373.75 523.5 c 1
 438 445 l 1
EndSplineSet
EndChar

StartChar: perthousand
Encoding: 8240 8240 131
Width: 1263
Flags: W
HStem: -9.99805 110.53<668.925 778.817 976.373 1086.27> 0 21G<193.5 329.675> 266.322 110.529<668.925 778.817 976.373 1086.27> 352.143 110.529<177.36 286.203> 628.462 110.53<177.36 286.203> 711.008 20G<626.325 762.5>
VStem: 37.5 120.41<483.114 608.911> 307.16 118.3<483.753 608.289> 528.5 119.41<121.612 246.149> 800.66 154.75<124.115 244.365> 847.25 60.46<77.8175 290.256> 1108.16 118.3<121.612 246.149>
LayerCount: 2
Fore
SplineSet
955.41015625 183.981445312 m 0xa3d0
 955.41015625 124.115434684 989.529296875 100.532226562 1031.23046875 100.532226562 c 0
 1072.51009348 100.532226562 1108.16015625 124.115434684 1108.16015625 183.981445312 c 0
 1108.16015625 244.365259227 1072.51009348 266.322265625 1031.23046875 266.322265625 c 0
 989.529296875 266.322265625 955.41015625 244.365259227 955.41015625 183.981445312 c 0xa3d0
847.25 183.981445312 m 0xa3b0
 847.25 290.256245438 918.026318766 376.8515625 1041.23046875 376.8515625 c 0
 1165.18499149 376.8515625 1226.45996094 290.256245438 1226.45996094 183.981445312 c 0
 1226.45996094 77.8174560323 1165.18499149 -9.998046875 1041.23046875 -9.998046875 c 0
 918.026318766 -9.998046875 847.25 77.8174560323 847.25 183.981445312 c 0xa3b0
647.91015625 183.981445312 m 0
 647.91015625 124.115199812 682.028866518 100.532226562 723.73046875 100.532226562 c 0
 765.010022885 100.532226562 800.66015625 124.115199812 800.66015625 183.981445312 c 0xa3d0
 800.66015625 244.365133492 765.010022885 266.322265625 723.73046875 266.322265625 c 0
 682.028866518 266.322265625 647.91015625 244.365133492 647.91015625 183.981445312 c 0
528.5 183.981445312 m 0
 528.5 290.256670854 589.774971618 376.8515625 713.73046875 376.8515625 c 0
 836.933646705 376.8515625 907.709960938 290.256245438 907.709960938 183.981445312 c 0xa3b0
 907.709960938 77.8174560323 836.933646705 -9.998046875 713.73046875 -9.998046875 c 0
 589.774971618 -9.998046875 528.5 77.8171513741 528.5 183.981445312 c 0
157.91015625 546.122070312 m 0
 157.91015625 486.255876656 191.016379289 462.671875 231.48046875 462.671875 c 0
 272.089287771 462.671875 307.16015625 486.255876656 307.16015625 546.122070312 c 0
 307.16015625 606.504762379 272.089287771 628.461914062 231.48046875 628.461914062 c 0x1b90
 191.016379289 628.461914062 157.91015625 606.504762379 157.91015625 546.122070312 c 0
37.5 546.122070312 m 0
 37.5 652.397295854 108.276520241 738.9921875 231.48046875 738.9921875 c 0
 354.683426366 738.9921875 425.459960938 652.397295854 425.459960938 546.122070312 c 0
 425.459960938 439.957776374 354.683426366 352.142578125 231.48046875 352.142578125 c 0
 108.276520241 352.142578125 37.5 439.957776374 37.5 546.122070312 c 0
EndSplineSet
Refer: 138 8260 N 1 0 0 1 301 0 2
EndChar

StartChar: uni2031
Encoding: 8241 8241 132
Width: 1573
Flags: W
HStem: -9.99805 110.53<668.925 778.817 977.509 1087.68 1286.37 1396.27> 0 21G<193.5 329.675> 266.322 110.529<668.925 778.817 977.509 1087.68 1286.37 1396.27> 352.143 110.529<177.36 286.203> 628.462 110.53<177.36 286.203> 711.008 20G<626.325 762.5>
VStem: 37.5 120.41<483.114 608.911> 307.16 118.3<483.753 608.289> 528.5 119.41<121.612 246.149> 800.66 156<124.115 244.365> 846 61.71<77.8175 290.256> 1109.41 156<124.115 244.365> 1157.25 61.71<77.8175 290.256> 1418.16 118.3<121.612 246.149>
LayerCount: 2
Fore
SplineSet
1265.41015625 183.981445312 m 0xa394
 1265.41015625 124.115434684 1299.52929688 100.532226562 1341.23046875 100.532226562 c 0
 1382.51009348 100.532226562 1418.16015625 124.115434684 1418.16015625 183.981445312 c 0
 1418.16015625 244.365259227 1382.51009348 266.322265625 1341.23046875 266.322265625 c 0
 1299.52929688 266.322265625 1265.41015625 244.365259227 1265.41015625 183.981445312 c 0xa394
1157.25 183.981445312 m 0xa38c
 1157.25 290.256245438 1228.02631876 376.8515625 1351.23046875 376.8515625 c 0
 1475.18499149 376.8515625 1536.45996094 290.256245438 1536.45996094 183.981445312 c 0
 1536.45996094 77.8174560323 1475.18499149 -9.998046875 1351.23046875 -9.998046875 c 0
 1228.02631876 -9.998046875 1157.25 77.8174560323 1157.25 183.981445312 c 0xa38c
956.66015625 183.981445312 m 0xa3d4
 956.66015625 124.115434684 990.779296875 100.532226562 1032.48046875 100.532226562 c 0
 1073.76009348 100.532226562 1109.41015625 124.115434684 1109.41015625 183.981445312 c 0
 1109.41015625 244.365259227 1073.76009348 266.322265625 1032.48046875 266.322265625 c 0
 990.779296875 266.322265625 956.66015625 244.365259227 956.66015625 183.981445312 c 0xa3d4
846 183.981445312 m 0xa3ac
 846 290.256245438 907.688476562 376.8515625 1032.48046875 376.8515625 c 0
 1157.27148438 376.8515625 1218.95996094 290.256245438 1218.95996094 183.981445312 c 0
 1218.95996094 77.8174560323 1157.27148438 -9.998046875 1032.48046875 -9.998046875 c 0
 907.688476562 -9.998046875 846 77.8174560323 846 183.981445312 c 0xa3ac
647.91015625 183.981445312 m 0
 647.91015625 124.115199812 682.028866518 100.532226562 723.73046875 100.532226562 c 0
 765.010022885 100.532226562 800.66015625 124.115199812 800.66015625 183.981445312 c 0xa3c4
 800.66015625 244.365133492 765.010022885 266.322265625 723.73046875 266.322265625 c 0
 682.028866518 266.322265625 647.91015625 244.365133492 647.91015625 183.981445312 c 0
528.5 183.981445312 m 0
 528.5 290.256670854 589.774971618 376.8515625 713.73046875 376.8515625 c 0
 836.933646705 376.8515625 907.709960938 290.256245438 907.709960938 183.981445312 c 0xa3a4
 907.709960938 77.8174560323 836.933646705 -9.998046875 713.73046875 -9.998046875 c 0
 589.774971618 -9.998046875 528.5 77.8171513741 528.5 183.981445312 c 0
157.91015625 546.122070312 m 0
 157.91015625 486.255876656 191.016379289 462.671875 231.48046875 462.671875 c 0
 272.089287771 462.671875 307.16015625 486.255876656 307.16015625 546.122070312 c 0
 307.16015625 606.504762379 272.089287771 628.461914062 231.48046875 628.461914062 c 0x1b84
 191.016379289 628.461914062 157.91015625 606.504762379 157.91015625 546.122070312 c 0
37.5 546.122070312 m 0
 37.5 652.397295854 108.276520241 738.9921875 231.48046875 738.9921875 c 0
 354.683426366 738.9921875 425.459960938 652.397295854 425.459960938 546.122070312 c 0
 425.459960938 439.957776374 354.683426366 352.142578125 231.48046875 352.142578125 c 0
 108.276520241 352.142578125 37.5 439.957776374 37.5 546.122070312 c 0
EndSplineSet
Refer: 138 8260 N 1 0 0 1 301 0 2
EndChar

StartChar: uni203D
Encoding: 8253 8253 133
Width: 566
Flags: W
HStem: -10 176.449<177.229 298.77> 290.195 116.854<222.549 341.477> 601.979 137.014<114.664 364.695>
VStem: 150.387 175.227<17.0298 139.419> 165 148<582.479 791.008> 212.423 81.5771<297.5 411.469> 375.596 153.774<440.297 560.6>
LayerCount: 2
Fore
SplineSet
184 225 m 1xe6
 165 791.0078125 l 1
 313 791.0078125 l 1xea
 294 225 l 1
 184 225 l 1xe6
150.38671875 78.224609375 m 0xf2
 150.38671875 131.672113192 184.921681304 166.44921875 237.999023438 166.44921875 c 0
 291.077353291 166.44921875 325.61328125 131.672113192 325.61328125 78.224609375 c 0
 325.61328125 24.7761813724 291.077353291 -10 237.999023438 -10 c 0
 184.921681304 -10 150.38671875 24.7761813724 150.38671875 78.224609375 c 0xf2
212.422851562 297.5 m 1xe6
 216.65625 411.46875 l 1
 216.65625 411.46875 234.941385236 407.048828125 257.8984375 407.048828125 c 0
 337.505792549 407.048828125 375.595703125 439.549733176 375.595703125 500.145507812 c 0
 375.595703125 570.770415691 319.877899605 601.978515625 227.64453125 601.978515625 c 0
 140.048202901 601.978515625 65.923828125 558.958007812 65.923828125 558.958007812 c 1
 20.2412109375 692.811523438 l 1
 20.2412109375 692.811523438 101.0703125 738.9921875 229.89453125 738.9921875 c 0
 409.51131459 738.9921875 529.370117188 667.831925825 529.370117188 502.010742188 c 0
 529.370117188 363.254435921 424.844134763 290.1953125 282.5 290.1953125 c 0
 228.428947748 290.1953125 212.422851562 297.5 212.422851562 297.5 c 1xe6
EndSplineSet
EndChar

StartChar: lira
Encoding: 8356 8356 134
Width: 553
Flags: W
HStem: 0 136<210.319 523> 215 86<52.5 424> 345 86<52.5 424> 601.371 138.091<246.296 453.308>
VStem: 58.1016 163.229<451.344 575.966> 139.324 143.907<249.017 344.139>
LayerCount: 2
Fore
SplineSet
523 0 m 1xf4
 30 0 l 1
 30 120 l 1
 30 120 139.32421875 195.513671875 139.32421875 304.379882812 c 0xf4
 139.32421875 400.641455788 58.1015625 425.674478682 58.1015625 547.185546875 c 0
 58.1015625 671.398535433 160.002676863 739.461914062 305.30859375 739.461914062 c 0
 442.446738318 739.461914062 503.70703125 703.405273438 503.70703125 703.405273438 c 1
 474.9375 569.774414062 l 1
 474.9375 569.774414062 422.550848484 601.37109375 335.55859375 601.37109375 c 0
 272.970626655 601.37109375 221.330078125 587.682141513 221.330078125 518.524414062 c 0xf8
 221.330078125 450.560936995 283.231445312 412.61827973 283.231445312 312.658203125 c 0
 283.231445312 203.192600859 210.319335938 136 210.319335938 136 c 1
 523 136 l 1
 523 0 l 1xf4
424 215 m 1
 52.5 215 l 1
 52.5 301 l 1
 424 301 l 1
 424 215 l 1
424 345 m 1
 52.5 345 l 1
 52.5 431 l 1
 424 431 l 1
 424 345 l 1
EndSplineSet
EndChar

StartChar: uni20B5
Encoding: 8373 8373 135
Width: 623
Flags: W
HStem: -9.99805 79.4678<310 439> 655 84.1211<310 439>
VStem: 37.5 164.849<242.581 486.542> 310 129<-105 69.4697 655 829.47>
LayerCount: 2
Fore
SplineSet
37.5 364.561523438 m 0
 37.5 591.206054688 163.687351146 739.12109375 385.888671875 739.12109375 c 0
 537.397841668 739.12109375 599.681640625 672.891601562 599.681640625 672.891601562 c 1
 540.85546875 545.138671875 l 1
 540.85546875 545.138671875 494.459593639 596.659179688 400.388671875 596.659179688 c 0
 261.660876936 596.659179688 202.348632812 503.739699229 202.348632812 364.561523438 c 0
 202.348632812 225.383347645 261.660876936 132.463867188 400.388671875 132.463867188 c 0
 503.765687491 132.463867188 558.518554688 178.595703125 558.518554688 178.595703125 c 1
 602.827148438 44.595703125 l 1
 602.827148438 44.595703125 536.561329272 -9.998046875 385.888671875 -9.998046875 c 0
 163.687351146 -9.998046875 37.5 137.916992188 37.5 364.561523438 c 0
310 -105 m 1
 310 69.4697265625 l 1
 439 69.4697265625 l 1
 439 -105 l 1
 310 -105 l 1
310 655 m 1
 310 829.469726562 l 1
 439 829.469726562 l 1
 439 655 l 1
 310 655 l 1
EndSplineSet
EndChar

StartChar: uni20B2
Encoding: 8370 8370 136
Width: 739
Flags: W
HStem: -9.99805 79.4678<310 439> 288.75 130.25<371 488.019 635.827 711.5> 288.75 20.8457<488.019 635.827> 655 84.1211<310 439>
VStem: 37.5 164.849<228.907 490.869> 310 129<-105 69.4697 655 829.47> 504.731 145.501<175.567 288.364>
LayerCount: 2
Fore
SplineSet
310 -105 m 1x9e
 310 69.4697265625 l 1
 439 69.4697265625 l 1
 439 -105 l 1
 310 -105 l 1x9e
310 655 m 1
 310 829.469726562 l 1
 439 829.469726562 l 1
 439 655 l 1
 310 655 l 1
711.5 288.75 m 1xde
 371 288.75 l 1
 371 419 l 1
 711.5 419 l 1
 711.5 288.75 l 1xde
37.5 364.561523438 m 0
 37.5 591.206054688 166.674909194 739.12109375 378.888671875 739.12109375 c 0
 533.586605758 739.12109375 597.181640625 672.891601562 597.181640625 672.891601562 c 1
 540.60546875 544.388671875 l 1
 540.60546875 544.388671875 490.493764731 595.909179688 388.888671875 595.909179688 c 0
 258.216284011 595.909179688 202.348632812 503.289959092 202.348632812 364.561523438 c 0
 202.348632812 225.383347645 247.245774324 132.463867188 369.888671875 132.463867188 c 0
 466.191045775 132.463867188 504.731445312 178.261303097 504.731445312 247 c 0
 504.731445312 290.779622573 488.018554688 309.595703125 488.018554688 309.595703125 c 1
 635.827148438 309.595703125 l 1xbe
 635.827148438 309.595703125 650.232421875 289.078597619 650.232421875 222 c 0
 650.232421875 93.0859042083 560.007942728 -9.998046875 369.888671875 -9.998046875 c 0
 158.173546932 -9.998046875 37.5 137.916992188 37.5 364.561523438 c 0
EndSplineSet
EndChar

StartChar: uni20BA
Encoding: 8378 8378 137
Width: 648
Flags: W
HStem: 0 137.25<256.5 380.496> 711.008 20G<97.5 256.5>
VStem: 97.5 159<137.25 731.008>
LayerCount: 2
Fore
SplineSet
394 353.75 m 1
 32.5 246.25 l 1
 32.5 332.25 l 1
 394 439.75 l 1
 394 353.75 l 1
394 483.75 m 1
 32.5 376.25 l 1
 32.5 462.25 l 1
 394 569.75 l 1
 394 483.75 l 1
256.5 137.25 m 1
 300 137.25 l 2
 473.396739131 137.25 477.25 318.75 477.25 318.75 c 1
 622.75 296.5 l 1
 622.75 296.5 613.94688487 -3.74214548237e-14 300 0 c 2
 97.5 0 l 1
 97.5 731.0078125 l 1
 256.5 731.0078125 l 1
 256.5 137.25 l 1
EndSplineSet
EndChar

StartChar: fraction
Encoding: 8260 8260 138
Width: 304
Flags: W
HStem: 0 21G<-107.5 28.675> 711.008 20G<325.325 461.5>
LayerCount: 2
Fore
SplineSet
-107.5 0 m 1
 337.5 731.0078125 l 1
 461.5 731.0078125 l 1
 16.5 0 l 1
 -107.5 0 l 1
EndSplineSet
EndChar

StartChar: endash
Encoding: 8211 8211 139
Width: 570
Flags: W
HStem: 213.75 131.5<32.5 537.5>
LayerCount: 2
Fore
SplineSet
32.5 213.75 m 1
 32.5 345.25 l 1
 537.5 345.25 l 1
 537.5 213.75 l 1
 32.5 213.75 l 1
EndSplineSet
EndChar

StartChar: emdash
Encoding: 8212 8212 140
Width: 820
Flags: W
HStem: 213.75 131.5<27.5 792.5>
LayerCount: 2
Fore
SplineSet
27.5 213.75 m 1
 27.5 345.25 l 1
 792.5 345.25 l 1
 792.5 213.75 l 1
 27.5 213.75 l 1
EndSplineSet
EndChar

StartChar: Euro
Encoding: 8364 8364 141
Width: 683
Flags: W
HStem: -9.99805 142.462<365.056 574.225> 260 86<32.5 449.957> 390 86<32.5 472.879> 596.659 142.462<364.429 557.264>
LayerCount: 2
Fore
SplineSet
449.95703125 260 m 1
 32.5 260 l 1
 32.5 346 l 1
 465.12109375 346 l 1
 449.95703125 260 l 1
472.87890625 390 m 1
 32.5 390 l 1
 32.5 476 l 1
 488.04296875 476 l 1
 472.87890625 390 l 1
97.5 364.561523438 m 0
 97.5 591.206054688 223.687267051 739.12109375 445.888671875 739.12109375 c 0
 597.397460938 739.12109375 659.681640625 672.891601562 659.681640625 672.891601562 c 1
 600.85546875 545.138671875 l 1
 600.85546875 545.138671875 554.459122982 596.659179688 460.388671875 596.659179688 c 0
 321.660559037 596.659179688 262.348632812 503.739699229 262.348632812 364.561523438 c 0
 262.348632812 225.383347645 322.409295587 132.463867188 462.888671875 132.463867188 c 0
 564.631084713 132.463867188 618.518554688 178.595703125 618.518554688 178.595703125 c 1
 662.827148438 44.595703125 l 1
 662.827148438 44.595703125 596.561523438 -9.998046875 445.888671875 -9.998046875 c 0
 223.687267051 -9.998046875 97.5 137.916992188 97.5 364.561523438 c 0
EndSplineSet
EndChar

StartChar: uni20AD
Encoding: 8365 8365 142
Width: 665
Flags: W
HStem: 0 21G<93.5 252.5 446.838 652.5> 297.5 116<27.5 611.5> 711.008 20G<93.5 252.5 444.864 642.5>
VStem: 93.5 159<0 311 401 731.008> 233.5 19<311 401>
LayerCount: 2
Fore
SplineSet
611.5 297.5 m 1xe0
 27.5 297.5 l 1
 27.5 413.5 l 1
 611.5 413.5 l 1
 611.5 297.5 l 1xe0
461.5 0 m 1
 233.5 311 l 1
 233.5 401 l 1xe8
 458.5 731.0078125 l 1
 642.5 731.0078125 l 1
 373.5 372 l 1
 652.5 0 l 1
 461.5 0 l 1
93.5 0 m 1xf0
 93.5 731.0078125 l 1
 252.5 731.0078125 l 1
 252.5 0 l 1
 93.5 0 l 1xf0
EndSplineSet
EndChar

StartChar: uni20B9
Encoding: 8377 8377 143
Width: 574
Flags: W
HStem: 0 21G<334.045 502.5> 260 133.102<32.5 256.743> 450 86<32.5 541.5> 593.149 137.858<32.5 264.184>
VStem: 303.429 159.849<398.703 613.731>
LayerCount: 2
Fore
SplineSet
144 260 m 2
 32.5 260 l 1
 32.5 393.1015625 l 1
 166.888671875 393.211914062 l 2
 244.853874106 393.273999465 303.428710938 410.986055544 303.428710938 492.061523438 c 0
 303.428710938 574.164278889 244.824486476 592.988790755 167.888671875 593.045898438 c 2
 32.5 593.149414062 l 1
 32.5 731.0078125 l 1
 183.888671875 731.0078125 l 2
 330.686437742 731.0078125 463.27734375 669.334960938 463.27734375 504.561523438 c 0
 463.27734375 370.325734629 350.688476562 331.276367188 350.688476562 331.276367188 c 1
 350.688476562 331.276367188 412.167485598 313.529490915 444.723144531 200.534179687 c 2
 502.5 0 l 1
 339.5 0 l 1
 294.5 165 l 2
 271.024190003 251.077969991 246.806338029 260 144 260 c 2
541.5 450 m 1
 32.5 450 l 1
 32.5 536 l 1
 541.5 536 l 1
 541.5 450 l 1
EndSplineSet
EndChar

StartChar: uni20B4
Encoding: 8372 8372 144
Width: 677
Flags: W
HStem: -10 135.712<258.706 489.213> 255 86<32.5 644.5> 385 86<32.5 644.5> 602.409 136.712<187.964 396.995>
VStem: 75 153.932<154.385 252.04> 424.331 160.062<476.455 573.446>
LayerCount: 2
Fore
SplineSet
644.5 255 m 1
 32.5 255 l 1
 32.5 341 l 1
 644.5 341 l 1
 644.5 255 l 1
644.5 385 m 1
 32.5 385 l 1
 32.5 471 l 1
 644.5 471 l 1
 644.5 385 l 1
343.238525391 292.76953125 m 0
 246.576314403 266.921597792 228.931640625 243.334369926 228.931640625 201.5 c 0
 228.931640625 151.492936886 271.470999595 125.711914062 360.823242188 125.711914062 c 0
 468.623074337 125.711914062 556.546875 174.482421875 556.546875 174.482421875 c 1
 593.703125 42.2294921875 l 1
 593.703125 42.2294921875 496.331054688 -10 342.71484375 -10 c 0
 168.206486423 -10 75 74.5130703213 75 210.25 c 0
 75 325.106981354 130.248046875 387.833740234 311.522460938 435.831054688 c 0
 400.364052689 459.624530899 424.331054688 482.412954029 424.331054688 525.5 c 0
 424.331054688 572.970946271 386.897892329 602.409179688 303.65625 602.409179688 c 0
 207.729746457 602.409179688 142.6484375 559.888671875 142.6484375 559.888671875 c 1
 100.274414062 688.891601562 l 1
 100.274414062 688.891601562 171.28063299 739.12109375 317.286132812 739.12109375 c 0
 483.324856112 739.12109375 584.392578125 652.506938999 584.392578125 518 c 0
 584.392578125 405.999093173 523.891601562 341.250244141 343.238525391 292.76953125 c 0
EndSplineSet
EndChar

StartChar: colonmonetary
Encoding: 8353 8353 145
Width: 623
Flags: W
HStem: -9.99805 79.4678<165.878 262.378 323.378 419.878> 596.659 142.462<272.544 425.88> 655 84.1211<269.122 365.622 426.622 523.122>
VStem: 37.5 164.849<244.991 486.542>
LayerCount: 2
Fore
SplineSet
292.614257812 -105 m 1x90
 323.377929688 69.4697265625 l 1
 419.877929688 69.4697265625 l 1
 389.114257812 -105 l 1
 292.614257812 -105 l 1x90
426.622070312 655 m 1xb0
 457.385742188 829.469726562 l 1
 553.885742188 829.469726562 l 1
 523.122070312 655 l 1
 426.622070312 655 l 1xb0
37.5 364.561523438 m 0
 37.5 591.206054688 163.687351146 739.12109375 385.888671875 739.12109375 c 0
 537.397841668 739.12109375 599.681640625 672.891601562 599.681640625 672.891601562 c 1
 540.85546875 545.138671875 l 1
 540.85546875 545.138671875 494.459593639 596.659179688 400.388671875 596.659179688 c 0xd0
 261.660876936 596.659179688 202.348632812 503.739699229 202.348632812 364.561523438 c 0
 202.348632812 225.383347645 262.409617498 132.463867188 402.888671875 132.463867188 c 0
 504.631318741 132.463867188 558.518554688 178.595703125 558.518554688 178.595703125 c 1
 602.827148438 44.595703125 l 1
 602.827148438 44.595703125 536.561329272 -9.998046875 385.888671875 -9.998046875 c 0
 163.687351146 -9.998046875 37.5 137.916992188 37.5 364.561523438 c 0
135.114257812 -105 m 1
 165.877929688 69.4697265625 l 1
 262.377929688 69.4697265625 l 1
 231.614257812 -105 l 1
 135.114257812 -105 l 1
269.122070312 655 m 1xb0
 299.885742188 829.469726562 l 1
 396.385742188 829.469726562 l 1
 365.622070312 655 l 1
 269.122070312 655 l 1xb0
EndSplineSet
EndChar

StartChar: zero.inferior
Encoding: 8320 8320 148
Width: 455
Flags: W
HStem: -358 102.688<172.797 283.007> 40.3125 102.688<172.797 283.007>
VStem: 22.125 110.688<-211.888 -3.79529> 322.062 110.688<-211.888 -3.79529>
LayerCount: 2
Fore
SplineSet
132.8125 -108 m 0
 132.8125 -197 161.625 -255.3125 228 -255.3125 c 0
 294.375 -255.3125 322.0625 -197 322.0625 -108 c 0
 322.0625 -19 294.375 40.3125 228 40.3125 c 0
 161.625 40.3125 132.8125 -19 132.8125 -108 c 0
22.125 -108 m 0
 22.125 44 93.4375 143 228 143 c 0
 362.5625 143 432.75 44 432.75 -108 c 0
 432.75 -260 362.5625 -358 228 -358 c 0
 93.4375 -358 22.125 -260 22.125 -108 c 0
EndSplineSet
EndChar

StartChar: one.inferior
Encoding: 8321 8321 149
Width: 277
Flags: W
VStem: 127.188 114.688<-350 20.625>
LayerCount: 2
Fore
SplineSet
241.875 137 m 1
 241.875 -350 l 1
 127.1875 -350 l 1
 127.1875 20.625 l 1
 39.25 -26.25 l 1
 6.1875 57 l 1
 138.1875 137 l 1
 241.875 137 l 1
EndSplineSet
EndChar

StartChar: two.inferior
Encoding: 8322 8322 150
Width: 404
Flags: W
HStem: -350 98.5<151.25 385.75> 41.5 101.5<99.3167 254.552>
VStem: 268.062 112.688<-60.334 27.7001>
LayerCount: 2
Fore
SplineSet
268.0625 -16.625 m 0
 268.0625 20.0625 247.3125 41.5 187.9375 41.5 c 0
 121.6875 41.5 75.625 5.5 75.625 5.5 c 1
 41.625 101 l 1
 41.625 101 101.75 143 191 143 c 0
 309.5 143 380.75 92 380.75 -9 c 0
 380.75 -101.4375 335.625 -139.5 233 -188.875 c 0
 151.8125 -228 151.9375 -245.1875 151.25 -251.5 c 1
 385.75 -251.5 l 1
 385.75 -350 l 1
 31.5625 -350 l 1
 31.5625 -314 l 2
 31.5625 -207.6875 95.6875 -148.4375 208.9375 -86.3125 c 0
 256.1875 -61.25 268.0625 -39.75 268.0625 -16.625 c 0
EndSplineSet
EndChar

StartChar: three.inferior
Encoding: 8323 8323 151
Width: 388
Flags: W
HStem: -358 99.5625<64.9182 236.298> -146.562 89.125<112.125 230.291> 40.4375 102.562<64.7242 229.323>
VStem: 237.812 118<-48.0222 29.656> 250.125 116.75<-242.465 -160.768>
LayerCount: 2
Fore
SplineSet
160.375 -57.4375 m 2xe8
 219 -57.4375 237.8125 -40.75 237.8125 -8.4375 c 0
 237.8125 18.875 221.125 40.4375 163.9375 40.4375 c 0
 95.8125 40.4375 53.75 12.6875 53.75 12.6875 c 1
 24.6875 108.125 l 1
 24.6875 108.125 77.8125 143 169 143 c 0
 284.5 143 355.8125 95 355.8125 5 c 0xf0
 355.8125 -76 283.875 -100 283.875 -100 c 1
 283.875 -100 366.875 -123 366.875 -214 c 0
 366.875 -317 287.5 -358 168 -358 c 0
 68.6875 -358 9.5625 -323 9.5625 -323 c 1
 43.25 -224.5 l 1
 43.25 -224.5 89.1875 -258.4375 161 -258.4375 c 0
 222.375 -258.4375 250.125 -237.8125 250.125 -201.4375 c 0
 250.125 -164.1875 220.3125 -146.5625 161.4375 -146.5625 c 2
 112.125 -146.5625 l 1
 112.125 -57.4375 l 1
 160.375 -57.4375 l 2xe8
EndSplineSet
EndChar

StartChar: four.inferior
Encoding: 8324 8324 152
Width: 439
Flags: W
HStem: -240.625 92.25<140.625 419.812>
VStem: 240.062 110.688<-350 -20>
LayerCount: 2
Fore
SplineSet
350.75 137 m 1
 350.75 -350 l 1
 240.0625 -350 l 1
 240.0625 -20 l 1
 140.625 -148.375 l 1
 419.8125 -148.375 l 1
 419.8125 -240.625 l 1
 39.1875 -240.625 l 1
 19.0625 -161.8125 l 1
 241 137 l 1
 350.75 137 l 1
EndSplineSet
EndChar

StartChar: five.inferior
Encoding: 8325 8325 153
Width: 394
Flags: W
HStem: -357 100.438<59.6362 239.66> -117.062 88.0625<140.715 242.103> 40.625 96.375<146.75 343.062>
VStem: 259.625 112.625<-236.356 -132.819>
LayerCount: 2
Fore
SplineSet
177.3125 -357 m 0
 72.25 -357 9.125 -323 9.125 -323 c 1
 38.375 -224.6875 l 1
 38.375 -224.6875 94.1875 -256.5625 167.0625 -256.5625 c 0
 234 -256.5625 259.625 -230.125 259.625 -187.0625 c 0
 259.625 -143.75 235.9375 -117.0625 186.4375 -117.0625 c 0
 133.9375 -117.0625 116.125 -147.3125 116.125 -147.3125 c 1
 33.625 -128.375 l 1
 54.0625 137 l 1
 343.0625 137 l 1
 343.0625 40.625 l 1
 146.75 40.625 l 1
 139.0625 -52 l 1
 139.0625 -52 159 -29 222.8125 -29 c 0
 319.4375 -29 372.25 -87 372.25 -182.875 c 0
 372.25 -290.9375 306.25 -357 177.3125 -357 c 0
EndSplineSet
EndChar

StartChar: six.inferior
Encoding: 8326 8326 154
Width: 427
Flags: W
HStem: -358 94.25<160.602 280.546> -121.25 85<159.962 280.478> 45.6875 97.3125<173.951 337.815>
VStem: 22.125 120.688<-244.895 -45.0456> 298.125 106.688<-245.923 -138.866>
LayerCount: 2
Fore
SplineSet
142.8125 -192 m 0
 142.8125 -233.3125 165.5625 -263.75 219.9375 -263.75 c 0
 275.375 -263.75 298.125 -233.3125 298.125 -192 c 0
 298.125 -150.6875 275.375 -121.25 219.9375 -121.25 c 0
 165.5625 -121.25 142.8125 -150.6875 142.8125 -192 c 0
129.8125 -69.5625 m 1
 129.8125 -69.5625 155.6875 -36.25 239.5625 -36.25 c 0
 340.75 -36.25 404.8125 -99.125 404.8125 -191 c 0
 404.8125 -298 334.5 -358 221 -358 c 0
 96.5 -358 22.125 -285 22.125 -107 c 0
 22.125 54 101.5625 143 243.375 143 c 0
 342.6875 143 392.875 102 392.875 102 c 1
 354 13.6875 l 1
 354 13.6875 316.0625 45.6875 248.3125 45.6875 c 0
 172.625 45.6875 133.75 5.3125 129.8125 -69.5625 c 1
EndSplineSet
EndChar

StartChar: seven.inferior
Encoding: 8327 8327 155
Width: 402
Flags: W
HStem: 38.5 98.5<26.1875 245.438>
VStem: 105.188 114.625<-350 -216.571>
LayerCount: 2
Fore
SplineSet
219.8125 -350 m 1
 105.1875 -350 l 1
 112.125 -135.8125 245.4375 38.5 245.4375 38.5 c 1
 26.1875 38.5 l 1
 26.1875 137 l 1
 376.8125 137 l 1
 376.8125 67 l 1
 376.8125 67 221.8125 -113 219.8125 -350 c 1
EndSplineSet
EndChar

StartChar: eight.inferior
Encoding: 8328 8328 156
Width: 436
Flags: W
HStem: -358 92.3125<149.672 287.569> -139.688 87.375<178.562 262.25> -111 40.4375<107.5 333.25> 49.6875 93.3125<162.059 277.033>
VStem: 22.125 109.688<-247.876 -157.899> 46.1875 105.625<-40.9628 38.0547> 287.75 105.625<-40.9628 38.0547> 304.75 109.688<-248.391 -157.391>
LayerCount: 2
Fore
SplineSet
218.875 -52.3125 m 0xd6
 262.25 -52.3125 287.75 -32.6875 287.75 -1.3125 c 0
 287.75 31.0625 263.25 49.6875 218.875 49.6875 c 0
 176.5 49.6875 151.8125 31.0625 151.8125 -1.3125 c 0
 151.8125 -32.6875 178.5625 -52.3125 218.875 -52.3125 c 0xd6
218.875 143 m 0
 328.25 143 393.375 93 393.375 12 c 0
 393.375 -68 333.25 -111 218.875 -111 c 0xb6
 107.5 -111 46.1875 -68 46.1875 12 c 0
 46.1875 93 111.5 143 218.875 143 c 0
218.8125 -265.6875 m 0
 275.1875 -265.6875 304.75 -243.0625 304.75 -201.6875 c 0
 304.75 -163.25 275.1875 -139.6875 218.8125 -139.6875 c 0
 162.4375 -139.6875 131.8125 -163.25 131.8125 -201.6875 c 0xd9
 131.8125 -243.0625 162.4375 -265.6875 218.8125 -265.6875 c 0
218.8125 -70.5625 m 0xb9
 345.25 -70.5625 414.4375 -121.75 414.4375 -212 c 0
 414.4375 -301 338.25 -358 218.8125 -358 c 0
 99.375 -358 22.125 -301 22.125 -212 c 0
 22.125 -121.75 92.375 -70.5625 218.8125 -70.5625 c 0xb9
EndSplineSet
EndChar

StartChar: nine.inferior
Encoding: 8329 8329 157
Width: 426
Flags: W
HStem: -358 97.3125<84.1833 250.927> -180.875 85<149.665 268.708> 46.625 96.375<149.742 267.429>
VStem: 22.125 108.75<-76.8143 28.4745> 286.25 118.625<-164.369 29.6081>
LayerCount: 2
Fore
SplineSet
286.25 -24.125 m 0
 286.25 17.1875 263.5 46.625 209.125 46.625 c 0
 153.6875 46.625 130.875 17.1875 130.875 -24.125 c 0
 130.875 -65.4375 153.6875 -95.875 209.125 -95.875 c 0
 263.5 -95.875 286.25 -65.4375 286.25 -24.125 c 0
290.8125 -144.375 m 1
 290.8125 -144.375 264.9375 -180.875 187.4375 -180.875 c 0
 86.25 -180.875 22.125 -115.875 22.125 -22.9375 c 0
 22.125 84.0625 92.5 143 206 143 c 0
 330.5 143 404.875 70 404.875 -108 c 0
 404.875 -269 325.4375 -358 183.625 -358 c 0
 84.3125 -358 34.125 -317 34.125 -317 c 1
 66.5625 -227.625 l 1
 66.5625 -227.625 105.5625 -260.6875 178.6875 -260.6875 c 0
 250.125 -260.6875 286.875 -219.25 290.8125 -144.375 c 1
EndSplineSet
EndChar

StartChar: zero.superior
Encoding: 8304 8304 158
Width: 455
Flags: W
HStem: 342 102.688<172.797 283.193> 740.312 102.688<172.797 283.193>
VStem: 22.125 110.688<488.112 696.205> 323.125 110.688<488.112 696.205>
LayerCount: 2
Fore
SplineSet
132.8125 592 m 0
 132.8125 503 161.625 444.6875 228 444.6875 c 0
 294.375 444.6875 323.125 503 323.125 592 c 0
 323.125 681 294.375 740.3125 228 740.3125 c 0
 161.625 740.3125 132.8125 681 132.8125 592 c 0
22.125 592 m 0
 22.125 744 93.4375 843 228 843 c 0
 362.5625 843 433.8125 744 433.8125 592 c 0
 433.8125 440 362.5625 342 228 342 c 0
 93.4375 342 22.125 440 22.125 592 c 0
EndSplineSet
EndChar

StartChar: one.superior
Encoding: 185 185 159
Width: 277
Flags: W
VStem: 127.188 114.688<350 720.625>
LayerCount: 2
Fore
SplineSet
241.875 837 m 1
 241.875 350 l 1
 127.1875 350 l 1
 127.1875 720.625 l 1
 39.25 673.75 l 1
 6.1875 757 l 1
 138.1875 837 l 1
 241.875 837 l 1
EndSplineSet
EndChar

StartChar: two.superior
Encoding: 178 178 160
Width: 404
Flags: W
HStem: 350 98.5<151.25 386.875> 741.5 101.5<100.965 257.487>
VStem: 269.188 112.688<640.21 727.7>
LayerCount: 2
Fore
SplineSet
269.1875 683.375 m 0
 269.1875 720.0625 248.375 741.5 189 741.5 c 0
 122.75 741.5 75.625 705.5 75.625 705.5 c 1
 41.625 799.9375 l 1
 41.625 799.9375 101.75 843 191 843 c 0
 309.5 843 381.875 792 381.875 691 c 0
 381.875 598.5625 335.625 560.5 233 511.125 c 0
 151.8125 472 151.9375 454.8125 151.25 448.5 c 1
 386.875 448.5 l 1
 386.875 350 l 1
 31.5625 350 l 1
 31.5625 386 l 2
 31.5625 492.3125 96.6875 551.5625 210 613.6875 c 0
 257.25 638.75 269.1875 660.25 269.1875 683.375 c 0
EndSplineSet
EndChar

StartChar: three.superior
Encoding: 179 179 161
Width: 388
Flags: W
HStem: 342 99.5625<64.9182 236.298> 553.438 89.125<112.125 230.291> 740.438 102.562<67.0899 229.323>
VStem: 237.812 118<651.978 729.656> 250.125 116.75<457.505 539.205>
LayerCount: 2
Fore
SplineSet
160.375 642.5625 m 2xe8
 219 642.5625 237.8125 659.25 237.8125 691.5625 c 0
 237.8125 718.875 221.125 740.4375 163.9375 740.4375 c 0
 95.8125 740.4375 53.75 711.625 53.75 711.625 c 1
 24.6875 807.0625 l 1
 24.6875 807.0625 77.8125 843 169 843 c 0
 284.5 843 355.8125 795 355.8125 705 c 0xf0
 355.8125 624 283.875 600 283.875 600 c 1
 283.875 600 366.875 576.9375 366.875 485.9375 c 0
 366.875 382.9375 287.5 342 168 342 c 0
 68.6875 342 9.5625 376 9.5625 376 c 1
 43.25 475.5 l 1
 43.25 475.5 89.1875 441.5625 161 441.5625 c 0
 222.375 441.5625 250.125 462.1875 250.125 498.5625 c 0
 250.125 535.8125 220.3125 553.4375 161.4375 553.4375 c 2
 112.125 553.4375 l 1
 112.125 642.5625 l 1
 160.375 642.5625 l 2xe8
EndSplineSet
EndChar

StartChar: four.superior
Encoding: 8308 8308 162
Width: 439
Flags: W
HStem: 459.375 92.25<140.625 419.812>
VStem: 240.062 110.688<350 679.062>
LayerCount: 2
Fore
SplineSet
350.75 837 m 1
 350.75 350 l 1
 240.0625 350 l 1
 240.0625 679.0625 l 1
 140.625 551.625 l 1
 419.8125 551.625 l 1
 419.8125 459.375 l 1
 39.1875 459.375 l 1
 19.0625 538.1875 l 1
 241 837 l 1
 350.75 837 l 1
EndSplineSet
EndChar

StartChar: five.superior
Encoding: 8309 8309 163
Width: 394
Flags: W
HStem: 343 100.438<59.6362 239.66> 582.938 88.0625<140.715 242.103> 740.625 96.375<146.75 343.062>
VStem: 259.625 112.625<463.644 567.181>
LayerCount: 2
Fore
SplineSet
177.3125 343 m 0
 72.25 343 9.125 377 9.125 377 c 1
 38.375 475.3125 l 1
 38.375 475.3125 94.1875 443.4375 167.0625 443.4375 c 0
 234 443.4375 259.625 469.875 259.625 512.9375 c 0
 259.625 556.25 235.9375 582.9375 186.4375 582.9375 c 0
 133.9375 582.9375 116.125 552.6875 116.125 552.6875 c 1
 33.625 571.625 l 1
 54.0625 837 l 1
 343.0625 837 l 1
 343.0625 740.625 l 1
 146.75 740.625 l 1
 139.0625 648 l 1
 139.0625 648 159 671 222.8125 671 c 0
 319.4375 671 372.25 613 372.25 517.125 c 0
 372.25 409.0625 306.25 343 177.3125 343 c 0
EndSplineSet
EndChar

StartChar: six.superior
Encoding: 8310 8310 164
Width: 427
Flags: W
HStem: 342 94.25<160.602 280.546> 578.75 85<159.962 280.478> 745.688 97.3125<173.951 337.162>
VStem: 22.125 120.688<455.105 654.954> 298.125 106.688<454.077 561.134>
LayerCount: 2
Fore
SplineSet
142.8125 508 m 0
 142.8125 466.6875 165.5625 436.25 219.9375 436.25 c 0
 275.375 436.25 298.125 466.6875 298.125 508 c 0
 298.125 549.3125 275.375 578.75 219.9375 578.75 c 0
 165.5625 578.75 142.8125 549.3125 142.8125 508 c 0
129.8125 629.4375 m 1
 129.8125 629.4375 155.6875 663.75 239.5625 663.75 c 0
 340.75 663.75 404.8125 600.875 404.8125 509 c 0
 404.8125 402 334.5 342 221 342 c 0
 96.5 342 22.125 415 22.125 593 c 0
 22.125 754 101.5625 843 243.375 843 c 0
 342.6875 843 392.875 802 392.875 802 c 1
 354 712.625 l 1
 354 712.625 316.0625 745.6875 248.3125 745.6875 c 0
 172.625 745.6875 133.75 705.375 129.8125 629.4375 c 1
EndSplineSet
EndChar

StartChar: seven.superior
Encoding: 8311 8311 165
Width: 402
Flags: W
HStem: 738.5 98.5<26.1875 245.438>
VStem: 105.188 114.625<350 483.429>
LayerCount: 2
Fore
SplineSet
219.8125 350 m 1
 105.1875 350 l 1
 112.125 564.1875 245.4375 738.5 245.4375 738.5 c 1
 26.1875 738.5 l 1
 26.1875 837 l 1
 376.8125 837 l 1
 376.8125 765.9375 l 1
 376.8125 765.9375 221.8125 587 219.8125 350 c 1
EndSplineSet
EndChar

StartChar: eight.superior
Encoding: 8312 8312 166
Width: 443
Flags: W
HStem: 342 92.3125<148.96 294.648> 560.312 87.375<179.625 267.562> 589 40.4375<108.562 338.562> 749.688 93.3125<163.449 284.33>
VStem: 22.125 109.688<452.654 541.579> 46.1875 105.625<660.869 737.677> 294.125 105.625<660.869 737.677> 311.125 109.688<452.124 542.101>
LayerCount: 2
Fore
SplineSet
222.0625 647.6875 m 0xd6
 267.5625 647.6875 294.125 667.3125 294.125 698.6875 c 0
 294.125 731.0625 268.5625 749.6875 222.0625 749.6875 c 0
 178.625 749.6875 151.8125 731.0625 151.8125 698.6875 c 0
 151.8125 667.3125 179.625 647.6875 222.0625 647.6875 c 0xd6
222.0625 843 m 0
 333.5625 843 399.75 793 399.75 712 c 0
 399.75 632 338.5625 589 222.0625 589 c 0xb6
 108.5625 589 46.1875 632 46.1875 712 c 0
 46.1875 793 112.5625 843 222.0625 843 c 0
222 434.3125 m 0
 279.4375 434.3125 311.125 456.9375 311.125 498.3125 c 0
 311.125 536.75 279.4375 560.3125 222 560.3125 c 0
 164.5625 560.3125 131.8125 536.75 131.8125 498.3125 c 0xd9
 131.8125 456.9375 164.5625 434.3125 222 434.3125 c 0
222 629.4375 m 0xb9
 350.5625 629.4375 420.8125 578.25 420.8125 488 c 0
 420.8125 399 342.5 342 222 342 c 0
 101.5 342 22.125 399 22.125 488 c 0
 22.125 578.25 93.4375 629.4375 222 629.4375 c 0xb9
EndSplineSet
EndChar

StartChar: nine.superior
Encoding: 8313 8313 167
Width: 426
Flags: W
HStem: 342 97.3125<84.1833 250.927> 519.125 85<149.665 268.708> 746.625 96.375<149.742 267.429>
VStem: 22.125 108.75<623.186 728.474> 286.25 118.625<535.631 729.608>
LayerCount: 2
Fore
SplineSet
286.25 675.875 m 0
 286.25 717.1875 263.5 746.625 209.125 746.625 c 0
 153.6875 746.625 130.875 717.1875 130.875 675.875 c 0
 130.875 634.5625 153.6875 604.125 209.125 604.125 c 0
 263.5 604.125 286.25 634.5625 286.25 675.875 c 0
290.8125 555.5625 m 1
 290.8125 555.5625 264.9375 519.125 187.4375 519.125 c 0
 86.25 519.125 22.125 584.125 22.125 677.0625 c 0
 22.125 784.0625 92.5 843 206 843 c 0
 330.5 843 404.875 770 404.875 592 c 0
 404.875 431 325.4375 342 183.625 342 c 0
 84.3125 342 34.125 383 34.125 383 c 1
 66.5625 472.375 l 1
 66.5625 472.375 105.5625 439.3125 178.6875 439.3125 c 0
 250.125 439.3125 286.875 480.6875 290.8125 555.5625 c 1
EndSplineSet
EndChar

StartChar: circumflex
Encoding: 710 710 168
Width: 362
Flags: W
HStem: 516 215.008
LayerCount: 2
Fore
SplineSet
271 516 m 1
 181 612.432617188 l 1
 91 516 l 1
 6 546 l 1
 116 731.0078125 l 1
 246 731.0078125 l 1
 356 546 l 1
 271 516 l 1
EndSplineSet
EndChar

StartChar: caron
Encoding: 711 711 169
Width: 362
Flags: W
HStem: 526 215.008
LayerCount: 2
Fore
SplineSet
91 741.0078125 m 1
 181 644.575195312 l 1
 271 741.0078125 l 1
 356 711.0078125 l 1
 246 526 l 1
 116 526 l 1
 6 711.0078125 l 1
 91 741.0078125 l 1
EndSplineSet
EndChar

StartChar: breve
Encoding: 728 728 170
Width: 322
VWidth: 999
Flags: W
HStem: 579.437 106.438<97.6021 225.218> 715 20G<50.069 74.9434 247.877 272.751>
VStem: 5 312.82
LayerCount: 2
Fore
SplineSet
161.41015625 579.436523438 m 0
 51.853515625 579.436523438 5 678.762695312 5 678.762695312 c 1
 74.943359375 735 l 1
 74.943359375 735 94.0546875 685.874023438 161.41015625 685.874023438 c 0
 228.765625 685.874023438 247.876953125 735 247.876953125 735 c 1
 317.8203125 678.762695312 l 1
 317.8203125 678.762695312 270.966796875 579.436523438 161.41015625 579.436523438 c 0
EndSplineSet
EndChar

StartChar: dotaccent
Encoding: 729 729 171
Width: 248
Flags: W
HStem: 577.543 161.449<67.5692 181.43>
VStem: 44.3867 160.227<599.566 716.969>
LayerCount: 2
Fore
SplineSet
44.38671875 658.267578125 m 0
 44.38671875 707.171851635 75.9649464332 738.9921875 124.499023438 738.9921875 c 0
 173.03409683 738.9921875 204.61328125 707.171851635 204.61328125 658.267578125 c 0
 204.61328125 609.362421084 173.03409683 577.54296875 124.499023438 577.54296875 c 0
 75.9649464331 577.54296875 44.38671875 609.362421084 44.38671875 658.267578125 c 0
EndSplineSet
EndChar

StartChar: tilde
Encoding: 732 732 172
Width: 371
VWidth: 999
Flags: W
HStem: 581.293 108.938<193.649 313.816> 625.363 108.068<67.6382 177.845>
LayerCount: 2
Fore
SplineSet
366.400390625 645.306152344 m 1x80
 366.400390625 645.306152344 322.265837657 581.293457031 254.225585938 581.293457031 c 0x80
 184.279650498 581.293457031 169.984834008 625.362792969 118.913085938 625.362792969 c 0
 85.211987484 625.362792969 57.71875 594.824707031 57.71875 594.824707031 c 1
 5 683.806152344 l 1
 5 683.806152344 53.7322896131 733.431152344 117.17578125 733.431152344 c 0x40
 186.011351076 733.431152344 205.856981602 690.230957031 252.48828125 690.230957031 c 0
 290.83603694 690.230957031 310.45703125 717.043457031 310.45703125 717.043457031 c 1
 366.400390625 645.306152344 l 1x80
EndSplineSet
EndChar

StartChar: hungarumlaut
Encoding: 733 733 173
Width: 412
Flags: W
HStem: 521 220.008
LayerCount: 2
Fore
SplineSet
287 521 m 1
 195 541 l 1
 270 741.0078125 l 1
 406 711.0078125 l 1
 287 521 l 1
97 521 m 1
 5 541 l 1
 80 741.0078125 l 1
 216 711.0078125 l 1
 97 521 l 1
EndSplineSet
EndChar

StartChar: multiply
Encoding: 215 215 174
Width: 450
Flags: W
LayerCount: 2
Fore
SplineSet
418.040039062 468.194335938 m 1
 114.805664062 164.959960938 l 1
 31.9599609375 247.805664062 l 1
 335.194335938 551.040039062 l 1
 418.040039062 468.194335938 l 1
335.194335938 164.959960938 m 1
 31.9599609375 468.194335938 l 1
 114.805664062 551.040039062 l 1
 418.040039062 247.805664062 l 1
 335.194335938 164.959960938 l 1
EndSplineSet
EndChar

StartChar: divide
Encoding: 247 247 175
Width: 450
Flags: W
HStem: 107.246 157.804<168.024 281.976> 298.75 118.5<30 420> 450.95 157.804<168.024 281.976>
VStem: 146.648 156.703<128.772 243.524 472.476 587.228>
CounterMasks: 1 e0
LayerCount: 2
Fore
SplineSet
420 298.75 m 1
 30 298.75 l 1
 30 417.25 l 1
 420 417.25 l 1
 420 298.75 l 1
146.6484375 186.147460938 m 0
 146.6484375 233.947499229 177.532068186 265.049804688 224.999023438 265.049804688 c 0
 272.46696765 265.049804688 303.3515625 233.947499229 303.3515625 186.147460938 c 0
 303.3515625 138.347457902 272.46696765 107.24609375 224.999023438 107.24609375 c 0
 177.532068186 107.24609375 146.6484375 138.347457902 146.6484375 186.147460938 c 0
146.6484375 529.852539062 m 0
 146.6484375 577.651623731 177.532068186 608.75390625 224.999023438 608.75390625 c 0
 272.46696765 608.75390625 303.3515625 577.651623731 303.3515625 529.852539062 c 0
 303.3515625 482.051582405 272.46696765 450.950195312 224.999023438 450.950195312 c 0
 177.532068186 450.950195312 146.6484375 482.051582405 146.6484375 529.852539062 c 0
EndSplineSet
EndChar

StartChar: AE
Encoding: 198 198 176
Width: 1024
Flags: W
HStem: 0 137.25<669 991.5> 145 137<229.5 626> 295.75 138.5<590 931.5> 593.758 137.25<669 991.5>
VStem: 510 116<145 282> 510 76<629.5 731.008> 590 79<295.75 434.25>
LayerCount: 2
Fore
SplineSet
931.5 295.75 m 1xf2
 590 295.75 l 1
 590 434.25 l 1
 931.5 434.25 l 1
 931.5 295.75 l 1xf2
669 593.7578125 m 1
 669 137.25 l 1
 991.5 137.25 l 1
 991.5 0 l 1
 510 0 l 1
 510 731.0078125 l 1xf6
 991.5 731.0078125 l 1
 991.5 593.7578125 l 1
 669 593.7578125 l 1
626 145 m 1xf8
 159.5 145 l 1
 229.5 282 l 1
 626 282 l 1
 626 145 l 1xf8
586 731.0078125 m 1xf4
 586 629.5 l 1
 188.5 0 l 1
 7.5 0 l 1
 500 731.0078125 l 1
 586 731.0078125 l 1xf4
EndSplineSet
EndChar

StartChar: ae
Encoding: 230 230 177
Width: 872
Flags: W
HStem: -9.99805 115.212<189.236 315.655> -9.99805 124.712<558.336 769.883> 205 97.25<457.25 695.75> 218.284 91.6494<199.105 364.777> 390.011 121<140.233 313.48> 393.034 117.899<540.608 664.249>
VStem: 31.25 146.599<118.877 196.321> 348.929 112.25<180.5 355.466> 348.929 15.8486<218.284 309.934> 457.25 46.8486<205 302.25>
LayerCount: 2
Fore
SplineSet
348.928710938 200.061523438 m 1x93
 463.5 179.5 l 1
 441.661689073 60.0755368605 368.087287319 -9.998046875 227.138671875 -9.998046875 c 0
 88.3875245512 -9.998046875 31.25 50 31.25 141 c 0
 31.25 286.71747631 149.037553243 309.797851562 364.928710938 309.93359375 c 1
 364.77734375 218.284179688 l 1x9280
 199.425012607 218.192282588 177.848632812 196.279041638 177.848632812 157.311523438 c 0
 177.848632812 122.754409802 205.852858538 105.213867188 251.638671875 105.213867188 c 0
 302.634937981 105.213867188 348.928710938 136.339790557 348.928710938 200.061523438 c 1x93
461.178710938 180.5 m 1x0b
 348.928710938 165 l 1x0a80
 348.928710938 290.760742188 l 2
 348.928710937 360.117557648 302.057633835 390.010742188 238.678710938 390.010742188 c 0
 164.748431396 390.010742188 111.928710938 354.260742188 111.928710938 354.260742188 c 1
 71.9287109375 467.010742188 l 1
 71.9287109375 467.010742188 135.168303608 511.010742188 254.946533203 511.010742188 c 0
 373.818596916 511.010742188 461.178710937 436.953879405 461.178710938 325.010742188 c 2
 461.178710938 180.5 l 1x0b
EndSplineSet
Refer: 43 101 N 1 0 0 1 321 0 2
EndChar

StartChar: Eth
Encoding: 208 208 178
Width: 789
Flags: W
HStem: 0 141.602<278.5 484.367> 294 133<30 434> 589.4 141.608<278.5 484.367>
VStem: 119.5 159<141.602 589.4> 592.429 159.849<249.438 479.898>
LayerCount: 2
Fore
SplineSet
434 294 m 1
 30 294 l 1
 30 427 l 1
 434 427 l 1
 434 294 l 1
EndSplineSet
Refer: 5 68 N 1 0 0 1 62 0 2
EndChar

StartChar: eth
Encoding: 240 240 179
Width: 588
Flags: W
HStem: -9.99805 133.712<227.142 362.869> 384.034 126.899<228.111 359.039>
VStem: 40.5713 144.849<168.052 341.413> 407.5 148.849<169.854 440> 407.5 62.8486<281.562 338.504>
LayerCount: 2
Fore
SplineSet
181.078125 616.658203125 m 1xe0
 507.991210938 710.080078125 l 1
 532.170898438 625.467773438 l 1
 205.256835938 532.044921875 l 1
 181.078125 616.658203125 l 1xe0
407.5 251.561523438 m 0xf0
 407.5 496.373845672 354.5 559.729386335 220.43359375 697.048828125 c 1
 355.327148438 771.274414062 l 1
 355.327148438 771.274414062 556.348632812 601 556.348632812 279 c 0xf0
 556.348632812 93.8330078125 457.585671049 -9.998046875 296.959960938 -9.998046875 c 0
 137.583349655 -9.998046875 40.5712890625 94.0830078125 40.5712890625 253.561523438 c 0
 40.5712890625 409.295898438 123.171757618 510.93359375 267 510.93359375 c 0
 385.997149314 510.93359375 470.348632812 423.747070312 470.348632812 281.561523438 c 1xe8
 407.5 273.561523438 l 1
 407.5 338.504139243 369.691938254 384.034179688 298.848632812 384.034179688 c 0
 219.390707647 384.034179688 185.419921875 331.799687698 185.419921875 253.561523438 c 0
 185.419921875 175.698374901 218.825293026 123.713867188 296.959960938 123.713867188 c 0
 376.647938071 123.713867188 407.5 186.898636983 407.5 251.561523438 c 0xf0
EndSplineSet
EndChar

StartChar: Thorn
Encoding: 222 222 180
Width: 650
Flags: W
HStem: 0 21G<57.5 216.5> 154 123.352<161.5 429.993> 473.649 127.358<162.5 424.341> 711.008 20G<57.5 216.5>
VStem: 57.5 159<0 154 277.352 473.649 601.008 731.008> 162.5 54<154 277.352 473.649 601.008> 463.429 149.849<310.655 439.657>
LayerCount: 2
Fore
SplineSet
57.5 0 m 1xfa
 57.5 731.0078125 l 1
 216.5 731.0078125 l 1
 216.5 0 l 1
 57.5 0 l 1xfa
161.5 154 m 1
 161.5 277.3515625 l 1
 332.388671875 277.461914062 l 2
 407.409248402 277.568931177 463.428710938 294.921492947 463.428710938 374.561523438 c 0
 463.428710938 455.039061667 407.400965038 473.519531664 332.388671875 473.545898438 c 2
 162.5 473.649414062 l 1
 162.5 601.0078125 l 1xf6
 356.388671875 601.0078125 l 2
 491.55048035 601.0078125 613.27734375 539.335495382 613.27734375 374.561523438 c 0
 613.27734375 213.240207598 490.759109269 154 356.388671875 154 c 2
 161.5 154 l 1
EndSplineSet
EndChar

StartChar: thorn
Encoding: 254 254 181
Width: 602
Flags: W
HStem: -9.99805 127.712<243.243 379.207> 384.034 126.899<249.714 380.395> 731.002 20G<57.5 206.5>
VStem: 57.5 149<-180 751.002> 123.651 82.8486<66.4395 183.562> 148.651 57.8486<283.562 425.747> 421.58 144.849<162.844 341.413>
LayerCount: 2
Fore
SplineSet
57.5 -180 m 1xf2
 57.5 751.001953125 l 1
 206.5 751.001953125 l 1
 206.5 -180 l 1
 57.5 -180 l 1xf2
206.5 213.561523438 m 1
 206.5 166.864968303 237.658963691 117.713867188 310.540039062 117.713867188 c 0
 388.323798617 117.713867188 421.580078125 172.099691643 421.580078125 253.561523438 c 0
 421.580078125 331.799687698 388.358017818 384.034179688 310.651367188 384.034179688 c 0
 237.693232386 384.034179688 206.5 343.810458164 206.5 283.561523438 c 1xf2
 148.651367188 283.561523438 l 1xe6
 148.651367188 425.747070312 224.965820312 510.93359375 342.5 510.93359375 c 0
 484.740234375 510.93359375 566.428710938 409.295898438 566.428710938 253.561523438 c 0
 566.428710938 94.0830078125 480.95703125 -9.998046875 340.540039062 -9.998046875 c 0
 205.717773438 -9.998046875 123.651367188 66.439453125 123.651367188 183.561523438 c 1xea
 206.5 213.561523438 l 1
EndSplineSet
EndChar

StartChar: kgreenlandic
Encoding: 312 312 182
Width: 555
Flags: W
HStem: 0 21G<60 209 340.019 540> 213.5 85<111.5 197.5> 481.011 20G<60 209 336.516 530>
VStem: 60 149<0 213.5 298.5 501.011> 111.5 97.5<213.5 298.5>
LayerCount: 2
Fore
SplineSet
197.5 298.5 m 1xe8
 197.5 213.5 l 1
 111.5 213.5 l 1
 111.5 298.5 l 1
 197.5 298.5 l 1xe8
354.75 0 m 1
 197.5 213.5 l 1
 197.5 298.5 l 1
 351.75 501.010742188 l 1
 530 501.010742188 l 1
 330 270.25 l 1
 540 0 l 1
 354.75 0 l 1
60 0 m 1xf0
 60 501.010742188 l 1
 209 501.010742188 l 1
 209 0 l 1
 60 0 l 1xf0
EndSplineSet
EndChar

StartChar: Eng
Encoding: 330 330 183
Width: 719
Flags: W
HStem: -189.994 122.5<326.561 494.565> 0 21G<57.5 208.5> 711.008 20G<57.5 230.525 510.5 661.5>
VStem: 57.5 151<0 462.505> 510.5 151<281.1 731.008>
LayerCount: 2
Fore
SplineSet
57.5 0 m 1
 57.5 731.0078125 l 1
 217.5 731.0078125 l 1
 510.5 281.099609375 l 1
 510.5 731.0078125 l 1
 661.5 731.0078125 l 1
 661.5 -3 l 2
 661.5 -125.529296875 603.465517242 -189.994140625 463.5 -189.994140625 c 0
 369.701317726 -189.994140625 314.5 -169.994140625 314.5 -169.994140625 c 1
 328.5 -52.494140625 l 1
 328.5 -52.494140625 370.797067496 -67.494140625 430 -67.494140625 c 0
 478.455493389 -67.494140625 503.400600381 -50.4430043831 508.97619865 -11.8368060134 c 1
 208.5 462.504882812 l 1
 208.5 0 l 1
 57.5 0 l 1
EndSplineSet
Substitution2: "'ss06' Style Set 6 lookup 7-1" Eng.ss06
EndChar

StartChar: eng
Encoding: 331 331 184
Width: 595
Flags: W
HStem: -189.994 129.25<235.932 372.757> 0 21G<57.5 206.5> 389.034 121.899<246.631 361.521> 481.011 20G<57.5 206.5>
VStem: 57.5 149<0 501.011> 389.277 149<-40.7246 359.128>
LayerCount: 2
Fore
SplineSet
57.5 0 m 1xdc
 57.5 501.010742188 l 1
 206.5 501.010742188 l 1
 206.5 0 l 1
 57.5 0 l 1xdc
206.5 284 m 1
 144 293.561523438 l 1
 166.143411203 444 218.650280368 510.93359375 349.5 510.93359375 c 0
 474.166135504 510.93359375 538.27734375 444.084682028 538.27734375 304.561523438 c 2
 538.27734375 13.5 l 2
 538.27734375 -108.980005532 482.734402264 -189.994140625 348.77734375 -189.994140625 c 0
 274.885366587 -189.994140625 223.77734375 -173.494140625 223.77734375 -173.494140625 c 1
 237.77734375 -49.494140625 l 1
 237.77734375 -49.494140625 269.344158935 -60.744140625 313.52734375 -60.744140625 c 0
 366.859038482 -60.744140625 389.27734375 -35.6688394202 389.27734375 22.505859375 c 2
 389.27734375 287.561523438 l 2
 389.27734375 351.636590254 362.362881861 389.034179688 299 389.034179688 c 0xec
 234.203209251 389.034179688 206.5 346.984115225 206.5 284 c 1
EndSplineSet
EndChar

StartChar: OE
Encoding: 338 338 185
Width: 991
Flags: W
HStem: 0 137.25<633.5 963.5> 0 140.712<306.762 532.777> 295.75 138.5<554.5 903.5> 590.546 140.462<306.334 532.777> 593.758 137.25<633.5 963.5>
VStem: 40 154.849<249.175 480.225> 554.5 79<295.75 434.25>
LayerCount: 2
Fore
SplineSet
532.77734375 140.6015625 m 1x76
 532.77734375 0 l 1
 413.888671875 0 l 2
 218.319335938 0 40 97.9169921875 40 364.561523438 c 0
 40 631.206054688 217.16796875 731.0078125 413.888671875 731.0078125 c 2
 532.77734375 731.0078125 l 1
 532.77734375 590.649414062 l 1
 433.888671875 590.545898438 l 2
 297.038690316 590.404893211 194.848632812 548.293376034 194.848632812 364.561523438 c 0
 194.848632812 180.963144693 297.038690316 140.860985132 433.888671875 140.711914062 c 2
 532.77734375 140.6015625 l 1x76
EndSplineSet
Refer: 10 69 N 1 0 0 1 417 0 2
EndChar

StartChar: oe
Encoding: 339 339 186
Width: 920
Flags: W
HStem: -9.99805 132.462<224.071 364.604> -9.99805 124.712<606.336 817.883> 205 97.25<505.25 552.099 552.277 743.75> 378.284 132.649<223.023 365.711> 393.034 117.899<588.609 712.249>
VStem: 37.5 144.849<167.631 336.364> 407.429 144.849<134.516 368.824> 505.25 47.0273<207.594 301.771>
LayerCount: 2
Fore
SplineSet
182.348632812 253.561523438 m 0xb6
 182.348632812 174.948730469 215.754150391 122.463867188 293.888671875 122.463867188 c 0
 373.423828125 122.463867188 407.428710938 174.948730469 407.428710938 253.561523438 c 0
 407.428710938 328.352050781 373.457763672 378.284179688 294 378.284179688 c 0
 215.787353516 378.284179688 182.348632812 328.352050781 182.348632812 253.561523438 c 0xb6
37.5 253.561523438 m 0
 37.5 409.295898438 134.512207031 510.93359375 293.888671875 510.93359375 c 0
 454.508300781 510.93359375 552.27734375 409.295898438 552.27734375 253.561523438 c 0
 552.27734375 94.0830078125 454.508300781 -9.998046875 293.888671875 -9.998046875 c 0
 134.512207031 -9.998046875 37.5 94.0830078125 37.5 253.561523438 c 0
406.5 253.561523438 m 0
 406.5 409.295898438 501.24243164 510.93359375 656.888671875 510.93359375 c 0
 836.627929688 510.93359375 892.965820312 373.274414062 892.965820312 274.7109375 c 0
 892.965820312 231.673828125 888.5 205 888.5 205 c 1
 505.25 205 l 1
 505.25 302.25 l 1
 743.75 302.25 l 1
 743.75 302.25 743.362304688 308.457519531 741.24609375 318 c 0
 734.862304687 348.923828125 713.901123047 393.034179688 649.5 393.034179688 c 0
 581.270019531 393.034179688 552.098632812 339.698730469 552.098632812 259.811523438 c 0
 552.098632812 164.99609375 592.314208985 114.713867188 694.75 114.713867188 c 0
 782.03125 114.713867188 831.768554688 142.845703125 831.768554688 142.845703125 c 1
 855.827148438 17.845703125 l 1
 855.827148438 17.845703125 796.295898438 -9.998046875 692.888671875 -9.998046875 c 0x6d
 495.036865234 -9.998046875 406.5 94.0830078125 406.5 253.561523438 c 0
EndSplineSet
EndChar

StartChar: longs
Encoding: 383 383 187
Width: 269
Flags: W
HStem: 0 21G<60 209> 639.011 122<226.97 364.845>
VStem: 60 149<0 620.907>
LayerCount: 2
Fore
SplineSet
209 557.010742188 m 2
 209 0 l 1
 60 0 l 1
 60 570.010742188 l 2
 60 684.97265625 116.27569797 761.010742188 252 761.010742188 c 0
 325.891977163 761.010742188 377 745.010742188 377 745.010742188 c 1
 363 628.010742188 l 1
 363 628.010742188 331.745727539 639.010742188 288 639.010742188 c 0
 232.380146748 639.010742188 209 614.311576948 209 557.010742188 c 2
EndSplineSet
EndChar

StartChar: uni018F
Encoding: 399 399 188
Width: 765
Flags: W
HStem: -9.99805 143.462<289.164 472.273> 310.123 132.5<201.608 615.608> 595.409 143.712<161.736 453.211>
VStem: 571.76 45.8486<310.123 442.623>
LayerCount: 2
Back
SplineSet
35 364.561523438 m 0
 35 591.206054688 163.541887394 739.12109375 389.888671875 739.12109375 c 0
 653.541980974 739.12109375 740.108398438 551.971330386 740.108398438 365.891601562 c 0
 740.108398438 303.039520695 732 284 732 284 c 1
 162 284 l 1
 160 424 l 1
 562 424 l 1
 562 424 560.13712938 586.659179688 391 586.659179688 c 0
 261.796380576 586.659179688 205.848632812 497.743164062 205.848632812 364.561523438 c 4
 205.848632812 231.379882812 273.845797251 142.463867188 432.888671875 142.463867188 c 0
 580.720714467 142.463867188 659.018554688 179.595703125 659.018554688 179.595703125 c 1
 682.827148438 32.595703125 l 1
 682.827148438 32.595703125 604.343305548 -9.998046875 425.888671875 -9.998046875 c 0
 176.581210181 -9.998046875 35 137.916992188 35 364.561523438 c 0
EndSplineSet
Fore
SplineSet
732.608398438 364.561523438 m 0
 732.608398438 137.916992187 604.972019571 -9.998046875 380.219726562 -9.998046875 c 0
 118.44847385 -9.998046875 32.5 174.644549085 32.5 358.231445312 c 0
 32.5 423.002284626 40.6083984375 442.623046875 40.6083984375 442.623046875 c 1
 615.608398438 442.623046875 l 1
 617.608398438 310.123046875 l 1
 201.608398438 310.123046875 l 1
 201.608398438 310.123046875 201.72780508 295.95381165 206.233366623 273.750000755 c 0
 215.641511202 217.367186477 259.441710372 133.463867188 380.108398438 133.463867188 c 0
 513.847893232 133.463867188 571.759765625 225.983001161 571.759765625 364.561523438 c 0
 571.759765625 502.990132334 501.516395031 595.409179688 337.219726562 595.409179688 c 0
 191.022054899 595.409179688 113.58984375 557.27734375 113.58984375 557.27734375 c 1
 89.78125 695.52734375 l 1
 89.78125 695.52734375 167.501448574 739.12109375 344.219726562 739.12109375 c 0
 591.932696783 739.12109375 732.608398438 591.206054687 732.608398438 364.561523438 c 0
EndSplineSet
EndChar

StartChar: florin
Encoding: 402 402 190
Width: 398
Flags: W
HStem: -190.011 129.25<-53.3449 83.4795> 381.75 119.261<19 377> 639.011 122<266.97 404.845>
VStem: 100 149<-40.7376 620.907>
LayerCount: 2
Fore
SplineSet
19 501.010742188 m 1
 377 501.010742188 l 1
 377 381.75 l 1
 19 381.75 l 1
 19 501.010742188 l 1
100 22.4892578125 m 2
 100 570.010742188 l 2
 100 684.97265625 156.27569797 761.010742188 292 761.010742188 c 0
 365.891977163 761.010742188 417 745.010742188 417 745.010742188 c 1
 403 628.010742188 l 1
 403 628.010742188 371.745727539 639.010742188 328 639.010742188 c 0
 272.380146748 639.010742188 249 614.311576948 249 557.010742188 c 2
 249 13.4892578125 l 2
 249 -108.996524178 193.456896552 -190.010742188 59.5 -190.010742188 c 0
 -14.3919886147 -190.010742188 -65.5 -173.510742188 -65.5 -173.510742188 c 1
 -51.5 -49.5107421875 l 1
 -51.5 -49.5107421875 -19.9334693322 -60.7607421875 24.25 -60.7607421875 c 0
 77.5819946288 -60.7607421875 100 -35.6854409827 100 22.4892578125 c 2
EndSplineSet
EndChar

StartChar: uni01B7
Encoding: 439 439 191
Width: 584
Flags: W
HStem: -9.99805 131.688<119.329 346.668> 594 137<40 335>
VStem: 394.327 158.084<165.057 286.456>
LayerCount: 2
Fore
SplineSet
356.75 428 m 1
 356.75 428 552.411132812 427.711987742 552.411132812 216.670898438 c 0
 552.411132812 54.8275574443 431.520635029 -9.998046875 250 -9.998046875 c 0
 102.934570312 -9.998046875 15.451171875 40.9091796875 15.451171875 40.9091796875 c 1
 58.7744140625 171.512695312 l 1
 58.7744140625 171.512695312 130.49739724 121.689453125 243 121.689453125 c 0
 347.682054739 121.689453125 394.327148438 158.547504206 394.327148438 225 c 0
 394.327148438 292.756869386 345.073720188 325.432864509 250.638671875 325.737304688 c 2
 166.5 326 l 1
 166.5 398 l 1
 335 594 l 1
 40 594 l 1
 40 731 l 1
 529 731 l 1
 529 625 l 1
 356.75 428 l 1
EndSplineSet
EndChar

StartChar: uni0292
Encoding: 658 658 192
Width: 524
Flags: W
HStem: -189.994 123.438<78.078 307.708> 374.011 127<44 283>
VStem: 348.077 144.334<-29.2482 82.5993>
LayerCount: 2
Fore
SplineSet
306.5 212 m 1
 306.5 212 492.411132812 211.735161708 492.411132812 17.6748046875 c 0
 492.411132812 -130.60239263 379.515743983 -189.994140625 210 -189.994140625 c 0
 94.2852768714 -189.994140625 25.451171875 -159.086914062 25.451171875 -159.086914062 c 1
 55.2744140625 -35.2333984375 l 1
 55.2744140625 -35.2333984375 114.24711781 -66.556640625 206.75 -66.556640625 c 0
 304.514455629 -66.556640625 348.077148438 -32.9987073227 348.077148438 27.50390625 c 0
 348.077148438 87.1894614868 299.680514307 116.019282361 206.888671875 116.241210938 c 2
 126.5 116.50390625 l 1
 126.5 190.00390625 l 1
 283 374.010742188 l 1
 44 374.010742188 l 1
 44 501.010742188 l 1
 474 501.010742188 l 1
 474 405.010742188 l 1
 306.5 212 l 1
EndSplineSet
EndChar

StartChar: Oslash
Encoding: 216 216 193
Width: 797
Flags: W
HStem: -9.99805 143.712<298.417 499.36> 595.409 143.712<298.417 499.36>
VStem: 37.5 156.099<245.315 483.808> 604.179 156.099<245.315 483.808>
LayerCount: 2
Fore
SplineSet
151.5 -91.4697265625 m 1
 536.5 801.403320312 l 1
 645.5 801.403320312 l 1
 260.5 -91.4697265625 l 1
 151.5 -91.4697265625 l 1
EndSplineSet
Refer: 1 79 N 1 0 0 1 0 0 2
EndChar

StartChar: oslash
Encoding: 248 248 194
Width: 589
Flags: W
HStem: -9.99805 132.462<224.071 364.604> 378.284 132.649<223.023 365.711>
VStem: 37.5 144.849<167.631 336.364> 407.429 144.849<168.805 336.364>
LayerCount: 2
Fore
SplineSet
60 -91.4697265625 m 1
 421 581.403320312 l 1
 529 581.403320312 l 1
 168 -91.4697265625 l 1
 60 -91.4697265625 l 1
EndSplineSet
Refer: 29 111 N 1 0 0 1 0 0 2
EndChar

StartChar: ring
Encoding: 730 730 197
Width: 355
Flags: W
HStem: 480.07 88.1465<136.583 218.34> 672.668 88.334<136.316 218.63>
VStem: 31.25 97.9531<575.84 666.786> 226.574 97.9531<576.14 666.508>
LayerCount: 2
Fore
SplineSet
129.203125 622.396484375 m 0
 129.203125 589.907677247 143.517128031 568.216796875 176.99609375 568.216796875 c 0
 211.725771082 568.216796875 226.57421875 589.907677247 226.57421875 622.396484375 c 0
 226.57421875 652.54195403 211.755515078 672.66796875 177.094726562 672.66796875 c 0
 143.546871878 672.66796875 129.203125 652.54195403 129.203125 622.396484375 c 0
31.25 622.629882812 m 0
 31.25 706.358572334 86.3565665289 761.001953125 176.888671875 761.001953125 c 0
 268.66395712 761.001953125 324.52734375 706.358572334 324.52734375 622.629882812 c 0
 324.52734375 536.367848721 268.66395712 480.0703125 176.888671875 480.0703125 c 0
 86.3565665289 480.0703125 31.25 536.367848721 31.25 622.629882812 c 0
EndSplineSet
EndChar

StartChar: ogonek
Encoding: 731 731 198
Width: 307
VWidth: 999
Flags: W
HStem: -255 87<153.382 262.728>
VStem: 32.5 110<-158.391 -46.049>
LayerCount: 2
Fore
SplineSet
32.5 -130 m 0
 32.5 -30.5220125786 120.5 39 120.5 39 c 1
 225.5 39 l 1
 225.5 39 142.5 -29.3503184713 142.5 -108 c 0
 142.5 -151.136957908 164.425763811 -168 203 -168 c 0
 241.620592949 -168 259 -154 259 -154 c 1
 277 -232 l 1
 277 -232 244.426287616 -255 179 -255 c 0
 88.7903897069 -255 32.5 -210.528428819 32.5 -130 c 0
EndSplineSet
EndChar

StartChar: minute
Encoding: 8242 8242 203
Width: 235
Flags: W
HStem: 456 275.008<85 110.5>
VStem: 5 225.5
LayerCount: 2
Fore
SplineSet
5 456 m 1
 85 731.0078125 l 1
 230.5 731.0078125 l 1
 110.5 456 l 1
 5 456 l 1
EndSplineSet
EndChar

StartChar: bullet
Encoding: 8226 8226 206
Width: 325
Flags: W
HStem: 235 256.449<85.7662 239.459>
VStem: 35 255.227<286.01 440.439>
LayerCount: 2
Fore
SplineSet
35 363.224609375 m 0
 35 440.904582656 85.3021371203 491.44921875 162.612304688 491.44921875 c 0
 239.923370709 491.44921875 290.2265625 440.904582656 290.2265625 363.224609375 c 0
 290.2265625 285.543292893 239.923370709 235 162.612304688 235 c 0
 85.3021371203 235 35 285.543292893 35 363.224609375 c 0
EndSplineSet
EndChar

StartChar: dagger
Encoding: 8224 8224 207
Width: 530
Flags: W
HStem: 365.011 131<30 500>
VStem: 180.5 169<-171.47 -19.3865> 208 114<274.662 559.388>
LayerCount: 2
Fore
SplineSet
180.5 -171.469726562 m 1xc0
 208 427 l 1
 190.5 759.469726562 l 1
 339.5 759.469726562 l 1
 322 426 l 1xa0
 349.5 -171.469726562 l 1
 180.5 -171.469726562 l 1xc0
30 365.010742188 m 1
 30 496.010742188 l 1
 500 496.010742188 l 1
 500 365.010742188 l 1
 30 365.010742188 l 1
EndSplineSet
EndChar

StartChar: daggerdbl
Encoding: 8225 8225 208
Width: 530
Flags: W
HStem: 75.0107 131<30 500> 415.011 131<30 500>
LayerCount: 2
Fore
SplineSet
30 75.0107421875 m 1
 30 206.010742188 l 1
 500 206.010742188 l 1
 500 75.0107421875 l 1
 30 75.0107421875 l 1
190.5 -171.469726562 m 1
 208 137 l 1
 190.5 317 l 1
 208 477 l 1
 190.5 759.469726562 l 1
 339.5 759.469726562 l 1
 322 476 l 1
 339.5 318 l 1
 322 136 l 1
 339.5 -171.469726562 l 1
 190.5 -171.469726562 l 1
30 415.010742188 m 1
 30 546.010742188 l 1
 500 546.010742188 l 1
 500 415.010742188 l 1
 30 415.010742188 l 1
EndSplineSet
EndChar

StartChar: uni2116
Encoding: 8470 8470 209
Width: 1126
Flags: W
HStem: 0 21G<57.5 208.5 488.83 661.5> 241.5 96.5<736.5 1069.5> 378.061 111.526<857.085 957.942> 627.278 111.714<856.183 958.9> 711.008 20G<57.5 230.525 510.5 661.5>
VStem: 57.5 151<0 462.505> 510.5 151<281.1 731.008> 725.111 117.412<502.752 613.894> 973.477 117.412<505.488 613.432>
LayerCount: 2
Fore
SplineSet
736.5 338 m 1xe780
 1069.5 338 l 1
 1069.5 241.5 l 1
 736.5 241.5 l 1
 736.5 338 l 1xe780
842.5234375 560.844726562 m 0
 842.5234375 518.115035171 861.803469494 489.586914062 906.897460938 489.586914062 c 0
 953.536391198 489.586914062 973.4765625 518.115035171 973.4765625 560.844726562 c 0
 973.4765625 600.681861061 953.573517054 627.278320312 907.020507812 627.278320312 c 0xf780
 861.840595849 627.278320312 842.5234375 600.681861061 842.5234375 560.844726562 c 0
725.111328125 560.620117188 m 0
 725.111328125 668.552734375 793.934121333 738.9921875 907 738.9921875 c 0
 1021.30904315 738.9921875 1090.88867188 668.552734375 1090.88867188 560.620117188 c 0
 1090.88867188 450.154296875 1021.30904315 378.060546875 907 378.060546875 c 0
 793.934121333 378.060546875 725.111328125 450.154296875 725.111328125 560.620117188 c 0
EndSplineSet
Refer: 11 78 N 1 0 0 1 0 0 2
EndChar

StartChar: uni20BF
Encoding: 8383 8383 210
Width: 640
Flags: W
HStem: -105 174.47<135 264 345 474> 0 137.71<215.25 419.472> 299.656 131.695<161.5 399.735> 593.399 137.608<215.25 397.725> 655 174.47<135 264 345 474>
VStem: 135 129<-105 69.4697 655 829.47> 161.5 53.75<299.656 431.352> 345 129<-105 69.4697 655 829.47> 425.679 158.599<456.757 565.446> 448.679 158.599<164.597 273.041>
LayerCount: 2
Fore
SplineSet
345 -105 m 1xa1
 345 69.4697265625 l 1
 474 69.4697265625 l 1
 474 -105 l 1
 345 -105 l 1xa1
345 655 m 1x29
 345 829.469726562 l 1
 474 829.469726562 l 1
 474 655 l 1
 345 655 l 1x29
135 -105 m 1xa4
 135 69.4697265625 l 1
 264 69.4697265625 l 1
 264 -105 l 1
 135 -105 l 1xa4
135 655 m 1x2c
 135 829.469726562 l 1
 264 829.469726562 l 1
 264 655 l 1
 135 655 l 1x2c
EndSplineSet
Refer: 19 66 N 1 0 0 1 0 0 2
EndChar

StartChar: uni20A6
Encoding: 8358 8358 211
Width: 874
Flags: W
HStem: 0 21G<151.5 302.5 557.059 729.5> 259 86<32.5 239 635 841.5> 389 86<32.5 239 635 841.5> 711.008 20G<151.5 324.259 578.5 729.5>
VStem: 151.5 151<0 259 345 389> 151.5 87.5<259 345 389 475> 578.5 151<345 389 475 731.008> 635 94.5<259 345 389 475>
LayerCount: 2
Fore
SplineSet
841.5 259 m 1xf1
 635 259 l 1
 635 345 l 1
 841.5 345 l 1
 841.5 259 l 1xf1
841.5 389 m 1
 635 389 l 1
 635 475 l 1
 841.5 475 l 1
 841.5 389 l 1
239 259 m 1xf4
 32.5 259 l 1
 32.5 345 l 1
 239 345 l 1
 239 259 l 1xf4
239 389 m 1
 32.5 389 l 1
 32.5 475 l 1
 239 475 l 1
 239 389 l 1
151.5 0 m 1xf9
 151.5 731.0078125 l 1
 312.5 731.0078125 l 1
 578.5 278.599609375 l 1
 578.5 731.0078125 l 1
 729.5 731.0078125 l 1xf6
 729.5 0 l 1
 568.5 0 l 1
 302.5 465.004882812 l 1
 302.5 0 l 1
 151.5 0 l 1xf9
EndSplineSet
EndChar

StartChar: uni20BD
Encoding: 8381 8381 212
Width: 703
Flags: W
HStem: 0 21G<133.5 292.5> 158.352 86<30 544> 290.852 110.5<30 474.438> 593.399 137.608<292.5 469.239>
VStem: 133.5 159<0 593.399> 507.679 158.599<432.159 560.512>
LayerCount: 2
Fore
SplineSet
544 158.3515625 m 1
 30 158.3515625 l 1
 30 244.3515625 l 1
 544 244.3515625 l 1
 544 158.3515625 l 1
30 290.8515625 m 1
 30 401.3515625 l 1
 376.138671875 401.461914062 l 2
 451.445309167 401.564903747 507.678710938 418.336617697 507.678710938 495.311523438 c 0
 507.678710938 574.975933899 451.445309167 593.195940423 376.138671875 593.295898438 c 2
 292.5 593.399414062 l 1
 292.5 0 l 1
 133.5 0 l 1
 133.5 731.0078125 l 1
 382.388671875 731.0078125 l 2
 565.002929688 731.0078125 666.27734375 661.386578086 666.27734375 495.311523438 c 0
 666.27734375 363.056790537 574.897460938 290.8515625 420.5 290.8515625 c 2
 30 290.8515625 l 1
EndSplineSet
EndChar

StartChar: dong
Encoding: 8363 8363 213
Width: 645
Flags: W
HStem: 0 86<30 594> 150.002 116.899<234.492 358.213> 468.222 114.712<234.965 366.128> 616.5 81<301 612.5> 731.002 20G<393.5 542.5>
VStem: 58.5713 144.849<298.071 434.373> 393.5 149<355.374 751.002> 393.5 67.8486<387.374 501.576>
LayerCount: 2
Fore
SplineSet
594 0 m 1xfc
 30 0 l 1
 30 86 l 1
 594 86 l 1
 594 0 l 1xfc
612.5 616.5 m 1
 301 616.5 l 1
 301 697.5 l 1
 612.5 697.5 l 1
 612.5 616.5 l 1
542.5 160 m 1xfe
 393.5 160 l 1xfd
 393.5 751.001953125 l 1
 542.5 751.001953125 l 1
 542.5 160 l 1xfe
393.5 385.374023438 m 1xfe
 393.5 425.73714462 369.035170859 468.221679688 299.459960938 468.221679688 c 0
 235.878312979 468.221679688 203.419921875 426.847484722 203.419921875 364.874023438 c 0
 203.419921875 306.12422631 235.844322758 266.901367188 299.348632812 266.901367188 c 0
 369.000698562 266.901367188 393.5 302.321424812 393.5 355.374023438 c 1xfe
 456.348632812 367.374023438 l 1
 456.348632812 237.6953125 389.178944702 150.001953125 260 150.001953125 c 0
 122.174466595 150.001953125 58.5712890625 240.837673094 58.5712890625 364.874023438 c 0
 58.5712890625 492.632931407 128.626996397 582.93359375 264.959960938 582.93359375 c 0
 399.056641136 582.93359375 461.348632812 501.57621139 461.348632812 387.374023438 c 1xfd
 393.5 385.374023438 l 1xfe
EndSplineSet
EndChar

StartChar: uni1E9E
Encoding: 7838 7838 220
Width: 743
Flags: W
HStem: -10 126.124<346.01 527.584> 0 21G<57.5 216.5> 594.008 137<262.172 471>
VStem: 57.5 159<0 551.787> 565.5 150<154.186 281.14>
LayerCount: 2
Fore
SplineSet
57.5 484.5 m 2x78
 57.5 657.927018681 144.045454546 731.0078125 337.5 731.0078125 c 2
 662.5 731.0078125 l 1
 662.5 641.0078125 l 1
 518.5 422.5 l 1
 588.930051813 422.5 715.5 384.54589372 715.5 215.75 c 0
 715.5 63.2697368421 623.445121951 -10 472 -10 c 0
 358.274171477 -10 305 26 305 26 c 1
 337.25 142.25 l 1
 337.25 142.25 380.656053843 116.124023438 453.015625 116.124023438 c 0xb8
 521.522588436 116.124023438 565.5 150.246864167 565.5 218.75 c 0
 565.5 287.994845361 521.861702128 319 419 319 c 2
 341 319 l 1
 341 389 l 1
 471 594.0078125 l 1
 342.5 594.0078125 l 2
 246.698347108 594.0078125 216.5 551.249860491 216.5 451.5078125 c 2
 216.5 0 l 1
 57.5 0 l 1
 57.5 484.5 l 2x78
EndSplineSet
EndChar

StartChar: germandbls
Encoding: 223 223 221
Width: 725
Flags: W
HStem: -9.99805 116.979<344.496 533.647> 0 21G<57.5 206.5> 393.404 117.779<447.076 553.777> 633.761 127.25<271.407 465.37>
VStem: 57.5 149<0 569.665> 292.954 147.558<323.739 384.19> 513 148.868<509.5 585.092> 541.771 146.419<117.786 175.196>
LayerCount: 2
Fore
SplineSet
458.596679688 195.318359375 m 0xbd
 328.732454235 225.5085589 292.954101562 274.807845261 292.954101562 353.5 c 0
 292.954101562 451.726103023 366.38305947 511.18359375 472 511.18359375 c 0
 502.439046913 511.18359375 513 509.5 513 509.5 c 1
 510.37853293 590.027995309 472.552170167 633.760742188 370 633.760742188 c 0
 249.85198504 633.760742188 206.5 577.688456729 206.5 467.010742188 c 2
 206.5 0 l 1
 57.5 0 l 1
 57.5 480.010742188 l 2
 57.5 651.613415948 134.606070326 761.010742188 361 761.010742188 c 0
 615.958470597 761.010742188 661.868164062 632.53654904 661.868164062 500 c 0x7e
 661.868164062 425.39131117 639.294921875 367.194335938 639.294921875 367.194335938 c 1
 639.294921875 367.194335938 590.061614316 393.404296875 517.493164062 393.404296875 c 0
 464.392375913 393.404296875 440.51171875 378.329011685 440.51171875 354.018554688 c 0
 440.51171875 332.284616769 455.934298856 319.333229641 507.537109375 306.586914062 c 0
 646.571974628 272.214590319 688.189453125 227.225753503 688.189453125 144.90234375 c 0
 688.189453125 49.4390036595 614.612025093 -9.998046875 476.856445312 -9.998046875 c 0
 358.513835865 -9.998046875 283.5 26.5625 283.5 26.5625 c 1
 314.314453125 141.361328125 l 1
 314.314453125 141.361328125 379.870376669 106.981445312 460.243164062 106.981445312 c 0
 515.475154576 106.981445312 541.770507812 120.709293563 541.770507812 147.336914062 c 0
 541.770507812 169.330086926 527.039493973 179.448530244 458.596679688 195.318359375 c 0xbd
EndSplineSet
EndChar

StartChar: uni2113
Encoding: 8467 8467 222
Width: 619
Flags: W
HStem: -10 135.38<302.083 488.053> 635.872 125.13<319.96 416.371>
VStem: 90.5 159.229<140.455 509.58> 430.644 142.496<493.765 623.529>
LayerCount: 2
Fore
SplineSet
90.5 295.099609375 m 0
 90.5 601.856122812 187.32657048 761.001953125 369.650390625 761.001953125 c 0
 515.514614725 761.001953125 573.139648438 663.18760467 573.139648438 571.95703125 c 0
 573.139648438 225.95438517 21.5 166 21.5 166 c 1
 7.5 284.25 l 1
 7.5 284.25 430.643554688 345.894578002 430.643554688 567.251953125 c 0
 430.643554688 610.38054788 410.459096611 635.872070312 371.650390625 635.872070312 c 0
 285.730222075 635.872070312 249.729492188 503.74764872 249.729492188 310.875 c 0
 249.729492188 190.447544012 271.76638567 125.379882812 383.25 125.379882812 c 0
 466.859105958 125.379882812 524.708007812 165.674804688 524.708007812 165.674804688 c 1
 563 42 l 1
 563 42 502.068063888 -10 367.400390625 -10 c 0
 188.536045808 -10 90.5 90.4616804461 90.5 295.099609375 c 0
EndSplineSet
EndChar

StartChar: uni20B8
Encoding: 8376 8376 223
Width: 614
Flags: W
HStem: 0 21G<227.5 386.5> 373.75 137.25<32.5 227.5 386.5 581.5> 373.75 107.25<227.5 386.5> 593.75 137.25<32.5 581.5>
VStem: 227.5 159<0 481>
LayerCount: 2
Fore
SplineSet
581.5 593.75 m 1x98
 32.5 593.75 l 1
 32.5 731 l 1
 581.5 731 l 1
 581.5 593.75 l 1x98
581.5 373.75 m 1xd8
 32.5 373.75 l 1
 32.5 511 l 1
 581.5 511 l 1
 581.5 373.75 l 1xd8
227.5 0 m 1
 227.5 481 l 1
 386.5 481 l 1xb8
 386.5 0 l 1
 227.5 0 l 1
EndSplineSet
EndChar

StartChar: uni20BC
Encoding: 8380 8380 224
Width: 839
Flags: W
HStem: 0 21G<57.5 216.5 340 499 619.277 778.277> 423.544 142.462<301.579 534.198> 711.008 20G<340 499>
VStem: 57.5 159<0 339.897> 340 159<0 731.008> 619.277 159<0 339.897>
LayerCount: 2
Fore
SplineSet
417.888671875 566.005859375 m 0
 687.030424394 566.005859375 778.27734375 439.810157699 778.27734375 246.446289062 c 2
 778.27734375 0 l 1
 619.27734375 0 l 1
 619.27734375 216.446289062 l 2
 619.27734375 340.632767693 591.510789911 423.543945312 417.888671875 423.543945312 c 0
 244.266553839 423.543945312 216.5 340.632767693 216.5 216.446289062 c 2
 216.5 0 l 1
 57.5 0 l 1
 57.5 246.446289062 l 2
 57.5 439.810157699 148.746919356 566.005859375 417.888671875 566.005859375 c 0
340 0 m 1
 340 731.0078125 l 1
 499 731.0078125 l 1
 499 0 l 1
 340 0 l 1
EndSplineSet
EndChar

StartChar: Ohorn
Encoding: 416 416 225
Width: 797
Flags: W
HStem: -9.99805 143.712<298.417 499.36> 595.409 143.712<298.417 499.36>
VStem: 37.5 156.099<245.315 483.808> 585.66 131.76<672.574 813.507> 604.179 156.099<245.315 483.808>
LayerCount: 2
Fore
SplineSet
555.580078125 825.799804688 m 1xf0
 695.259765625 825.799804688 l 1
 695.259765625 825.799804688 717.419921875 795.200195312 717.419921875 738.9921875 c 0
 717.419921875 645 635.099609375 592.639648438 635.099609375 592.639648438 c 1
 540.66015625 641.360351562 l 1
 540.66015625 641.360351562 585.66015625 688 585.66015625 733.729492188 c 0
 585.66015625 790.55078125 555.580078125 825.799804688 555.580078125 825.799804688 c 1xf0
EndSplineSet
Refer: 1 79 N 1 0 0 1 0 0 2
EndChar

StartChar: ohorn
Encoding: 417 417 226
Width: 589
Flags: W
HStem: -9.99805 132.462<224.071 364.604> 378.284 132.649<223.023 365.711>
VStem: 37.5 144.849<167.631 336.364> 407.429 144.849<168.805 336.364> 411.66 125.76<462.574 603.507>
LayerCount: 2
Fore
SplineSet
381.580078125 615.799804688 m 1xe8
 515.259765625 615.799804688 l 1
 515.259765625 615.799804688 537.419921875 585.200195312 537.419921875 528.9921875 c 0
 537.419921875 435 455.099609375 382.639648438 455.099609375 382.639648438 c 1
 366.66015625 431.360351562 l 1
 366.66015625 431.360351562 411.66015625 478 411.66015625 523.729492188 c 0
 411.66015625 580.55078125 381.580078125 615.799804688 381.580078125 615.799804688 c 1xe8
EndSplineSet
Refer: 29 111 N 1 0 0 1 0 0 2
EndChar

StartChar: Uhorn
Encoding: 431 431 227
Width: 777
Flags: W
HStem: -9.99805 143.712<269.944 445.833> 661 164.8<625.5 709.642> 711.008 20G<57.5 216.5 499.277 658.277>
VStem: 57.5 159<191.346 731.008> 499.277 159<191.346 731.008> 609.5 135<737.954 815.378>
LayerCount: 2
Fore
SplineSet
575.580078125 825.799804688 m 1xd4
 715.259765625 825.799804688 l 1
 715.259765625 825.799804688 744.5 800 744.5 752 c 0
 744.5 692 696.5 661 625.5 661 c 1xd4
 536.5 731.0078125 l 1xb4
 570.5 731.0078125 609.5 732.480474404 609.5 770 c 0
 609.5 804 575.580078125 825.799804688 575.580078125 825.799804688 c 1xd4
EndSplineSet
Refer: 6 85 N 1 0 0 1 0 0 2
EndChar

StartChar: uhorn
Encoding: 432 432 228
Width: 660
Flags: W
HStem: -9.92285 121.899<233.487 349.146> 0 21G<389.277 538.277> 481.011 20G<57.5 206.5 389.277 538.277>
VStem: 57.5 149<141.883 501.011> 389.277 149<207.449 501.011> 492.5 135<509.138 596.83>
LayerCount: 2
Fore
SplineSet
450.259765625 615.799804688 m 1x34
 589.939453125 615.799804688 l 1
 589.939453125 615.799804688 627.5 584.757147576 627.5 527.002929688 c 0
 627.5 463.706226391 579.5 431.002929688 508.5 431.002929688 c 1
 419.5 501.010742188 l 1
 453.5 501.010742188 492.5 502.67223835 492.5 545.002929688 c 0
 492.5 588.140961505 450.259765625 615.799804688 450.259765625 615.799804688 c 1x34
EndSplineSet
Refer: 50 117 N 1 0 0 1 0 0 2
EndChar

StartChar: integral
Encoding: 8747 8747 229
Width: 448
Flags: W
HStem: -190.011 130.25<-55.2393 77.4758> 638.761 122.25<317.371 454.845>
LayerCount: 2
Fore
SplineSet
100 31.9892578125 m 2
 150 570.010742188 l 2
 160.413244316 684.979719828 206.27569797 761.010742188 342 761.010742188 c 0
 415.891977163 761.010742188 467 745.010742188 467 745.010742188 c 1
 453 627.760742188 l 1
 453 627.760742188 421.12064209 638.760742188 376.5 638.760742188 c 0
 321.936219911 638.760742188 304.383162747 614.72055991 299 557.010742188 c 2
 249 20.9892578125 l 2
 237.463600887 -105.906604899 192.724137931 -190.010742188 57 -190.010742188 c 0
 -16.8919886147 -190.010742188 -68 -174.010742188 -68 -174.010742188 c 1
 -54 -48.7607421875 l 1
 -54 -48.7607421875 -22.1209294246 -59.7607421875 22.5 -59.7607421875 c 0
 77.064086914 -59.7607421875 93.9936306794 -32.6418569407 100 31.9892578125 c 2
EndSplineSet
EndChar

StartChar: dotlessi
Encoding: 305 305 231
Width: 269
Flags: W
HStem: 0 21G<60 209> 481.011 20G<60 209>
VStem: 60 149<0 501.011>
LayerCount: 2
Fore
SplineSet
60 0 m 1
 60 501.010742188 l 1
 209 501.010742188 l 1
 209 0 l 1
 60 0 l 1
EndSplineSet
EndChar

StartChar: uni0237
Encoding: 567 567 232
Width: 269
Flags: W
HStem: -190 129.25<-85.5855 43.4795> 481.011 20G<60 209>
VStem: 60 149<-40.7269 501.011>
LayerCount: 2
Fore
SplineSet
60 22.5 m 2
 60 501.010742188 l 1
 209 501.010742188 l 1
 209 13.5 l 2
 209 -108.985781991 153.456896552 -190 19.5 -190 c 0
 -49.9584692978 -190 -98 -173.5 -98 -173.5 c 1
 -84 -49.5 l 1
 -84 -49.5 -55.5588684082 -60.75 -15.75 -60.75 c 0
 37.5819946288 -60.75 60 -35.6746987952 60 22.5 c 2
EndSplineSet
EndChar

StartChar: uni20B3
Encoding: 8371 8371 233
Width: 824
Flags: W
HStem: 0 21G<70 243.061 581.188 754> 139 86<32.5 791.5> 269 86<62.5 761.5> 711.008 20G<322.887 505.977>
LayerCount: 2
Fore
SplineSet
499 731.0078125 m 1
 754 0 l 1
 587.5 0 l 1
 415.393554688 545.313476562 l 1
 236.5 0 l 1
 70 0 l 1
 330 731.0078125 l 1
 499 731.0078125 l 1
761.5 269 m 1
 62.5 269 l 1
 62.5 355 l 1
 761.5 355 l 1
 761.5 269 l 1
791.5 139 m 1
 32.5 139 l 1
 32.5 225 l 1
 791.5 225 l 1
 791.5 139 l 1
EndSplineSet
EndChar

StartChar: hookabovecomb
Encoding: 777 777 234
Width: 0
Flags: W
HStem: 468 110.549<46.9324 148.239> 648.229 90.7637<17.6386 148.654>
VStem: 45.1816 104.956<468 516.153> 153.854 115.774<582.725 641.776>
LayerCount: 2
Fore
SplineSet
148.645507812 516.153320312 m 1
 150.137695312 468 l 1
 45.181640625 468 l 1
 46.9150390625 582.96875 l 1
 46.9150390625 582.96875 70.7421854653 578.548828125 100.657226562 578.548828125 c 0
 136.638187149 578.548828125 153.854492188 589.666552597 153.854492188 610.395507812 c 0
 153.854492188 636.633952387 130.873466975 648.228515625 97.1533203125 648.228515625 c 0
 52.1608006836 648.228515625 22.6826171875 628.958007812 22.6826171875 628.958007812 c 1
 0 715.311523438 l 1
 0 715.311523438 40.1669478236 738.9921875 109.153320312 738.9921875 c 0
 203.20183912 738.9921875 269.62890625 702.759765625 269.62890625 614.010742188 c 0
 269.62890625 547.288733698 222.862164804 515.1953125 170.569091797 515.1953125 c 0
 156.248548937 515.1953125 148.645507812 516.153320312 148.645507812 516.153320312 c 1
EndSplineSet
EndChar

StartChar: uni20B1
Encoding: 8369 8369 235
Width: 844
Flags: W
HStem: 0 21G<153.5 312.5> 224 133.602<260 504.588> 339 86<32.5 234 610 811.5> 469 86<32.5 234 610 811.5> 593.399 137.608<312.5 504.916>
VStem: 153.5 80.5<339 425 469 555> 260 52.5<224 357.602> 610 99.2773<339 425 469 555>
LayerCount: 2
Fore
SplineSet
811.5 339 m 1xbf
 610 339 l 1
 610 425 l 1
 811.5 425 l 1
 811.5 339 l 1xbf
811.5 469 m 1
 610 469 l 1
 610 555 l 1
 811.5 555 l 1
 811.5 469 l 1
234 339 m 1
 32.5 339 l 1
 32.5 425 l 1
 234 425 l 1
 234 339 l 1
234 469 m 1
 32.5 469 l 1
 32.5 555 l 1
 234 555 l 1
 234 469 l 1
260 224 m 1xdf
 260 357.6015625 l 1
 401.388671875 357.711914062 l 2
 486.714283913 357.821614243 550.428710938 378.722760404 550.428710938 474.561523438 c 0
 550.428710938 571.096458404 486.714281181 593.187615096 401.388671875 593.295898438 c 2
 312.5 593.399414062 l 1
 312.5 0 l 1
 153.5 0 l 1
 153.5 731.0078125 l 1
 422.388671875 731.0078125 l 2
 573.334960938 731.0078125 709.27734375 661.165039062 709.27734375 474.561523438 c 0
 709.27734375 291.297851562 572.451171875 224 422.388671875 224 c 2
 260 224 l 1xdf
EndSplineSet
EndChar

StartChar: uni20A9
Encoding: 8361 8361 236
Width: 1114
Flags: W
HStem: 0 21G<257.56 471.438 651.724 865.604> 259 86<52.5 261.5 852.5 1061.5> 389 86<32.5 261.5 852.5 1081.5> 711.008 20G<117.5 284.829 844.106 1011.5>
LayerCount: 2
Fore
SplineSet
1061.5 259 m 1
 852.5 259 l 1
 852.5 345 l 1
 1061.5 345 l 1
 1061.5 259 l 1
1081.5 389 m 1
 852.5 389 l 1
 852.5 475 l 1
 1081.5 475 l 1
 1081.5 389 l 1
261.5 259 m 1
 52.5 259 l 1
 52.5 345 l 1
 261.5 345 l 1
 261.5 259 l 1
261.5 389 m 1
 32.5 389 l 1
 32.5 475 l 1
 261.5 475 l 1
 261.5 389 l 1
261.5 0 m 1
 117.5 731.0078125 l 1
 281.5 731.0078125 l 1
 373.106445312 180.694335938 l 1
 487.5 671.0078125 l 1
 639 671.0078125 l 1
 754.106445312 180.694335938 l 1
 847.5 731.0078125 l 1
 1011.5 731.0078125 l 1
 861.5 0 l 1
 656 0 l 1
 563.25 433.771484375 l 1
 467 0 l 1
 261.5 0 l 1
EndSplineSet
EndChar

StartChar: franc
Encoding: 8355 8355 237
Width: 584
Flags: W
HStem: 0 21G<97.5 256.5> 111.5 106<30 384> 320.5 135<177.5 494> 593.758 137.25<256.5 554>
VStem: 97.5 159<0 320.5 455.5 593.758> 177.5 79<320.5 455.5>
LayerCount: 2
Fore
SplineSet
384 111.5 m 1xf0
 30 111.5 l 1
 30 217.5 l 1
 384 217.5 l 1
 384 111.5 l 1xf0
494 320.5 m 1
 177.5 320.5 l 1
 177.5 455.5 l 1xf4
 494 455.5 l 1
 494 320.5 l 1
256.5 593.7578125 m 1xf8
 256.5 0 l 1
 97.5 0 l 1
 97.5 731.0078125 l 1
 554 731.0078125 l 1
 554 593.7578125 l 1
 256.5 593.7578125 l 1xf8
EndSplineSet
EndChar

StartChar: peseta
Encoding: 8359 8359 238
Width: 844
Flags: W
HStem: 0 21G<153.5 312.5> 224 133.602<260 504.588> 429 86<30 814> 593.399 137.608<312.5 504.916>
VStem: 153.5 159<0 224 357.602 593.399> 260 52.5<224 357.602> 550.429 158.849<402.037 548.173>
LayerCount: 2
Fore
SplineSet
814 429 m 1xf2
 629 429 l 1
 585 429 l 1
 265 429 l 1
 209 429 l 1
 30 429 l 1
 30 515 l 1
 211 515 l 1
 267 515 l 1
 583 515 l 1
 627 515 l 1
 814 515 l 1
 814 429 l 1xf2
260 224 m 1xf6
 260 357.6015625 l 1xf6
 401.388671875 357.711914062 l 2
 486.714315493 357.777282525 550.428710938 378.722760404 550.428710938 474.561523438 c 0
 550.428710938 571.096458404 486.714295716 593.200840903 401.388671875 593.295898438 c 2
 312.5 593.399414062 l 1
 312.5 0 l 1
 153.5 0 l 1
 153.5 731.0078125 l 1xfa
 422.388671875 731.0078125 l 2
 573.334960938 731.0078125 709.27734375 661.165039062 709.27734375 474.561523438 c 0
 709.27734375 291.297851562 572.451171875 224 422.388671875 224 c 2
 260 224 l 1xf6
EndSplineSet
EndChar

StartChar: uni20BE
Encoding: 8382 8382 239
Width: 781
Flags: W
HStem: 0 137.25<459 744> 46.252 90.998<185.282 403.389> 719.121 20G<301.599 517.937>
VStem: 57.5 164.849<267.124 494.637> 309 86<388 812> 439 86<388 812> 605.355 148.826<410.892 506.868>
LayerCount: 2
Fore
SplineSet
525 812 m 1x3e
 525 388 l 1
 439 388 l 1
 439 812 l 1
 525 812 l 1x3e
395 812 m 1
 395 388 l 1
 309 388 l 1
 309 812 l 1
 395 812 l 1
744 0 m 1xbe
 32.5 0 l 1xbe
 32.5 137.25 l 1x7e
 744 137.25 l 1
 744 0 l 1xbe
403.388671875 46.251953125 m 1x7e
 185.281760663 46.251953125 57.5 183.800592899 57.5 394.561523438 c 0
 57.5 603.05352116 187.3092926 739.12109375 415.888671875 739.12109375 c 0
 619.985159836 739.12109375 752.119295119 609.473940289 754.181640625 410.891601562 c 1
 605.35546875 393.138671875 l 1
 603.273613416 529.530967724 550.649311177 595.409179688 422.888671875 595.409179688 c 0
 282.409295587 595.409179688 222.348632812 510.997500815 222.348632812 384.561523438 c 0
 222.348632812 236.260769035 295.825544992 137.25 459 137.25 c 1xbe
 403.388671875 46.251953125 l 1x7e
EndSplineSet
EndChar

StartChar: uni030F
Encoding: 783 783 251
Width: 0
Flags: W
HStem: 516 225.008
LayerCount: 2
Fore
SplineSet
124 516 m 1
 5 711.0078125 l 1
 141 741.0078125 l 1
 216 536 l 1
 124 516 l 1
314 516 m 1
 195 711.0078125 l 1
 331 741.0078125 l 1
 406 536 l 1
 314 516 l 1
EndSplineSet
EndChar

StartChar: uni0326
Encoding: 806 806 254
Width: 0
Flags: W
HStem: -254.5 254.949
VStem: 5 160.227<-138.895 -27.3333>
LayerCount: 2
Fore
SplineSet
5 -80.732421875 m 0
 5 -31.5516384916 35.8348655648 0.44921875 83.2255859375 0.44921875 c 0
 132.903418715 0.44921875 165.2265625 -35.5595135602 165.2265625 -100.732421875 c 0
 165.2265625 -186.841622475 78.11328125 -254.5 78.11328125 -254.5 c 1
 24.61328125 -214 l 1
 24.61328125 -214 59.1708984375 -187.53125 74.61328125 -161 c 1
 32.0886955842 -156.865112607 5 -126.171671124 5 -80.732421875 c 0
EndSplineSet
EndChar

StartChar: uni031B
Encoding: 795 795 258
Width: 0
Flags: W
HStem: 497.848 233.16
VStem: 50 126.76<577.782 718.715>
LayerCount: 2
Fore
SplineSet
19.919921875 731.0078125 m 1
 154.599609375 731.0078125 l 1
 154.599609375 731.0078125 176.759765625 700.408203124 176.759765625 644.200195312 c 0
 176.759765625 550.208007812 94.439453125 497.84765625 94.439453125 497.84765625 c 1
 5 546.568359375 l 1
 5 546.568359375 50 593.208007812 50 638.9375 c 0
 50 695.758789062 19.919921875 731.0078125 19.919921875 731.0078125 c 1
EndSplineSet
EndChar

StartChar: dcaron
Encoding: 271 271 406
Width: 763
Flags: W
HStem: -9.99805 126.899<228.856 355.828> 0 21G<400.5 549.5> 383.222 127.712<230.018 363.851> 731 20G<637.843 785.5> 731.002 20G<400.5 549.5>
VStem: 40.5713 144.849<159.522 338.092> 400.5 57.8486<75.1885 217.374 317.374 434.496> 400.5 149<217.374 751.002>
LayerCount: 2
Fore
SplineSet
643.5 751 m 25x34
 785.5 751 l 25
 690.5 553 l 25
 587.5 553 l 25
 643.5 751 l 25x34
EndSplineSet
Refer: 44 100 N 1 0 0 1 0 0 2
EndChar

StartChar: tcaron
Encoding: 357 357 407
Width: 463
Flags: W
HStem: -10 124.25<260.156 368.946> 382 119.011<16.5 379.5> 731 20G<347.843 495.5>
VStem: 100 149<126.062 651.511>
LayerCount: 2
Fore
SplineSet
353.5 751 m 25
 495.5 751 l 25
 400.5 553 l 25
 297.5 553 l 25
 353.5 751 l 25
EndSplineSet
Refer: 41 116 N 1 0 0 1 0 0 2
EndChar

StartChar: dcroat
Encoding: 273 273 409
Width: 622
Flags: W
HStem: -9.99805 126.899<228.856 355.828> 0 21G<400.5 549.5> 383.222 127.712<230.018 363.851> 553.75 113.5<290.5 619.5> 731.002 20G<400.5 549.5>
VStem: 40.5713 144.849<159.522 338.092> 400.5 57.8486<75.1885 217.374 317.374 434.496> 400.5 149<217.374 751.002>
LayerCount: 2
Fore
SplineSet
619.5 553.75 m 1x3c
 290.5 553.75 l 1
 290.5 667.25 l 1
 619.5 667.25 l 1
 619.5 553.75 l 1x3c
EndSplineSet
Refer: 44 100 N 1 0 0 1 0 0 2
EndChar

StartChar: Tbar
Encoding: 358 358 410
Width: 614
Flags: W
HStem: 0 21G<227.5 386.5> 245 131<107.5 506.5> 593.75 107.25<227.5 386.5> 593.75 137.25<32.5 227.5 386.5 581.5>
VStem: 227.5 159<0 701>
LayerCount: 2
Fore
SplineSet
506.5 245 m 1xc8
 107.5 245 l 1
 107.5 376 l 1
 506.5 376 l 1
 506.5 245 l 1xc8
EndSplineSet
Refer: 17 84 N 1 0 0 1 0 0 2
EndChar

StartChar: tbar
Encoding: 359 359 411
Width: 412
Flags: W
HStem: -10 124.25<260.156 368.946> 207.75 113.5<39 343> 382 119.011<16.5 379.5>
VStem: 100 149<126.062 651.511>
LayerCount: 2
Fore
SplineSet
343 207.75 m 1
 39 207.75 l 1
 39 321.25 l 1
 343 321.25 l 1
 343 207.75 l 1
EndSplineSet
Refer: 41 116 N 1 0 0 1 0 0 2
EndChar

StartChar: Hbar
Encoding: 294 294 412
Width: 859
Flags: W
HStem: 0 21G<127.5 286.5 572.5 731.5> 290 136<207.5 636.5> 506.011 131<32.5 826.5> 711.008 20G<127.5 286.5 572.5 731.5>
VStem: 127.5 159<0 290 426 731.008> 207.5 79<290 426> 572.5 64<290 426> 572.5 159<0 290 426 731.008>
LayerCount: 2
Fore
SplineSet
826.5 506.010742188 m 1xf0
 32.5 503 l 1
 32.5 634 l 1
 826.5 637.010742188 l 1
 826.5 506.010742188 l 1xf0
EndSplineSet
Refer: 2 72 N 1 0 0 1 70 0 2
EndChar

StartChar: hbar
Encoding: 295 295 413
Width: 637
Flags: W
HStem: 0 21G<99.5 248.5 431.277 580.277> 389.034 121.899<288.631 404.29> 553.75 113.5<30 364> 731.002 20G<99.5 248.5>
VStem: 99.5 149<0 751.002> 431.277 149<0 359.128>
LayerCount: 2
Fore
SplineSet
364 553.75 m 1
 30 553.75 l 1
 30 667.25 l 1
 364 667.25 l 1
 364 553.75 l 1
EndSplineSet
Refer: 36 104 N 1 0 0 1 42 0 2
EndChar

StartChar: uogonek
Encoding: 371 371 423
Width: 595
Flags: W
HStem: -274 87<449.382 558.728> -9.92285 121.899<233.487 349.146> 0 21G<389.277 538.277> 481.011 20G<57.5 206.5 389.277 538.277>
VStem: 57.5 149<141.883 501.011> 328.5 110<-177.391 -65.0491> 389.277 149<207.449 501.011>
LayerCount: 2
Fore
SplineSet
328.5 -149 m 0x9c
 328.5 -49.5224609375 416.5 20 416.5 20 c 1
 521.5 20 l 1
 521.5 20 438.5 -48.3505859375 438.5 -127 c 0
 438.5 -170.13671875 460.425537109 -187 499 -187 c 0
 537.620117188 -187 555 -173 555 -173 c 1
 573 -251 l 1
 573 -251 540.426757812 -274 475 -274 c 0
 384.790283203 -274 328.5 -229.528320312 328.5 -149 c 0x9c
EndSplineSet
Refer: 50 117 N 1 0 0 1 0 0 3
EndChar

StartChar: Lslash
Encoding: 321 321 429
Width: 612
Flags: W
HStem: 0 137.25<260.5 588> 711.008 20G<101.5 260.5>
VStem: 101.5 159<137.25 731.008>
LayerCount: 2
Fore
SplineSet
423.5 372 m 1
 29.5 283 l 1
 20.5 410 l 1
 414.5 499 l 1
 423.5 372 l 1
EndSplineSet
Refer: 7 76 N 1 0 0 1 44 0 2
EndChar

StartChar: lslash
Encoding: 322 322 430
Width: 425
Flags: W
HStem: -10.0088 130.25<264.816 371.527> 731.002 20G<104 253>
VStem: 104 149<132.99 751.002>
LayerCount: 2
Fore
SplineSet
353.5 392 m 1
 29.5 303 l 1
 20.5 430 l 1
 344.5 519 l 1
 353.5 392 l 1
EndSplineSet
Refer: 35 108 N 1 0 0 1 44 0 2
EndChar

StartChar: guilsinglleft
Encoding: 8249 8249 530
Width: 340
Flags: W
VStem: 37.5 290
LayerCount: 2
Fore
SplineSet
37.5 281 m 1
 177.5 441 l 1
 327.5 441 l 1
 174.25 254 l 1
 327.5 67 l 1
 177.5 67 l 1
 37.5 227 l 1
 37.5 281 l 1
EndSplineSet
EndChar

StartChar: guilsinglright
Encoding: 8250 8250 531
Width: 340
Flags: W
VStem: 12.5 290
LayerCount: 2
Fore
SplineSet
302.5 227 m 1
 162.5 67 l 1
 12.5 67 l 1
 165.75 254 l 1
 12.5 441 l 1
 162.5 441 l 1
 302.5 281 l 1
 302.5 227 l 1
EndSplineSet
EndChar

StartChar: uni20AE
Encoding: 8366 8366 532
Width: 614
Flags: W
HStem: 0 21G<227.5 386.5> 593.75 137.25<32.5 227.5 386.5 581.5> 593.75 107.25<227.5 386.5>
VStem: 227.5 159<0 701>
LayerCount: 2
Fore
SplineSet
581.5 593.75 m 1xd0
 32.5 593.75 l 1
 32.5 731 l 1
 581.5 731 l 1
 581.5 593.75 l 1xd0
227.5 0 m 1
 227.5 701 l 1
 386.5 701 l 1xb0
 386.5 0 l 1
 227.5 0 l 1
494 255 m 1
 120 145 l 1
 120 231 l 1
 494 341 l 1
 494 255 l 1
494 385 m 1
 120 275 l 1
 120 361 l 1
 494 471 l 1
 494 385 l 1
EndSplineSet
EndChar

StartChar: estimated
Encoding: 8494 8494 533
Width: 765
Flags: W
HStem: -9.99805 114.462<307.139 610.981> 294 110<129.5 568> 362 42<568 618> 619.159 119.962<289.072 506.072>
VStem: 127.349 87.5<294 604.562> 127.5 39.8486<295.448 399.39> 568 87.5<362 404 418.734 624> 618.598 36.9023<404.004 487.767>
LayerCount: 2
Fore
SplineSet
568 624 m 1xb2
 655.5 624 l 1
 655.5 362 l 1
 568 362 l 1
 568 624 l 1xb2
127.348632812 604.561523438 m 1x98
 214.848632812 604.561523438 l 1
 214.848632812 132.561523438 l 1
 127.348632812 132.561523438 l 1
 127.348632812 604.561523438 l 1x98
35 364.561523438 m 0
 35 591.206054688 163.541887394 739.12109375 389.888671875 739.12109375 c 0
 633.541980974 739.12109375 740.108398438 587.014334807 740.108398438 395.891601562 c 0
 740.108398438 317.689453126 732 294 732 294 c 1
 129.5 294 l 1xd5
 127.5 404 l 1
 618 404 l 1
 618 404 618.597697268 409.501235171 618.597697268 418.734098276 c 0
 618.597697268 487.766982229 581.497224487 619.159179688 395 619.159179688 c 0
 236.138733923 619.159179688 167.348632812 517.231903355 167.348632812 364.561523438 c 0xb5
 167.348632812 208.593049176 247.175816336 104.463867188 433.888671875 104.463867188 c 0
 580.086343539 104.463867188 657.518554688 141.595703125 657.518554688 141.595703125 c 1
 680.327148438 32.595703125 l 1
 680.327148438 32.595703125 602.606949864 -9.998046875 425.888671875 -9.998046875 c 0
 176.581210181 -9.998046875 35 137.916992188 35 364.561523438 c 0
EndSplineSet
EndChar

StartChar: Omega
Encoding: 8486 8486 534
Width: 837
Flags: W
HStem: 0 132.25<32.5 159.828 324.222 384 453 513.093 677.666 804.5> 595.409 143.712<318.106 519.672>
VStem: 57.5 154.849<251.878 481.873> 453 351.5<0 132.25> 625.429 154.849<251.878 481.873>
LayerCount: 2
Fore
SplineSet
384 0 m 1xe8
 32.5 0 l 1
 32.5 132.25 l 1
 159.828125 132.25 l 1
 159.828125 132.25 57.5 203.027201547 57.5 384.561523438 c 0
 57.5 599.104132899 194.242524632 739.12109375 418.888671875 739.12109375 c 0
 643.534819118 739.12109375 780.27734375 599.104132899 780.27734375 384.561523438 c 0xe8
 780.27734375 203.027201547 677.666015625 132.25 677.666015625 132.25 c 1
 804.5 132.25 l 1
 804.5 0 l 1
 453 0 l 1
 453 132.25 l 1xf0
 550.242648932 150.532782284 625.428710938 225.255101434 625.428710938 364.561523438 c 0
 625.428710938 502.990132333 563.571176656 595.409179688 418.888671875 595.409179688 c 0
 274.206167094 595.409179688 212.348632812 502.990132333 212.348632812 364.561523438 c 0
 212.348632812 225.255101434 287.306762452 150.532782284 384 132.25 c 1
 384 0 l 1xe8
EndSplineSet
EndChar

StartChar: uni2E3A
Encoding: 11834 11834 536
Width: 1080
Flags: W
HStem: 213.75 131.5<32.5 1047.5>
LayerCount: 2
Fore
SplineSet
32.5 213.75 m 1
 32.5 345.25 l 1
 1047.5 345.25 l 1
 1047.5 213.75 l 1
 32.5 213.75 l 1
EndSplineSet
EndChar

StartChar: uni2E3B
Encoding: 11835 11835 537
Width: 1380
Flags: W
HStem: 213.75 131.5<32.5 1347.5>
LayerCount: 2
Fore
SplineSet
32.5 213.75 m 1
 32.5 345.25 l 1
 1347.5 345.25 l 1
 1347.5 213.75 l 1
 32.5 213.75 l 1
EndSplineSet
EndChar

StartChar: pi
Encoding: 960 960 538
Width: 672
Flags: W
HStem: -10 117<472.317 629.628> 0 21G<66 225> 376 125.011<16.5 115 264 380 529 639.5> 376 105.011<115 264>
VStem: 115 149<120.725 481.011> 380 149<115.434 441.011>
LayerCount: 2
Fore
SplineSet
66 0 m 1x5c
 66 0 115 155.741721854 115 351 c 2
 115 481.010742188 l 1
 264 481.010742188 l 1
 264 329 l 2
 264 141 225 0 225 0 c 1
 66 0 l 1x5c
16.5 501.010742188 m 1x2c
 639.5 501.010742188 l 1
 639.5 376 l 1
 16.5 376 l 1
 16.5 501.010742188 l 1x2c
529 165 m 2
 529 124.469892394 543.501681858 107 578 107 c 0
 607.163411458 107 628 118 628 118 c 1
 642 6 l 1
 642 6 599.068945312 -10 537 -10 c 0x8c
 409.225967162 -10 380 58.076171875 380 161 c 2
 380 441.010742188 l 1
 529 461.010742188 l 1
 529 165 l 2
EndSplineSet
EndChar

StartChar: radical
Encoding: 8730 8730 539
Width: 686
Flags: W
HStem: 0 21G<260.583 457.711> 481.011 20G<5 257.615> 711.008 20G<513.955 678.5>
LayerCount: 2
Fore
SplineSet
251.5 501.010742188 m 1
 358.606445312 150.694335938 l 1
 519.5 731.0078125 l 1
 678.5 731.0078125 l 1
 451.5 0 l 1
 267.5 0 l 1
 143.85546875 357.510742188 l 1
 15 346.510742188 l 1
 5 481.010742188 l 1
 251.5 501.010742188 l 1
EndSplineSet
EndChar

StartChar: .notdef
Encoding: 65536 -1 681
Width: 639
Flags: W
HStem: 0 117<220.25 450> 50 67<189 220.25> 614.008 117<189 418.75> 614.008 66.9922<418.75 450>
VStem: 60 129<117 614.008>
LayerCount: 2
Fore
SplineSet
189 614.0078125 m 1x28
 189 117 l 1x68
 450 117 l 1
 450 614.0078125 l 1x98
 189 614.0078125 l 1x28
579 0 m 1xa8
 60 0 l 1
 60 731.0078125 l 1
 579 731.0078125 l 1
 579 0 l 1xa8
98.75 50 m 1x58
 418.75 681 l 1
 540.25 681 l 1
 220.25 50 l 1
 98.75 50 l 1x58
EndSplineSet
EndChar

